<?xml version="1.0" encoding="UTF-8"?>
<svg xmlns="http://www.w3.org/2000/svg" xmlns:xlink="http://www.w3.org/1999/xlink" width="1085px" height="230px" viewBox="0 0 542 115" version="1.1">
<g id="surface1">
<path style=" stroke:none;fill-rule:nonzero;fill:rgb(92.156863%,15.294118%,13.333334%);fill-opacity:1;" d="M 487.550781 2 C 491.371094 4.914062 493.148438 8.851562 495.042969 13.125 C 495.363281 13.832031 495.6875 14.535156 496.007812 15.242188 C 497.03125 17.488281 498.039062 19.742188 499.039062 22 C 499.375 22.75 499.707031 23.5 500.039062 24.25 C 501.378906 27.257812 502.714844 30.269531 504.042969 33.285156 C 506.371094 38.554688 508.78125 43.773438 511.242188 48.980469 C 513.914062 54.636719 516.464844 60.335938 518.984375 66.0625 C 521.902344 72.6875 524.949219 79.25 528.074219 85.78125 C 528.238281 86.128906 528.402344 86.472656 528.570312 86.828125 C 529.015625 87.753906 529.457031 88.683594 529.902344 89.613281 C 530.511719 91 530.511719 91 530.511719 92 C 524.988281 92.296875 519.476562 92.050781 514.867188 88.625 C 512.332031 86.128906 510.976562 82.773438 509.523438 79.578125 C 509.03125 78.5 508.519531 77.433594 508.003906 76.367188 C 507.679688 75.691406 507.355469 75.019531 507.03125 74.34375 C 506.882812 74.03125 506.730469 73.714844 506.574219 73.390625 C 505.917969 71.992188 505.535156 71.070312 505.535156 69.5 C 489.875 69.5 474.210938 69.5 458.078125 69.5 C 457.914062 70.324219 457.746094 71.148438 457.578125 72 C 456.828125 74.066406 455.949219 76.074219 455.082031 78.09375 C 454.859375 78.636719 454.636719 79.179688 454.40625 79.738281 C 452.332031 84.550781 449.652344 88.644531 444.839844 91 C 440.519531 92.699219 436.726562 93.128906 432.101562 93 C 433.6875 88.796875 435.566406 84.734375 437.449219 80.660156 C 438.40625 78.597656 439.355469 76.535156 440.304688 74.472656 C 440.496094 74.050781 440.691406 73.632812 440.890625 73.199219 C 442.730469 69.203125 444.554688 65.195312 446.371094 61.1875 C 446.984375 59.832031 447.597656 58.476562 448.214844 57.121094 C 448.367188 56.785156 448.519531 56.449219 448.675781 56.101562 C 450.636719 51.78125 452.609375 47.464844 454.582031 43.148438 C 456.730469 38.457031 458.867188 33.761719 461 29.0625 C 461.625 27.679688 462.253906 26.296875 462.882812 24.917969 C 464.214844 22 465.539062 19.082031 466.824219 16.144531 C 467.222656 15.234375 467.625 14.328125 468.027344 13.425781 C 468.515625 12.332031 468.992188 11.234375 469.464844 10.132812 C 471.21875 6.21875 473.511719 2.777344 477.558594 1 C 481.070312 -0.0585938 484.332031 0.226562 487.550781 2 Z M 481.554688 18 C 477.664062 26.515625 473.773438 35.03125 469.898438 43.554688 C 469.574219 44.261719 469.253906 44.972656 468.929688 45.679688 C 468.476562 46.675781 468.027344 47.667969 467.574219 48.664062 C 467.320312 49.226562 467.0625 49.789062 466.800781 50.367188 C 466.039062 52.070312 465.304688 53.785156 464.570312 55.5 C 475.945312 55.5 487.320312 55.5 499.039062 55.5 C 497.566406 51.964844 496.105469 48.464844 494.488281 45 C 494.214844 44.402344 494.214844 44.402344 493.929688 43.792969 C 493.34375 42.527344 492.757812 41.265625 492.171875 40 C 491.367188 38.261719 490.5625 36.523438 489.757812 34.789062 C 489.5625 34.367188 489.367188 33.949219 489.167969 33.515625 C 487.515625 29.941406 485.894531 26.351562 484.328125 22.742188 C 483.554688 20.988281 482.730469 19.503906 481.554688 18 Z M 481.554688 18 "/>
<path style=" stroke:none;fill-rule:nonzero;fill:rgb(92.54902%,15.294118%,13.333334%);fill-opacity:1;" d="M 212.203125 30.734375 C 213.65625 31.746094 214.984375 32.820312 216.300781 34 C 216.5625 33.742188 216.820312 33.480469 217.089844 33.210938 C 223.226562 27.394531 229.898438 26.191406 238.078125 26.34375 C 245.128906 26.636719 250.996094 30.242188 255.765625 35.320312 C 261.765625 42.410156 262.058594 50.832031 261.953125 59.6875 C 261.949219 60.640625 261.945312 61.59375 261.945312 62.546875 C 261.9375 65.023438 261.917969 67.503906 261.894531 69.984375 C 261.875 72.523438 261.867188 75.0625 261.855469 77.605469 C 261.835938 82.570312 261.800781 87.535156 261.757812 92.5 C 258.960938 93.308594 256.824219 92.226562 254.265625 91 C 250.992188 88.914062 249.027344 86.152344 247.769531 82.5 C 247.433594 80.082031 247.433594 77.699219 247.453125 75.261719 C 247.449219 74.570312 247.445312 73.882812 247.4375 73.191406 C 247.421875 71.390625 247.421875 69.589844 247.425781 67.789062 C 247.429688 64.902344 247.414062 62.015625 247.394531 59.128906 C 247.390625 58.128906 247.394531 57.128906 247.398438 56.128906 C 247.382812 50.96875 247.070312 46.804688 243.277344 43 C 240.328125 40.800781 236.84375 40.277344 233.234375 40.59375 C 230.445312 41.128906 227.820312 42.523438 225.792969 44.5 C 223.980469 47.292969 223.5 49.710938 223.519531 52.992188 C 223.511719 53.636719 223.511719 53.636719 223.503906 54.296875 C 223.492188 55.703125 223.488281 57.109375 223.488281 58.515625 C 223.480469 59.496094 223.472656 60.476562 223.464844 61.457031 C 223.441406 64.027344 223.433594 66.601562 223.425781 69.171875 C 223.414062 71.800781 223.394531 74.425781 223.375 77.054688 C 223.335938 82.203125 223.3125 87.351562 223.292969 92.5 C 220.363281 93.324219 217.789062 92.332031 215.175781 90.871094 C 211.9375 88.621094 209.980469 85.957031 209.25 82.058594 C 208.679688 78.683594 208.667969 75.347656 208.671875 71.929688 C 208.664062 70.921875 208.65625 69.914062 208.648438 68.90625 C 208.628906 66.449219 208.621094 63.988281 208.617188 61.53125 C 208.613281 60.140625 208.609375 58.753906 208.59375 57.363281 C 208.582031 56.0625 208.578125 54.761719 208.585938 53.460938 C 208.546875 49.90625 208.242188 47.515625 206.308594 44.5 C 203.628906 41.890625 200.316406 40.566406 196.617188 40.46875 C 192.828125 40.65625 189.886719 42.019531 187.140625 44.625 C 184.835938 48.527344 184.621094 52.277344 184.65625 56.75 C 184.660156 57.785156 184.660156 58.824219 184.652344 59.859375 C 184.636719 62.804688 184.640625 65.753906 184.648438 68.699219 C 184.65625 70.507812 184.648438 72.320312 184.632812 74.132812 C 184.632812 74.816406 184.632812 75.5 184.640625 76.183594 C 184.691406 81.222656 183.96875 84.839844 180.78125 88.8125 C 178.21875 91.046875 175.773438 92.578125 172.339844 93 C 171.671875 92.847656 171.003906 92.683594 170.34375 92.5 C 170.320312 87.054688 170.300781 81.605469 170.292969 76.160156 C 170.285156 73.632812 170.277344 71.101562 170.265625 68.574219 C 170.257812 66.128906 170.25 63.683594 170.25 61.238281 C 170.246094 60.308594 170.242188 59.382812 170.238281 58.453125 C 170.1875 49.539062 170.707031 41.96875 176.835938 35 C 177.109375 34.683594 177.382812 34.371094 177.664062 34.046875 C 186.625 24.398438 201.496094 23.945312 212.203125 30.734375 Z M 212.203125 30.734375 "/>
<path style=" stroke:none;fill-rule:nonzero;fill:rgb(92.54902%,15.294118%,13.333334%);fill-opacity:1;" d="M 66.9375 2 C 67.28125 2.117188 67.625 2.234375 67.980469 2.359375 C 79.460938 6.367188 89.890625 14.386719 95.441406 25.375 C 95.773438 26.082031 96.097656 26.789062 96.410156 27.5 C 92.679688 29.726562 89.558594 30.738281 85.191406 29.710938 C 81.554688 28.449219 79.175781 26.121094 76.429688 23.5 C 71.449219 19.015625 65.027344 15.78125 58.445312 14.5 C 58.003906 14.410156 57.5625 14.316406 57.109375 14.226562 C 46.449219 12.78125 35.847656 14.734375 26.976562 21 C 20.503906 26.152344 15.199219 33.109375 13.988281 41.5 C 13.246094 51.171875 15.238281 59.667969 21.574219 67.1875 C 29.085938 74.953125 39.277344 78.824219 49.953125 79.125 C 59.875 79.011719 68.070312 75.605469 75.972656 69.726562 C 79.714844 66.953125 83.347656 66.449219 87.917969 67 C 89.710938 67.65625 91.304688 68.480469 92.914062 69.5 C 92.914062 73.316406 89.433594 76.066406 86.917969 78.71875 C 76.765625 88.644531 63.101562 93.207031 49.066406 93.183594 C 36.203125 92.914062 24.027344 88.109375 14.488281 79.5 C 13.855469 78.9375 13.855469 78.9375 13.210938 78.367188 C 5.378906 71.003906 0.183594 60.777344 -0.214844 49.957031 C -0.226562 48.742188 -0.230469 47.527344 -0.21875 46.3125 C -0.214844 45.675781 -0.210938 45.035156 -0.203125 44.378906 C 0.0117188 32.496094 5.398438 22.105469 13.710938 13.738281 C 19.398438 8.320312 26.085938 4.554688 33.46875 2 C 34.058594 1.792969 34.648438 1.582031 35.257812 1.367188 C 44.808594 -1.429688 57.5625 -1.34375 66.9375 2 Z M 66.9375 2 "/>
<path style=" stroke:none;fill-rule:nonzero;fill:rgb(92.156863%,15.294118%,13.333334%);fill-opacity:1;" d="M 328.03125 34.546875 C 334.484375 40.082031 338.949219 47.941406 339.6875 56.5 C 340.101562 65.355469 338.097656 73.667969 332.171875 80.449219 C 331.847656 80.796875 331.527344 81.144531 331.195312 81.5 C 330.917969 81.816406 330.640625 82.132812 330.355469 82.457031 C 324.96875 88.300781 316.507812 91.917969 308.65625 92.644531 C 307.089844 92.699219 305.535156 92.703125 303.96875 92.6875 C 303.453125 92.691406 302.933594 92.699219 302.398438 92.703125 C 296.648438 92.683594 291.925781 91.882812 287.769531 87.722656 C 284.929688 84.363281 284.515625 81.402344 284.570312 77.054688 C 284.746094 75.417969 285.160156 74.039062 285.738281 72.5 C 287.246094 73.21875 288.613281 74.0625 290.015625 74.96875 C 294.433594 77.582031 298.433594 78.132812 303.5 78.1875 C 303.9375 78.195312 304.375 78.203125 304.824219 78.207031 C 310.882812 78.164062 316.113281 75.96875 320.609375 71.90625 C 324.042969 68.265625 325.386719 63.425781 325.34375 58.539062 C 324.863281 53.355469 322.574219 48.941406 318.707031 45.5 C 313.425781 41.234375 307.417969 39.878906 300.722656 40.5 C 294.871094 41.382812 289.339844 43.609375 285.546875 48.28125 C 282.757812 52.476562 282.164062 56.742188 282.167969 61.65625 C 282.167969 62.121094 282.164062 62.585938 282.164062 63.066406 C 282.160156 64.074219 282.15625 65.085938 282.15625 66.09375 C 282.152344 67.695312 282.144531 69.292969 282.132812 70.894531 C 282.109375 75.441406 282.085938 79.988281 282.078125 84.539062 C 282.070312 87.324219 282.058594 90.109375 282.035156 92.890625 C 282.03125 93.949219 282.027344 95.007812 282.027344 96.066406 C 282.03125 97.550781 282.019531 99.035156 282.003906 100.519531 C 282.007812 100.953125 282.011719 101.382812 282.015625 101.828125 C 281.953125 105.917969 280.839844 109.5 277.992188 112.5 C 275.710938 114.660156 274.03125 115.125 270.875 115.0625 C 270.289062 115.054688 269.707031 115.042969 269.101562 115.035156 C 268.65625 115.023438 268.210938 115.011719 267.753906 115 C 267.707031 107.304688 267.671875 99.613281 267.648438 91.917969 C 267.640625 88.347656 267.625 84.773438 267.601562 81.199219 C 267.582031 78.082031 267.570312 74.964844 267.566406 71.847656 C 267.5625 70.199219 267.554688 68.550781 267.542969 66.90625 C 267.449219 55.441406 268.265625 45.824219 276.621094 37.105469 C 277.175781 36.558594 277.175781 36.558594 277.742188 36 C 278.066406 35.675781 278.390625 35.351562 278.726562 35.019531 C 281.273438 32.632812 284.109375 31.019531 287.234375 29.5 C 287.8125 29.214844 287.8125 29.214844 288.398438 28.921875 C 301.511719 23.03125 316.957031 25.824219 328.03125 34.546875 Z M 328.03125 34.546875 "/>
<path style=" stroke:none;fill-rule:nonzero;fill:rgb(92.156863%,15.294118%,13.333334%);fill-opacity:1;" d="M 153.78125 32.992188 C 155.015625 33.953125 156.191406 34.953125 157.355469 36 C 157.671875 36.277344 157.988281 36.554688 158.316406 36.835938 C 164.015625 42.125 167.363281 49.804688 167.84375 57.5 C 167.917969 66.664062 165.371094 74.636719 158.992188 81.359375 C 151.855469 88.503906 143.445312 92.109375 133.378906 93 C 132.96875 93.035156 132.5625 93.070312 132.144531 93.109375 C 122.070312 93.523438 111.828125 89.867188 104.34375 83.144531 C 98.015625 77.164062 94.414062 69.894531 93.820312 61.148438 C 93.597656 51.945312 96.882812 43.640625 103.1875 36.9375 C 116.585938 24.15625 138.539062 22.359375 153.78125 32.992188 Z M 112.894531 47 C 109.359375 51.375 107.710938 55.847656 107.902344 61.5 C 108.738281 66.617188 110.988281 70.609375 114.996094 73.90625 C 116.097656 74.679688 117.207031 75.355469 118.390625 76 C 118.746094 76.195312 119.097656 76.390625 119.464844 76.589844 C 126.117188 79.882812 133.40625 79.429688 140.371094 77.5 C 145.464844 75.402344 149.953125 72.046875 152.359375 67 C 154.390625 62.003906 154.429688 57.742188 152.429688 52.738281 C 151.71875 51.191406 150.890625 49.851562 149.863281 48.5 C 149.5625 48.097656 149.265625 47.695312 148.957031 47.28125 C 145 42.648438 138.757812 40.632812 132.878906 40.0625 C 125.53125 39.738281 118.226562 41.707031 112.894531 47 Z M 112.894531 47 "/>
<path style=" stroke:none;fill-rule:nonzero;fill:rgb(92.156863%,15.294118%,13.333334%);fill-opacity:1;" d="M 315.707031 0.5 C 347.523438 0.5 379.339844 0.5 412.121094 0.5 C 412.121094 4.707031 411.605469 7.296875 408.78125 10.429688 C 398.882812 19.308594 381.429688 14.5 370.65625 14.5 C 370.65625 40.40625 370.65625 66.308594 370.65625 93 C 365.996094 92.480469 363.136719 91.777344 359.980469 88.3125 C 357.488281 85.132812 356.605469 81.695312 356.609375 77.695312 C 356.609375 76.855469 356.609375 76.855469 356.609375 76 C 356.613281 75.089844 356.613281 75.089844 356.613281 74.15625 C 356.613281 73.511719 356.613281 72.871094 356.613281 72.207031 C 356.613281 70.445312 356.617188 68.679688 356.621094 66.917969 C 356.625 65.074219 356.625 63.234375 356.625 61.390625 C 356.625 57.902344 356.628906 54.414062 356.636719 50.925781 C 356.640625 46.953125 356.644531 42.980469 356.644531 39.007812 C 356.652344 30.839844 356.660156 22.667969 356.671875 14.5 C 356.132812 14.503906 356.132812 14.503906 355.582031 14.511719 C 352.179688 14.539062 348.777344 14.5625 345.375 14.578125 C 343.625 14.585938 341.878906 14.597656 340.128906 14.613281 C 338.113281 14.632812 336.097656 14.640625 334.085938 14.648438 C 333.464844 14.652344 332.839844 14.660156 332.199219 14.671875 C 326.808594 14.671875 322.714844 13.742188 318.707031 10 C 316.210938 6.847656 315.707031 4.527344 315.707031 0.5 Z M 315.707031 0.5 "/>
<path style=" stroke:none;fill-rule:nonzero;fill:rgb(92.54902%,14.901961%,13.333334%);fill-opacity:1;" d="M 415.617188 0.5 C 416.417969 0.570312 417.21875 0.640625 418.023438 0.714844 C 418.46875 0.753906 418.914062 0.792969 419.375 0.835938 C 422.683594 1.277344 425.351562 3.460938 427.355469 6.03125 C 429.167969 8.605469 429.730469 10.78125 429.722656 13.933594 C 429.726562 14.273438 429.726562 14.609375 429.726562 14.960938 C 429.726562 16.09375 429.722656 17.226562 429.71875 18.355469 C 429.71875 19.171875 429.71875 19.984375 429.71875 20.796875 C 429.71875 23 429.710938 25.207031 429.703125 27.414062 C 429.699219 29.71875 429.699219 32.023438 429.695312 34.328125 C 429.695312 38.695312 429.6875 43.058594 429.675781 47.425781 C 429.664062 52.394531 429.660156 57.363281 429.652344 62.332031 C 429.644531 72.554688 429.625 82.777344 429.605469 93 C 428.738281 92.867188 427.871094 92.726562 427.007812 92.582031 C 426.523438 92.503906 426.042969 92.425781 425.546875 92.347656 C 421.941406 91.476562 419.425781 89.070312 417.210938 86.210938 C 415.132812 81.984375 415.480469 77.230469 415.503906 72.644531 C 415.503906 71.855469 415.503906 71.066406 415.503906 70.277344 C 415.503906 68.148438 415.507812 66.019531 415.515625 63.890625 C 415.523438 61.660156 415.523438 59.429688 415.523438 57.199219 C 415.527344 52.980469 415.535156 48.761719 415.542969 44.546875 C 415.554688 39.742188 415.5625 34.9375 415.566406 30.132812 C 415.578125 20.253906 415.59375 10.378906 415.617188 0.5 Z M 415.617188 0.5 "/>
<path style=" stroke:none;fill-rule:nonzero;fill:rgb(84.313726%,16.470589%,16.078432%);fill-opacity:1;" d="M 538.628906 75.09375 C 540.242188 76.15625 541.074219 76.785156 542 78.5 C 542.304688 80.386719 542.335938 82.113281 542 84 C 540.601562 85.855469 539.027344 87.34375 536.667969 87.703125 C 532.003906 87.84375 532.003906 87.84375 529.949219 86.15625 C 528.710938 84.855469 527.808594 83.808594 527.511719 82 C 527.632812 80.019531 527.90625 78.230469 529.199219 76.671875 C 532.039062 74.230469 535.179688 73.832031 538.628906 75.09375 Z M 534.007812 76.5 C 534.007812 76.664062 534.007812 76.828125 534.007812 77 C 534.832031 77 535.65625 77 536.503906 77 C 536.503906 76.835938 536.503906 76.671875 536.503906 76.5 C 535.679688 76.5 534.855469 76.5 534.007812 76.5 Z M 530.511719 78.5 C 529.820312 79.882812 529.914062 80.972656 530.011719 82.5 C 530.339844 82.828125 530.671875 83.160156 531.011719 83.5 C 531.011719 81.851562 531.011719 80.199219 531.011719 78.5 C 530.84375 78.5 530.679688 78.5 530.511719 78.5 Z M 539.003906 78.5 C 538.222656 80.695312 538.222656 80.695312 538.003906 83 C 538.746094 83.496094 538.746094 83.496094 539.503906 84 C 540.402344 81.660156 540.402344 81.660156 540.0625 79.28125 C 539.785156 78.894531 539.785156 78.894531 539.503906 78.5 C 539.335938 78.5 539.171875 78.5 539.003906 78.5 Z M 533.507812 79.5 C 533.507812 79.828125 533.507812 80.160156 533.507812 80.5 C 534.496094 80.335938 535.484375 80.171875 536.503906 80 C 536.503906 79.835938 536.503906 79.671875 536.503906 79.5 C 535.515625 79.5 534.527344 79.5 533.507812 79.5 Z M 533.507812 82.5 C 533.179688 83.324219 532.847656 84.148438 532.507812 85 C 533 85.601562 533 85.601562 533.929688 85.546875 C 534.957031 85.53125 535.980469 85.515625 537.003906 85.5 C 537.003906 85.171875 537.003906 84.839844 537.003906 84.5 C 536.675781 84.5 536.34375 84.5 536.003906 84.5 C 535.675781 83.839844 535.347656 83.179688 535.007812 82.5 C 534.511719 82.5 534.015625 82.5 533.507812 82.5 Z M 533.507812 82.5 "/>
<path style=" stroke:none;fill-rule:nonzero;fill:rgb(86.274511%,15.294118%,15.294118%);fill-opacity:1;" d="M 535.507812 75 C 535.011719 75.246094 535.011719 75.246094 534.507812 75.5 C 534.507812 75.828125 534.507812 76.160156 534.507812 76.5 C 535.167969 76.664062 535.824219 76.828125 536.503906 77 C 536.503906 76.503906 536.503906 76.011719 536.503906 75.5 C 537 75.5 537.496094 75.5 538.003906 75.5 C 538.847656 76.75 538.847656 76.75 539.503906 78 C 539.007812 78.164062 538.511719 78.328125 538.003906 78.5 C 537.390625 80.257812 537.390625 80.257812 537.003906 82 C 535.769531 81.753906 535.769531 81.753906 534.507812 81.5 C 534.507812 81.003906 534.507812 80.511719 534.507812 80 C 535.167969 80 535.824219 80 536.503906 80 C 536.503906 79.503906 536.503906 79.011719 536.503906 78.5 C 535.515625 78.664062 534.527344 78.828125 533.507812 79 C 533.34375 79.660156 533.179688 80.320312 533.007812 81 C 532.679688 81 532.347656 81 532.007812 81 C 531.84375 80.175781 531.679688 79.351562 531.507812 78.5 C 531.179688 78.5 530.851562 78.5 530.511719 78.5 C 530.511719 80.316406 530.511719 82.128906 530.511719 84 C 531.003906 83.835938 531.5 83.671875 532.007812 83.5 C 532.007812 84.324219 532.007812 85.148438 532.007812 86 C 532.503906 86.164062 533 86.328125 533.507812 86.5 C 532.164062 86.6875 532.164062 86.6875 530.511719 86.5 C 528.933594 85.027344 528.203125 84.058594 527.511719 82.03125 C 527.511719 79.449219 528.398438 77.683594 530.105469 75.78125 C 532.035156 74.707031 533.320312 74.851562 535.507812 75 Z M 535.507812 75 "/>
<path style=" stroke:none;fill-rule:nonzero;fill:rgb(78.823531%,18.82353%,18.039216%);fill-opacity:1;" d="M 170.34375 50 C 171.773438 51.433594 171.496094 52.863281 171.5 54.785156 C 171.507812 55.175781 171.511719 55.566406 171.515625 55.96875 C 171.53125 57.261719 171.539062 58.554688 171.546875 59.847656 C 171.558594 60.742188 171.566406 61.636719 171.578125 62.535156 C 171.605469 64.894531 171.625 67.253906 171.640625 69.609375 C 171.660156 72.015625 171.6875 74.421875 171.710938 76.828125 C 171.761719 81.554688 171.804688 86.277344 171.839844 91 C 173.160156 91.164062 174.480469 91.328125 175.835938 91.5 C 174.109375 92.652344 172.890625 92.808594 170.84375 93 C 169.953125 92.113281 170.28125 90.921875 170.28125 89.742188 C 170.28125 89.34375 170.285156 88.949219 170.285156 88.542969 C 170.285156 88.128906 170.285156 87.710938 170.285156 87.285156 C 170.285156 85.910156 170.289062 84.53125 170.292969 83.15625 C 170.296875 82.203125 170.296875 81.25 170.296875 80.296875 C 170.296875 77.785156 170.304688 75.277344 170.308594 72.765625 C 170.3125 70.203125 170.316406 67.644531 170.320312 65.082031 C 170.324219 60.054688 170.332031 55.027344 170.34375 50 Z M 170.34375 50 "/>
<path style=" stroke:none;fill-rule:nonzero;fill:rgb(92.941177%,13.333334%,10.980392%);fill-opacity:1;" d="M 536.503906 75.5 C 537 75.5 537.496094 75.5 538.003906 75.5 C 538.847656 76.75 538.847656 76.75 539.503906 78 C 539.007812 78.164062 538.511719 78.328125 538.003906 78.5 C 537.390625 80.257812 537.390625 80.257812 537.003906 82 C 536.179688 81.835938 535.355469 81.671875 534.507812 81.5 C 534.507812 81.003906 534.507812 80.511719 534.507812 80 C 535.167969 80 535.824219 80 536.503906 80 C 536.503906 79.503906 536.503906 79.011719 536.503906 78.5 C 535.515625 78.664062 534.527344 78.828125 533.507812 79 C 533.34375 79.660156 533.179688 80.320312 533.007812 81 C 532.679688 81 532.347656 81 532.007812 81 C 531.9375 80.617188 531.863281 80.238281 531.789062 79.84375 C 531.527344 78.460938 531.527344 78.460938 531.011719 77 C 532.671875 76.121094 533.304688 75.945312 535.164062 76.4375 C 535.605469 76.625 536.046875 76.808594 536.503906 77 C 536.503906 76.503906 536.503906 76.011719 536.503906 75.5 Z M 536.503906 75.5 "/>
<path style=" stroke:none;fill-rule:nonzero;fill:rgb(88.235295%,15.294118%,13.725491%);fill-opacity:1;" d="M 81.425781 67 C 85.9375 66.679688 89.058594 67.0625 92.914062 69.5 C 92.914062 71.796875 92.570312 72.164062 91.164062 73.875 C 90.839844 74.273438 90.515625 74.675781 90.183594 75.085938 C 89.929688 75.386719 89.675781 75.6875 89.417969 76 C 89.253906 75.339844 89.085938 74.679688 88.917969 74 C 89.414062 74 89.90625 74 90.417969 74 C 90.25 73.503906 90.085938 73.011719 89.917969 72.5 C 90.136719 71.15625 90.136719 71.15625 90.417969 70 C 90.085938 70 89.757812 70 89.417969 70 C 89.253906 70.328125 89.085938 70.660156 88.917969 71 C 88.917969 70.671875 88.917969 70.339844 88.917969 70 C 88.589844 70 88.257812 70 87.917969 70 C 87.917969 69.671875 87.917969 69.339844 87.917969 69 C 87.589844 69 87.257812 69 86.917969 69 C 86.917969 68.671875 86.917969 68.339844 86.917969 68 C 85.105469 67.835938 83.292969 67.671875 81.425781 67.5 C 81.425781 67.335938 81.425781 67.171875 81.425781 67 Z M 81.425781 67 "/>
<path style=" stroke:none;fill-rule:nonzero;fill:rgb(87.058824%,16.862746%,15.294118%);fill-opacity:1;" d="M 321.203125 88.5 C 319.578125 89.894531 318.035156 90.460938 315.988281 91.0625 C 315.433594 91.230469 314.878906 91.394531 314.304688 91.566406 C 312.089844 92.167969 310.109375 92.566406 307.808594 92.53125 C 307.414062 92.527344 307.019531 92.523438 306.613281 92.515625 C 306.316406 92.511719 306.023438 92.507812 305.71875 92.5 C 305.882812 92.171875 306.046875 91.839844 306.21875 91.5 C 307.539062 91.203125 308.859375 91.128906 310.214844 91 C 310.214844 90.671875 310.214844 90.339844 310.214844 90 C 310.664062 89.933594 311.117188 89.867188 311.582031 89.796875 C 312.171875 89.710938 312.761719 89.621094 313.367188 89.53125 C 314.246094 89.402344 314.246094 89.402344 315.140625 89.265625 C 319.816406 88.46875 319.816406 88.46875 321.203125 88.5 Z M 321.203125 88.5 "/>
<path style=" stroke:none;fill-rule:nonzero;fill:rgb(85.882354%,16.078432%,16.078432%);fill-opacity:1;" d="M 110.398438 31.5 C 110.5625 32.160156 110.726562 32.820312 110.898438 33.5 C 110.238281 33.664062 109.578125 33.828125 108.898438 34 C 108.898438 34.328125 108.898438 34.660156 108.898438 35 C 108.46875 35.09375 108.035156 35.1875 107.589844 35.28125 C 105.449219 36.195312 104.097656 37.496094 102.90625 39.5 C 102.90625 40.160156 102.90625 40.820312 102.90625 41.5 C 101.582031 42.230469 100.960938 42.5 99.410156 42.5 C 101.488281 37.945312 106.019531 33.828125 110.398438 31.5 Z M 110.398438 31.5 "/>
<path style=" stroke:none;fill-rule:nonzero;fill:rgb(88.627452%,16.470589%,16.078432%);fill-opacity:1;" d="M 76.929688 18 C 77.257812 18 77.589844 18 77.929688 18 C 77.492188 21.375 77.492188 21.375 76.929688 22.5 C 77.589844 22.335938 78.246094 22.171875 78.925781 22 C 78.925781 22.328125 78.925781 22.660156 78.925781 23 C 78.433594 23.246094 78.433594 23.246094 77.929688 23.5 C 78.09375 23.828125 78.257812 24.160156 78.425781 24.5 C 76.789062 23.753906 75.464844 22.808594 74.058594 21.6875 C 73.65625 21.371094 73.257812 21.054688 72.847656 20.730469 C 72.394531 20.367188 72.394531 20.367188 71.933594 20 C 72.261719 19.835938 72.59375 19.671875 72.933594 19.5 C 73.242188 19.613281 73.550781 19.726562 73.871094 19.84375 C 74.394531 19.921875 74.394531 19.921875 74.929688 20 C 76.003906 19.050781 76.003906 19.050781 76.929688 18 Z M 76.929688 18 "/>
<path style=" stroke:none;fill-rule:nonzero;fill:rgb(86.666667%,16.862746%,16.078432%);fill-opacity:1;" d="M 524.515625 79.5 C 525.996094 81.28125 526.917969 83.230469 527.886719 85.3125 C 528.050781 85.652344 528.214844 85.992188 528.386719 86.34375 C 528.792969 87.214844 529.15625 88.105469 529.511719 89 C 529.347656 89.328125 529.183594 89.660156 529.011719 90 C 528.683594 89.835938 528.351562 89.671875 528.011719 89.5 C 528.011719 88.839844 528.011719 88.179688 528.011719 87.5 C 527.683594 87.5 527.351562 87.5 527.015625 87.5 C 526.847656 87.171875 526.683594 86.839844 526.515625 86.5 C 525.503906 86.175781 525.503906 86.175781 524.515625 86 C 524.597656 85.691406 524.679688 85.382812 524.765625 85.0625 C 525.214844 83.160156 524.800781 81.417969 524.515625 79.5 Z M 524.515625 79.5 "/>
<path style=" stroke:none;fill-rule:nonzero;fill:rgb(86.666667%,16.862746%,14.509805%);fill-opacity:1;" d="M 231.785156 26.5 C 231.785156 26.828125 231.785156 27.160156 231.785156 27.5 C 230.796875 27.5 229.808594 27.5 228.789062 27.5 C 228.710938 27.949219 228.710938 27.949219 228.632812 28.40625 C 228.246094 29.640625 227.753906 30.160156 226.789062 31 C 226.789062 30.671875 226.789062 30.339844 226.789062 30 C 226.132812 29.835938 225.472656 29.671875 224.792969 29.5 C 224.792969 29.828125 224.792969 30.160156 224.792969 30.5 C 224.132812 30.171875 223.472656 29.839844 222.792969 29.5 C 224.238281 28.304688 225.492188 27.675781 227.289062 27.15625 C 227.925781 26.96875 227.925781 26.96875 228.570312 26.773438 C 229.789062 26.5 229.789062 26.5 231.785156 26.5 Z M 231.785156 26.5 "/>
<path style=" stroke:none;fill-rule:nonzero;fill:rgb(87.843138%,16.078432%,16.078432%);fill-opacity:1;" d="M 360.667969 88.5 C 361.328125 88.5 361.984375 88.5 362.664062 88.5 C 362.664062 88.996094 362.664062 89.488281 362.664062 90 C 363.375 89.628906 363.375 89.628906 364.101562 89.25 C 365.664062 88.5 365.664062 88.5 366.660156 88.5 C 366.660156 88.828125 366.660156 89.160156 366.660156 89.5 C 366.332031 89.5 366.003906 89.5 365.664062 89.5 C 365.664062 89.996094 365.664062 90.488281 365.664062 91 C 366.320312 90.835938 366.980469 90.671875 367.660156 90.5 C 367.824219 91.160156 367.992188 91.820312 368.160156 92.5 C 365.371094 92.289062 363.351562 91.175781 361.167969 89.5 C 361.003906 89.171875 360.835938 88.839844 360.667969 88.5 Z M 360.667969 88.5 "/>
<path style=" stroke:none;fill-rule:nonzero;fill:rgb(86.666667%,14.509805%,12.54902%);fill-opacity:1;" d="M 537.503906 82.5 C 538.328125 83.160156 539.152344 83.820312 540 84.5 C 539.835938 84.828125 539.671875 85.160156 539.503906 85.5 C 539.171875 85.5 538.84375 85.5 538.503906 85.5 C 538.503906 85.828125 538.503906 86.160156 538.503906 86.5 C 537.050781 87.128906 536.105469 87.5 534.507812 87.5 C 534.507812 87.003906 534.507812 86.511719 534.507812 86 C 535.332031 86 536.15625 86 537.003906 86 C 537.003906 85.503906 537.003906 85.011719 537.003906 84.5 C 536.675781 84.5 536.34375 84.5 536.003906 84.5 C 536.003906 84.171875 536.003906 83.839844 536.003906 83.5 C 536.5 83.171875 536.996094 82.839844 537.503906 82.5 Z M 537.503906 82.5 "/>
<path style=" stroke:none;fill-rule:nonzero;fill:rgb(86.666667%,16.470589%,16.078432%);fill-opacity:1;" d="M 415.617188 0.5 C 419 0.636719 421.285156 1.09375 424.109375 3 C 422.78125 3.664062 421.582031 3.847656 420.113281 4 C 419.78125 3.671875 419.453125 3.339844 419.113281 3 C 419.113281 2.835938 419.113281 2.671875 419.113281 2.5 C 417.628906 2.253906 417.628906 2.253906 416.117188 2 C 415.953125 1.503906 415.785156 1.011719 415.617188 0.5 Z M 415.617188 0.5 "/>
<path style=" stroke:none;fill-rule:nonzero;fill:rgb(83.92157%,17.254902%,15.686275%);fill-opacity:1;" d="M 115.894531 74.5 C 117.015625 74.976562 118.140625 75.457031 119.265625 75.9375 C 119.582031 76.070312 119.898438 76.207031 120.226562 76.34375 C 121.800781 77.019531 123.363281 77.707031 124.886719 78.5 C 124.546875 78.496094 124.210938 78.488281 123.863281 78.484375 C 123.417969 78.476562 122.972656 78.472656 122.511719 78.46875 C 122.070312 78.464844 121.632812 78.457031 121.175781 78.453125 C 120 78.496094 119.019531 78.664062 117.890625 79 C 117.890625 77.5 117.890625 77.5 118.390625 77 C 117.773438 76.660156 117.773438 76.660156 117.140625 76.3125 C 116.730469 76.042969 116.316406 75.777344 115.894531 75.5 C 115.894531 75.171875 115.894531 74.839844 115.894531 74.5 Z M 115.894531 74.5 "/>
<path style=" stroke:none;fill-rule:nonzero;fill:rgb(85.09804%,16.470589%,15.294118%);fill-opacity:1;" d="M 322.703125 69 C 323.328125 70.882812 323.085938 71.78125 322.386719 73.59375 C 321.4375 74.851562 320.632812 74.953125 319.113281 75.25 C 318.3125 75.351562 317.511719 75.441406 316.707031 75.5 C 317.046875 75.171875 317.386719 74.839844 317.738281 74.5 C 319.488281 72.753906 321.089844 70.875 322.703125 69 Z M 322.703125 69 "/>
<path style=" stroke:none;fill-rule:nonzero;fill:rgb(85.09804%,18.039216%,16.470589%);fill-opacity:1;" d="M 122.386719 89 C 122.664062 89.480469 122.664062 89.480469 122.949219 89.96875 C 124.175781 91.320312 125.109375 91.34375 126.882812 91.5 C 126.882812 91.828125 126.882812 92.160156 126.882812 92.5 C 123.761719 92.285156 120.867188 91.992188 117.890625 91 C 117.890625 90.835938 117.890625 90.671875 117.890625 90.5 C 119.046875 90.5 120.199219 90.5 121.386719 90.5 C 121.386719 90.171875 121.386719 89.839844 121.386719 89.5 C 121.71875 89.335938 122.046875 89.171875 122.386719 89 Z M 122.386719 89 "/>
<path style=" stroke:none;fill-rule:nonzero;fill:rgb(86.666667%,15.686275%,15.686275%);fill-opacity:1;" d="M 449.585938 54 C 450.585938 55.5 450.585938 55.5 451.082031 57 C 450.496094 58.710938 449.601562 59.550781 448.085938 60.5 C 447.757812 60.5 447.425781 60.5 447.085938 60.5 C 447.316406 59.792969 447.542969 59.082031 447.773438 58.375 C 447.964844 57.785156 447.964844 57.785156 448.160156 57.179688 C 448.5625 56.066406 449.035156 55.046875 449.585938 54 Z M 449.585938 54 "/>
<path style=" stroke:none;fill-rule:nonzero;fill:rgb(81.960785%,17.254902%,14.901961%);fill-opacity:1;" d="M 91.914062 69 C 92.410156 69.328125 92.902344 69.660156 93.414062 70 C 92.660156 72.488281 91.136719 74.121094 89.417969 76 C 89.253906 75.339844 89.085938 74.679688 88.917969 74 C 89.414062 74 89.90625 74 90.417969 74 C 90.25 73.503906 90.085938 73.011719 89.917969 72.5 C 90.417969 71.1875 90.640625 70.636719 91.914062 70 C 91.914062 69.671875 91.914062 69.339844 91.914062 69 Z M 91.914062 69 "/>
<path style=" stroke:none;fill-rule:nonzero;fill:rgb(83.529413%,18.039216%,18.039216%);fill-opacity:1;" d="M 13.488281 51 C 13.652344 51 13.816406 51 13.988281 51 C 14.082031 51.398438 14.179688 51.796875 14.28125 52.207031 C 15.246094 56.144531 15.246094 56.144531 16.484375 60 C 16.15625 60 15.824219 60 15.484375 60 C 14.097656 58.492188 13.445312 56.988281 12.988281 55 C 13.050781 53.628906 13.253906 52.355469 13.488281 51 Z M 13.488281 51 "/>
<path style=" stroke:none;fill-rule:nonzero;fill:rgb(85.882354%,17.647059%,16.862746%);fill-opacity:1;" d="M 206.308594 44 C 208.132812 44.625 208.699219 44.835938 209.804688 46.5 C 209.640625 46.664062 209.476562 46.828125 209.308594 47 C 209.269531 47.757812 209.265625 48.519531 209.277344 49.28125 C 209.28125 49.695312 209.285156 50.109375 209.289062 50.53125 C 209.296875 50.851562 209.300781 51.171875 209.308594 51.5 C 209.140625 51.5 208.976562 51.5 208.808594 51.5 C 208.753906 51.210938 208.699219 50.921875 208.640625 50.621094 C 208.152344 48.203125 207.535156 46.171875 206.308594 44 Z M 209.308594 44.5 C 209.800781 44.664062 210.296875 44.828125 210.804688 45 C 210.640625 45.328125 210.476562 45.660156 210.304688 46 C 209.976562 45.835938 209.648438 45.671875 209.308594 45.5 C 209.308594 45.171875 209.308594 44.839844 209.308594 44.5 Z M 209.308594 44.5 "/>
<path style=" stroke:none;fill-rule:nonzero;fill:rgb(86.274511%,16.078432%,14.901961%);fill-opacity:1;" d="M 181.832031 30.5 C 181.996094 30.828125 182.160156 31.160156 182.332031 31.5 C 182.167969 31.828125 182.003906 32.160156 181.832031 32.5 C 181.503906 32.5 181.171875 32.5 180.832031 32.5 C 180.832031 32.996094 180.832031 33.488281 180.832031 34 C 179.445312 35.335938 178.222656 35.738281 176.335938 36 C 178.027344 33.933594 179.667969 32.09375 181.832031 30.5 Z M 181.832031 30.5 "/>
<path style=" stroke:none;fill-rule:nonzero;fill:rgb(83.529413%,17.254902%,15.294118%);fill-opacity:1;" d="M 77.429688 7 C 78.316406 7.535156 79.199219 8.078125 80.082031 8.625 C 80.574219 8.925781 81.066406 9.226562 81.574219 9.539062 C 82.839844 10.4375 83.585938 11.210938 84.421875 12.5 C 84.09375 12.5 83.761719 12.5 83.421875 12.5 C 83.257812 12.828125 83.09375 13.160156 82.921875 13.5 C 82.882812 13.191406 82.839844 12.882812 82.796875 12.5625 C 82.519531 11.40625 82.519531 11.40625 81.394531 10.875 C 81.074219 10.75 80.753906 10.628906 80.425781 10.5 C 80.425781 10.171875 80.425781 9.839844 80.425781 9.5 C 79.601562 9.664062 78.777344 9.828125 77.929688 10 C 77.761719 9.011719 77.597656 8.019531 77.429688 7 Z M 77.429688 7 "/>
<path style=" stroke:none;fill-rule:nonzero;fill:rgb(85.09804%,16.470589%,15.686275%);fill-opacity:1;" d="M 67.9375 76 C 67.441406 76.164062 66.949219 76.328125 66.4375 76.5 C 66.4375 76.828125 66.4375 77.160156 66.4375 77.5 C 66.769531 77.664062 67.097656 77.828125 67.4375 78 C 67.109375 78.328125 66.777344 78.660156 66.4375 79 C 66.109375 78.671875 65.78125 78.339844 65.441406 78 C 63.988281 77.988281 63.988281 77.988281 62.378906 78.1875 C 61.832031 78.242188 61.285156 78.296875 60.722656 78.355469 C 60.300781 78.402344 59.878906 78.449219 59.445312 78.5 C 61.007812 77.679688 62.597656 77.023438 64.253906 76.40625 C 64.734375 76.222656 65.214844 76.042969 65.707031 75.851562 C 66.9375 75.5 66.9375 75.5 67.9375 76 Z M 67.9375 76 "/>
<path style=" stroke:none;fill-rule:nonzero;fill:rgb(83.137256%,18.039216%,15.686275%);fill-opacity:1;" d="M 39.964844 90 C 39.964844 90.328125 39.964844 90.660156 39.964844 91 C 41.28125 91.164062 42.601562 91.328125 43.960938 91.5 C 43.960938 91.828125 43.960938 92.160156 43.960938 92.5 C 40.859375 92.257812 37.964844 91.832031 34.96875 91 C 34.96875 90.835938 34.96875 90.671875 34.96875 90.5 C 36.683594 90.1875 38.210938 90 39.964844 90 Z M 39.964844 90 "/>
<path style=" stroke:none;fill-rule:nonzero;fill:rgb(90.196079%,15.686275%,13.333334%);fill-opacity:1;" d="M 535.507812 75 C 535.011719 75.246094 535.011719 75.246094 534.507812 75.5 C 534.507812 75.828125 534.507812 76.160156 534.507812 76.5 C 533.351562 76.664062 532.199219 76.828125 531.011719 77 C 530.84375 77.660156 530.679688 78.320312 530.511719 79 C 530.015625 78.671875 529.523438 78.339844 529.011719 78 C 530.988281 75.035156 531.96875 74.640625 535.507812 75 Z M 535.507812 75 "/>
<path style=" stroke:none;fill-rule:nonzero;fill:rgb(87.058824%,17.647059%,16.862746%);fill-opacity:1;" d="M 316.707031 28.5 C 318.585938 28.789062 319.96875 29.324219 321.609375 30.28125 C 322.003906 30.507812 322.398438 30.734375 322.804688 30.96875 C 323.101562 31.144531 323.398438 31.320312 323.703125 31.5 C 322.09375 32.304688 320.863281 31.535156 319.207031 31 C 318.367188 30.679688 317.535156 30.351562 316.707031 30 C 316.707031 29.503906 316.707031 29.011719 316.707031 28.5 Z M 316.707031 28.5 "/>
<path style=" stroke:none;fill-rule:nonzero;fill:rgb(81.568629%,18.82353%,18.431373%);fill-opacity:1;" d="M 540 82 C 540.167969 82.496094 540.332031 82.988281 540.5 83.5 C 540.832031 83.5 541.160156 83.5 541.5 83.5 C 541.019531 85.117188 540.652344 85.878906 539.316406 86.9375 C 538.003906 87.5 538.003906 87.5 536.847656 87.34375 C 536.570312 87.230469 536.292969 87.117188 536.003906 87 C 536.828125 86.835938 537.652344 86.671875 538.503906 86.5 C 538.503906 86.171875 538.503906 85.839844 538.503906 85.5 C 538.832031 85.5 539.164062 85.5 539.503906 85.5 C 539.667969 84.34375 539.832031 83.191406 540 82 Z M 540 82 "/>
<path style=" stroke:none;fill-rule:nonzero;fill:rgb(84.705883%,16.470589%,14.901961%);fill-opacity:1;" d="M 505.535156 69.5 C 506.027344 69.664062 506.523438 69.828125 507.03125 70 C 507.03125 70.660156 507.03125 71.320312 507.03125 72 C 507.363281 72 507.691406 72 508.03125 72 C 508.40625 73.828125 508.730469 75.660156 509.03125 77.5 C 508.15625 76.1875 507.433594 74.902344 506.71875 73.5 C 506.496094 73.066406 506.273438 72.632812 506.042969 72.1875 C 505.535156 71 505.535156 71 505.535156 69.5 Z M 505.535156 69.5 "/>
<path style=" stroke:none;fill-rule:nonzero;fill:rgb(85.882354%,16.470589%,16.470589%);fill-opacity:1;" d="M 269.75 47.5 C 269.914062 47.5 270.082031 47.5 270.25 47.5 C 270.738281 50.527344 270.738281 50.527344 270.75 51.5 C 270.421875 51.828125 270.089844 52.160156 269.75 52.5 C 269.429688 53.535156 269.429688 53.535156 269.25 54.5 C 268.921875 54.5 268.59375 54.5 268.253906 54.5 C 268.507812 52.015625 268.867188 49.855469 269.75 47.5 Z M 269.75 47.5 "/>
<path style=" stroke:none;fill-rule:nonzero;fill:rgb(87.843138%,16.470589%,16.470589%);fill-opacity:1;" d="M 293.230469 40.5 C 293.394531 40.828125 293.558594 41.160156 293.730469 41.5 C 294.058594 41.664062 294.386719 41.828125 294.726562 42 C 291.511719 43.484375 291.511719 43.484375 288.234375 45 C 288.234375 44.671875 288.234375 44.339844 288.234375 44 C 288.5625 44 288.894531 44 289.234375 44 C 289.234375 43.503906 289.234375 43.011719 289.234375 42.5 C 289.945312 42.285156 289.945312 42.285156 290.667969 42.0625 C 292.257812 41.617188 292.257812 41.617188 293.230469 40.5 Z M 293.230469 40.5 "/>
<path style=" stroke:none;fill-rule:nonzero;fill:rgb(85.09804%,17.647059%,15.686275%);fill-opacity:1;" d="M 204.3125 27.5 C 206.949219 27.757812 208.59375 28.628906 210.804688 30 C 208.972656 30.613281 208.53125 30.207031 206.808594 29.5 C 206.316406 29.746094 206.316406 29.746094 205.808594 30 C 205.0625 29.3125 205.0625 29.3125 204.3125 28.5 C 204.3125 28.171875 204.3125 27.839844 204.3125 27.5 Z M 204.3125 27.5 "/>
<path style=" stroke:none;fill-rule:nonzero;fill:rgb(85.490197%,16.078432%,15.686275%);fill-opacity:1;" d="M 484.054688 22.5 C 484.382812 22.5 484.710938 22.5 485.050781 22.5 C 485.050781 22.828125 485.050781 23.160156 485.050781 23.5 C 485.710938 23.5 486.371094 23.5 487.050781 23.5 C 487.214844 24.160156 487.378906 24.820312 487.550781 25.5 C 487.21875 25.5 486.890625 25.5 486.550781 25.5 C 486.714844 26.488281 486.878906 27.480469 487.050781 28.5 C 485.464844 26.6875 484.839844 24.746094 484.054688 22.5 Z M 484.054688 22.5 "/>
<path style=" stroke:none;fill-rule:nonzero;fill:rgb(87.843138%,16.862746%,16.078432%);fill-opacity:1;" d="M 59.945312 11.5 C 60.4375 11.828125 60.933594 12.160156 61.441406 12.5 C 61.277344 13.160156 61.113281 13.820312 60.945312 14.5 C 59.128906 14.335938 57.316406 14.171875 55.449219 14 C 55.449219 13.835938 55.449219 13.671875 55.449219 13.5 C 55.820312 13.449219 56.191406 13.398438 56.574219 13.34375 C 58.03125 12.980469 58.8125 12.464844 59.945312 11.5 Z M 59.945312 11.5 "/>
<path style=" stroke:none;fill-rule:nonzero;fill:rgb(81.960785%,17.254902%,16.078432%);fill-opacity:1;" d="M 37.464844 77.5 C 41.917969 78.242188 41.917969 78.242188 46.457031 79 C 46.457031 79.164062 46.457031 79.328125 46.457031 79.5 C 43.488281 79.746094 43.488281 79.746094 40.460938 80 C 40.296875 79.671875 40.132812 79.339844 39.964844 79 C 38.449219 78.671875 38.449219 78.671875 36.964844 78.5 C 37.128906 78.171875 37.296875 77.839844 37.464844 77.5 Z M 37.464844 77.5 "/>
<path style=" stroke:none;fill-rule:nonzero;fill:rgb(79.607844%,18.039216%,16.862746%);fill-opacity:1;" d="M 530.511719 75.5 C 530.839844 75.664062 531.171875 75.828125 531.507812 76 C 530.851562 76.660156 530.191406 77.320312 529.511719 78 C 530.007812 78.742188 530.007812 78.742188 530.511719 79.5 C 530.324219 80.84375 530.324219 80.84375 530.011719 82 C 529.679688 81.339844 529.351562 80.679688 529.011719 80 C 528.683594 80 528.351562 80 528.011719 80 C 528.253906 77.84375 528.886719 76.917969 530.511719 75.5 Z M 530.511719 75.5 "/>
<path style=" stroke:none;fill-rule:nonzero;fill:rgb(81.176472%,16.078432%,14.901961%);fill-opacity:1;" d="M 457.578125 36.5 C 458.121094 37.878906 458.097656 38.4375 457.597656 39.863281 C 457.363281 40.339844 457.132812 40.820312 456.890625 41.3125 C 456.660156 41.792969 456.429688 42.273438 456.191406 42.769531 C 455.820312 43.511719 455.453125 44.257812 455.082031 45 C 454.75 45 454.421875 45 454.082031 45 C 454.960938 42.039062 456.277344 39.292969 457.578125 36.5 Z M 457.578125 36.5 "/>
<path style=" stroke:none;fill-rule:nonzero;fill:rgb(86.666667%,16.862746%,17.254902%);fill-opacity:1;" d="M 324.199219 32 C 324.941406 32.476562 325.679688 32.957031 326.417969 33.4375 C 327.035156 33.835938 327.035156 33.835938 327.664062 34.246094 C 328.695312 35 328.695312 35 329.195312 36 C 325.992188 35.699219 325.992188 35.699219 324.730469 34.84375 C 324.199219 34 324.199219 34 324.199219 32 Z M 324.199219 32 "/>
<path style=" stroke:none;fill-rule:nonzero;fill:rgb(85.882354%,17.647059%,17.647059%);fill-opacity:1;" d="M 13.988281 13.5 C 14.152344 14.160156 14.316406 14.820312 14.488281 15.5 C 13.332031 16.488281 12.179688 17.480469 10.988281 18.5 C 10.988281 16.5 10.988281 16.5 11.644531 15.648438 C 11.921875 15.394531 12.203125 15.136719 12.488281 14.875 C 12.90625 14.484375 12.90625 14.484375 13.332031 14.085938 C 13.546875 13.890625 13.765625 13.699219 13.988281 13.5 Z M 13.988281 13.5 "/>
<path style=" stroke:none;fill-rule:nonzero;fill:rgb(83.92157%,16.470589%,15.686275%);fill-opacity:1;" d="M 422.609375 89.5 C 423.269531 89.5 423.929688 89.5 424.609375 89.5 C 424.773438 90.160156 424.9375 90.820312 425.109375 91.5 C 425.933594 91.664062 426.757812 91.828125 427.605469 92 C 426.375 92.441406 425.789062 92.566406 424.539062 92.109375 C 424.191406 91.917969 423.84375 91.726562 423.484375 91.53125 C 423.132812 91.339844 422.777344 91.152344 422.414062 90.953125 C 422.148438 90.804688 421.882812 90.65625 421.609375 90.5 C 421.941406 90.171875 422.269531 89.839844 422.609375 89.5 Z M 422.609375 89.5 "/>
<path style=" stroke:none;fill-rule:nonzero;fill:rgb(86.274511%,15.686275%,14.901961%);fill-opacity:1;" d="M 176.835938 88 C 177.824219 88.328125 178.816406 88.660156 179.835938 89 C 178.679688 90.25 178.679688 90.25 177.335938 91.5 C 176.84375 91.5 176.347656 91.5 175.835938 91.5 C 175.835938 91.003906 175.835938 90.511719 175.835938 90 C 176.167969 89.835938 176.496094 89.671875 176.835938 89.5 C 176.835938 89.003906 176.835938 88.511719 176.835938 88 Z M 176.835938 88 "/>
<path style=" stroke:none;fill-rule:nonzero;fill:rgb(85.09804%,17.647059%,17.254902%);fill-opacity:1;" d="M 408.125 8.5 C 408.617188 8.5 409.113281 8.5 409.621094 8.5 C 408.878906 10.398438 407.777344 11.339844 406.125 12.5 C 405.796875 12.5 405.464844 12.5 405.125 12.5 C 405.125 11.839844 405.125 11.179688 405.125 10.5 C 406.117188 10.335938 407.105469 10.171875 408.125 10 C 408.125 9.503906 408.125 9.011719 408.125 8.5 Z M 408.125 8.5 "/>
<path style=" stroke:none;fill-rule:nonzero;fill:rgb(86.666667%,17.647059%,15.686275%);fill-opacity:1;" d="M 443.089844 88.5 C 444.574219 88.664062 446.058594 88.828125 447.585938 89 C 446.027344 90.324219 444.546875 90.921875 442.589844 91.5 C 442.589844 91.171875 442.589844 90.839844 442.589844 90.5 C 442.921875 90.5 443.25 90.5 443.589844 90.5 C 443.425781 89.839844 443.261719 89.179688 443.089844 88.5 Z M 443.089844 88.5 "/>
<path style=" stroke:none;fill-rule:nonzero;fill:rgb(87.450981%,16.470589%,16.078432%);fill-opacity:1;" d="M 101.90625 77 C 102.566406 77.824219 103.226562 78.648438 103.902344 79.5 C 103.574219 80.160156 103.246094 80.820312 102.90625 81.5 C 102.050781 80.6875 101.21875 79.851562 100.40625 79 C 100.40625 78.671875 100.40625 78.339844 100.40625 78 C 100.902344 78 101.394531 78 101.90625 78 C 101.90625 77.671875 101.90625 77.339844 101.90625 77 Z M 101.90625 77 "/>
<path style=" stroke:none;fill-rule:nonzero;fill:rgb(83.529413%,16.078432%,14.509805%);fill-opacity:1;" d="M 2 31.5 C 2.65625 32.160156 3.316406 32.820312 3.996094 33.5 C 3.832031 33.828125 3.667969 34.160156 3.496094 34.5 C 2.464844 34.8125 2.464844 34.8125 1.5 35 C 1.5 35.988281 1.5 36.980469 1.5 38 C 1.167969 38 0.839844 38 0.5 38 C 0.65625 37.199219 0.8125 36.394531 0.96875 35.59375 C 1.054688 35.148438 1.140625 34.699219 1.230469 34.242188 C 1.5 33 1.5 33 2 31.5 Z M 2 31.5 "/>
<path style=" stroke:none;fill-rule:nonzero;fill:rgb(88.627452%,16.862746%,14.901961%);fill-opacity:1;" d="M 9.992188 18 C 10.15625 18.328125 10.320312 18.660156 10.492188 19 C 10.820312 19.164062 11.148438 19.328125 11.488281 19.5 C 11.324219 19.996094 11.160156 20.488281 10.988281 21 C 9.835938 21.164062 8.683594 21.328125 7.492188 21.5 C 9.429688 18.5625 9.429688 18.5625 9.992188 18 Z M 9.992188 18 "/>
<path style=" stroke:none;fill-rule:nonzero;fill:rgb(85.490197%,16.862746%,15.686275%);fill-opacity:1;" d="M 36.964844 1.5 C 36.964844 1.828125 36.964844 2.160156 36.964844 2.5 C 35.363281 3.8125 34.65625 4.015625 32.5625 3.84375 C 31.777344 3.671875 31.777344 3.671875 30.972656 3.5 C 32.699219 1.769531 34.578125 1.5 36.964844 1.5 Z M 36.964844 1.5 "/>
<path style=" stroke:none;fill-rule:nonzero;fill:rgb(86.274511%,16.078432%,14.901961%);fill-opacity:1;" d="M 109.398438 67 C 110.597656 68.441406 111.632812 69.78125 112.394531 71.5 C 111.40625 71.171875 110.417969 70.839844 109.398438 70.5 C 109.398438 69.34375 109.398438 68.191406 109.398438 67 Z M 108.398438 70.5 C 108.730469 70.5 109.058594 70.5 109.398438 70.5 C 109.398438 70.828125 109.398438 71.160156 109.398438 71.5 C 109.070312 71.5 108.738281 71.5 108.398438 71.5 C 108.398438 71.171875 108.398438 70.839844 108.398438 70.5 Z M 108.398438 70.5 "/>
<path style=" stroke:none;fill-rule:nonzero;fill:rgb(84.705883%,16.078432%,16.470589%);fill-opacity:1;" d="M 444.589844 65 C 445.117188 66.375 445.074219 67.066406 444.746094 68.53125 C 444.054688 70.078125 443.523438 70.640625 442.09375 71.5 C 442.320312 70.792969 442.546875 70.082031 442.777344 69.375 C 442.96875 68.785156 442.96875 68.785156 443.164062 68.179688 C 443.566406 67.066406 444.039062 66.046875 444.589844 65 Z M 444.589844 65 "/>
<path style=" stroke:none;fill-rule:nonzero;fill:rgb(86.666667%,16.078432%,16.470589%);fill-opacity:1;" d="M 466.070312 48.5 C 466.566406 48.664062 467.058594 48.828125 467.570312 49 C 466.914062 51.117188 466.097656 53.035156 465.070312 55 C 464.742188 54.503906 464.410156 54.011719 464.070312 53.5 C 464.402344 53.5 464.730469 53.5 465.070312 53.5 C 465.050781 53.109375 465.03125 52.714844 465.007812 52.3125 C 465.070312 51 465.070312 51 466.070312 50 C 466.070312 49.503906 466.070312 49.011719 466.070312 48.5 Z M 466.070312 48.5 "/>
<path style=" stroke:none;fill-rule:nonzero;fill:rgb(87.450981%,16.470589%,17.647059%);fill-opacity:1;" d="M 92.914062 22 C 94.273438 23.175781 94.820312 24.3125 95.410156 26 C 94.753906 26 94.09375 26 93.414062 26 C 92.699219 24.824219 92.371094 24.261719 92.601562 22.875 C 92.707031 22.585938 92.808594 22.296875 92.914062 22 Z M 92.914062 22 "/>
<path style=" stroke:none;fill-rule:nonzero;fill:rgb(80.784315%,18.039216%,17.647059%);fill-opacity:1;" d="M 526.515625 83.5 C 527.570312 84.558594 527.996094 85.394531 528.605469 86.75 C 528.789062 87.148438 528.96875 87.542969 529.160156 87.953125 C 529.273438 88.296875 529.390625 88.644531 529.511719 89 C 529.347656 89.328125 529.183594 89.660156 529.011719 90 C 528.683594 89.835938 528.351562 89.671875 528.011719 89.5 C 528.011719 88.839844 528.011719 88.179688 528.011719 87.5 C 527.683594 87.5 527.351562 87.5 527.015625 87.5 C 526.335938 86.144531 526.480469 84.996094 526.515625 83.5 Z M 526.515625 83.5 "/>
<path style=" stroke:none;fill-rule:nonzero;fill:rgb(94.509804%,13.333334%,13.333334%);fill-opacity:1;" d="M 541 79 C 541.332031 79 541.660156 79 542 79 C 542 80.648438 542 82.300781 542 84 C 541.503906 83.835938 541.011719 83.671875 540.5 83.5 C 539.867188 82.136719 539.980469 81.5625 540.46875 80.125 C 540.644531 79.753906 540.820312 79.382812 541 79 Z M 541 79 "/>
<path style=" stroke:none;fill-rule:nonzero;fill:rgb(83.529413%,17.647059%,17.647059%);fill-opacity:1;" d="M 509.03125 45.5 C 510.367188 47.28125 510.914062 48.421875 511.527344 50.5 C 510.867188 50.5 510.210938 50.5 509.53125 50.5 C 509.363281 48.851562 509.199219 47.199219 509.03125 45.5 Z M 509.03125 45.5 "/>
<path style=" stroke:none;fill-rule:nonzero;fill:rgb(85.490197%,16.078432%,16.862746%);fill-opacity:1;" d="M 173.839844 39 C 174.003906 39.496094 174.167969 39.988281 174.339844 40.5 C 174.175781 40.664062 174.007812 40.828125 173.839844 41 C 173.878906 41.472656 173.921875 41.949219 173.964844 42.4375 C 173.921875 42.953125 173.882812 43.46875 173.839844 44 C 172.589844 44.9375 172.589844 44.9375 171.34375 45.5 C 171.566406 44.695312 171.796875 43.894531 172.027344 43.09375 C 172.15625 42.648438 172.285156 42.199219 172.414062 41.742188 C 172.839844 40.5 172.839844 40.5 173.839844 39 Z M 173.839844 39 "/>
<path style=" stroke:none;fill-rule:nonzero;fill:rgb(83.529413%,18.431373%,18.431373%);fill-opacity:1;" d="M 496.042969 17 C 497.304688 18.5625 498.253906 20.148438 499.039062 22 C 498.875 22.496094 498.710938 22.988281 498.539062 23.5 C 498.375 22.839844 498.210938 22.179688 498.039062 21.5 C 497.710938 21.5 497.382812 21.5 497.042969 21.5 C 497.042969 20.839844 497.042969 20.179688 497.042969 19.5 C 496.710938 19.5 496.382812 19.5 496.042969 19.5 C 495.761719 18.53125 495.761719 18.53125 495.542969 17.5 C 495.707031 17.335938 495.871094 17.171875 496.042969 17 Z M 496.042969 17 "/>
<path style=" stroke:none;fill-rule:nonzero;fill:rgb(83.529413%,16.470589%,17.647059%);fill-opacity:1;" d="M 317.707031 8 C 318.035156 8 318.367188 8 318.707031 8 C 318.707031 8.328125 318.707031 8.660156 318.707031 9 C 319.199219 9 319.695312 9 320.203125 9 C 320.371094 9.328125 320.535156 9.660156 320.703125 10 C 321.199219 10.164062 321.691406 10.328125 322.203125 10.5 C 322.039062 11.160156 321.875 11.820312 321.703125 12.5 C 321.128906 12.035156 320.554688 11.566406 319.984375 11.09375 C 319.507812 10.703125 319.507812 10.703125 319.019531 10.304688 C 318.207031 9.5 318.207031 9.5 317.707031 8 Z M 317.707031 8 "/>
<path style=" stroke:none;fill-rule:nonzero;fill:rgb(82.745099%,16.470589%,14.901961%);fill-opacity:1;" d="M 68.9375 89.5 C 67.511719 90.453125 66.730469 90.730469 65.097656 91.0625 C 64.691406 91.144531 64.289062 91.230469 63.871094 91.316406 C 63.566406 91.378906 63.257812 91.4375 62.941406 91.5 C 62.941406 91.171875 62.941406 90.839844 62.941406 90.5 C 63.4375 90.5 63.929688 90.5 64.441406 90.5 C 64.441406 90.171875 64.441406 89.839844 64.441406 89.5 C 66.179688 88.921875 67.167969 89.144531 68.9375 89.5 Z M 68.9375 89.5 "/>
<path style=" stroke:none;fill-rule:nonzero;fill:rgb(86.666667%,14.901961%,14.901961%);fill-opacity:1;" d="M 441.59375 71.5 C 442.375 72.40625 442.375 72.40625 443.089844 73.5 C 442.925781 73.996094 442.761719 74.488281 442.589844 75 C 441.3125 75.59375 441.3125 75.59375 440.09375 76 C 440.589844 74.515625 441.082031 73.03125 441.59375 71.5 Z M 441.59375 71.5 "/>
<path style=" stroke:none;fill-rule:nonzero;fill:rgb(85.882354%,17.254902%,13.725491%);fill-opacity:1;" d="M 484.554688 18 C 484.71875 18.824219 484.882812 19.648438 485.050781 20.5 C 484.722656 20.5 484.394531 20.5 484.054688 20.5 C 483.886719 20.996094 483.722656 21.488281 483.554688 22 C 483.058594 20.84375 482.566406 19.691406 482.054688 18.5 C 483.054688 18 483.054688 18 484.554688 18 Z M 484.554688 18 "/>
<path style=" stroke:none;fill-rule:nonzero;fill:rgb(83.529413%,16.862746%,16.470589%);fill-opacity:1;" d="M 200.816406 40.5 C 201.804688 40.5 202.792969 40.5 203.8125 40.5 C 204.140625 41.160156 204.472656 41.820312 204.8125 42.5 C 205.304688 42.5 205.800781 42.5 206.308594 42.5 C 206.144531 42.996094 205.980469 43.488281 205.808594 44 C 204.976562 43.511719 204.144531 43.023438 203.3125 42.53125 C 202.847656 42.257812 202.386719 41.984375 201.90625 41.703125 C 201.546875 41.472656 201.1875 41.238281 200.816406 41 C 200.816406 40.835938 200.816406 40.671875 200.816406 40.5 Z M 200.816406 40.5 "/>
<path style=" stroke:none;fill-rule:nonzero;fill:rgb(87.450981%,17.647059%,14.509805%);fill-opacity:1;" d="M 424.109375 5 C 425.546875 5.09375 425.546875 5.09375 427.105469 5.5 C 427.792969 6.78125 427.792969 6.78125 428.105469 8 C 427.445312 7.671875 426.785156 7.339844 426.105469 7 C 425.941406 7.164062 425.777344 7.328125 425.605469 7.5 C 425.277344 7.335938 424.949219 7.171875 424.609375 7 C 424.296875 5.96875 424.296875 5.96875 424.109375 5 Z M 424.109375 5 "/>
<path style=" stroke:none;fill-rule:nonzero;fill:rgb(87.843138%,15.294118%,15.686275%);fill-opacity:1;" d="M 510.527344 77 C 510.859375 77.328125 511.1875 77.660156 511.527344 78 C 511.339844 79.8125 511.339844 79.8125 511.027344 81.5 C 509.953125 80.1875 509.328125 79.179688 509.03125 77.5 C 509.523438 77.335938 510.019531 77.171875 510.527344 77 Z M 510.527344 77 "/>
<path style=" stroke:none;fill-rule:nonzero;fill:rgb(81.568629%,16.078432%,14.509805%);fill-opacity:1;" d="M 325.199219 55 C 326.699219 56.5 326.699219 56.5 326.769531 58.050781 C 326.714844 58.632812 326.660156 59.214844 326.605469 59.8125 C 326.558594 60.394531 326.507812 60.980469 326.457031 61.582031 C 326.371094 62.050781 326.289062 62.519531 326.199219 63 C 325.871094 63.164062 325.539062 63.328125 325.199219 63.5 C 325.199219 60.695312 325.199219 57.890625 325.199219 55 Z M 325.199219 55 "/>
<path style=" stroke:none;fill-rule:nonzero;fill:rgb(87.058824%,16.862746%,16.078432%);fill-opacity:1;" d="M 336.191406 47 C 336.519531 47 336.847656 47 337.1875 47 C 337.816406 48.453125 338.1875 49.398438 338.1875 51 C 337.527344 50.835938 336.871094 50.671875 336.191406 50.5 C 336.191406 49.34375 336.191406 48.191406 336.191406 47 Z M 336.191406 47 "/>
<path style=" stroke:none;fill-rule:nonzero;fill:rgb(82.745099%,16.862746%,18.82353%);fill-opacity:1;" d="M 159.351562 38.5 C 161.789062 40.8125 161.789062 40.8125 162.351562 42.5 C 161.527344 42.5 160.703125 42.5 159.851562 42.5 C 159.863281 42.117188 159.875 41.738281 159.882812 41.34375 C 159.917969 39.949219 159.917969 39.949219 159.351562 38.5 Z M 159.351562 38.5 "/>
<path style=" stroke:none;fill-rule:nonzero;fill:rgb(81.568629%,17.647059%,16.862746%);fill-opacity:1;" d="M 155.355469 34.5 C 155.929688 34.976562 156.503906 35.457031 157.074219 35.9375 C 157.394531 36.203125 157.710938 36.472656 158.039062 36.746094 C 158.851562 37.5 158.851562 37.5 159.351562 38.5 C 159.023438 38.5 158.695312 38.5 158.355469 38.5 C 158.1875 38.828125 158.023438 39.160156 157.855469 39.5 C 157.71875 39.097656 157.585938 38.695312 157.449219 38.28125 C 157.253906 37.859375 157.058594 37.4375 156.855469 37 C 156.359375 36.835938 155.867188 36.671875 155.355469 36.5 C 155.355469 35.839844 155.355469 35.179688 155.355469 34.5 Z M 155.355469 34.5 "/>
<path style=" stroke:none;fill-rule:nonzero;fill:rgb(82.352942%,17.254902%,16.470589%);fill-opacity:1;" d="M 411.121094 3 C 411.449219 3 411.78125 3 412.121094 3 C 411.878906 5.109375 411.539062 6.398438 410.121094 8 C 409.957031 6.84375 409.792969 5.691406 409.621094 4.5 C 410.117188 4.664062 410.609375 4.828125 411.121094 5 C 411.121094 4.339844 411.121094 3.679688 411.121094 3 Z M 411.121094 3 "/>
<path style=" stroke:none;fill-rule:nonzero;fill:rgb(77.64706%,19.607843%,19.215687%);fill-opacity:1;" d="M 533.507812 85.5 C 534.660156 85.5 535.816406 85.5 537.003906 85.5 C 537.003906 85.664062 537.003906 85.828125 537.003906 86 C 536.179688 86 535.355469 86 534.507812 86 C 534.507812 86.496094 534.507812 86.988281 534.507812 87.5 C 533.351562 87.335938 532.199219 87.171875 531.011719 87 C 531.011719 86.835938 531.011719 86.671875 531.011719 86.5 C 531.835938 86.5 532.660156 86.5 533.507812 86.5 C 533.507812 86.171875 533.507812 85.839844 533.507812 85.5 Z M 533.507812 85.5 "/>
<path style=" stroke:none;fill-rule:nonzero;fill:rgb(82.352942%,16.862746%,14.117648%);fill-opacity:1;" d="M 291.730469 76.5 C 293.875 76.996094 296.015625 77.488281 298.226562 78 C 298.226562 78.164062 298.226562 78.328125 298.226562 78.5 C 294.851562 78.5625 294.851562 78.5625 293.730469 78 C 293.5625 78.328125 293.398438 78.660156 293.230469 79 C 292.734375 78.175781 292.242188 77.351562 291.730469 76.5 Z M 291.730469 76.5 "/>
<path style=" stroke:none;fill-rule:nonzero;fill:rgb(84.313726%,16.862746%,18.82353%);fill-opacity:1;" d="M 287.234375 45 C 287.566406 45.164062 287.894531 45.328125 288.234375 45.5 C 287.082031 46.820312 285.925781 48.140625 284.738281 49.5 C 284.574219 48.839844 284.40625 48.179688 284.238281 47.5 C 284.566406 47.335938 284.898438 47.171875 285.238281 47 C 285.402344 46.503906 285.566406 46.011719 285.738281 45.5 C 286.230469 45.335938 286.726562 45.171875 287.234375 45 Z M 287.234375 45 "/>
<path style=" stroke:none;fill-rule:nonzero;fill:rgb(85.09804%,16.470589%,17.254902%);fill-opacity:1;" d="M 283.238281 31.5 C 283.570312 31.664062 283.898438 31.828125 284.238281 32 C 283.550781 33 283.550781 33 282.738281 34 C 282.410156 34 282.078125 34 281.738281 34 C 281.574219 34.328125 281.410156 34.660156 281.242188 35 C 280.746094 34.671875 280.25 34.339844 279.742188 34 C 280.894531 33.175781 282.050781 32.351562 283.238281 31.5 Z M 283.238281 31.5 "/>
<path style=" stroke:none;fill-rule:nonzero;fill:rgb(80.000001%,19.215687%,18.431373%);fill-opacity:1;" d="M 529.511719 90 C 529.839844 90.660156 530.171875 91.320312 530.511719 92 C 528.203125 92 525.894531 92 523.515625 92 C 523.515625 91.835938 523.515625 91.671875 523.515625 91.5 C 526.484375 91.253906 526.484375 91.253906 529.511719 91 C 529.511719 90.671875 529.511719 90.339844 529.511719 90 Z M 529.511719 90 "/>
<path style=" stroke:none;fill-rule:nonzero;fill:rgb(82.352942%,17.647059%,16.862746%);fill-opacity:1;" d="M 218.296875 90 C 218.628906 90.496094 218.957031 90.988281 219.296875 91.5 C 219.792969 91.828125 220.285156 92.160156 220.796875 92.5 C 217.539062 92.191406 217.539062 92.191406 216.332031 91.21875 C 216.15625 90.980469 215.980469 90.746094 215.800781 90.5 C 217.300781 90 217.300781 90 218.296875 90 Z M 218.296875 90 "/>
<path style=" stroke:none;fill-rule:nonzero;fill:rgb(84.705883%,17.647059%,16.862746%);fill-opacity:1;" d="M 321.203125 88.5 C 319.734375 89.75 318.617188 90.234375 316.707031 90.5 C 316.707031 90.003906 316.707031 89.511719 316.707031 89 C 318.304688 88.46875 319.535156 88.460938 321.203125 88.5 Z M 321.203125 88.5 "/>
<path style=" stroke:none;fill-rule:nonzero;fill:rgb(83.529413%,15.294118%,14.901961%);fill-opacity:1;" d="M 164.347656 68 C 164.84375 68 165.335938 68 165.847656 68 C 166.449219 69.8125 166.117188 70.320312 165.347656 72 C 164.566406 71.125 164.566406 71.125 163.847656 70 C 164.003906 68.875 164.003906 68.875 164.347656 68 Z M 164.347656 68 "/>
<path style=" stroke:none;fill-rule:nonzero;fill:rgb(82.745099%,18.431373%,14.117648%);fill-opacity:1;" d="M 338.1875 66.5 C 338.703125 67.894531 338.710938 68.433594 338.21875 69.875 C 338.042969 70.246094 337.867188 70.617188 337.6875 71 C 337.523438 71 337.359375 71 337.1875 71 C 337.023438 69.84375 336.859375 68.691406 336.6875 67.5 C 337.183594 67.171875 337.679688 66.839844 338.1875 66.5 Z M 338.1875 66.5 "/>
<path style=" stroke:none;fill-rule:nonzero;fill:rgb(86.666667%,15.686275%,15.686275%);fill-opacity:1;" d="M 452.582031 47.5 C 452.746094 47.5 452.914062 47.5 453.082031 47.5 C 453.082031 48.324219 453.082031 49.148438 453.082031 50 C 453.410156 50.164062 453.742188 50.328125 454.082031 50.5 C 453.09375 50.828125 452.101562 51.160156 451.082031 51.5 C 452.019531 48.625 452.019531 48.625 452.582031 47.5 Z M 452.582031 47.5 "/>
<path style=" stroke:none;fill-rule:nonzero;fill:rgb(84.313726%,18.431373%,18.039216%);fill-opacity:1;" d="M 506.03125 39 C 507.355469 40.5625 507.953125 42.042969 508.53125 44 C 507.03125 43.5 507.03125 43.5 506.4375 42.34375 C 506.03125 41 506.03125 41 506.03125 39 Z M 506.03125 39 "/>
<path style=" stroke:none;fill-rule:nonzero;fill:rgb(87.058824%,14.901961%,14.901961%);fill-opacity:1;" d="M 112.394531 71.5 C 113.550781 72.324219 114.703125 73.148438 115.894531 74 C 115.398438 74.742188 115.398438 74.742188 114.894531 75.5 C 113.503906 74.804688 113.121094 73.847656 112.394531 72.5 C 112.394531 72.171875 112.394531 71.839844 112.394531 71.5 Z M 112.394531 71.5 "/>
<path style=" stroke:none;fill-rule:nonzero;fill:rgb(86.274511%,14.117648%,14.117648%);fill-opacity:1;" d="M 77.429688 68.5 C 77.921875 68.664062 78.417969 68.828125 78.925781 69 C 78.925781 69.328125 78.925781 69.660156 78.925781 70 C 76.703125 70.742188 76.703125 70.742188 74.429688 71.5 C 75.429688 70.5 76.429688 69.5 77.429688 68.5 Z M 77.429688 68.5 "/>
<path style=" stroke:none;fill-rule:nonzero;fill:rgb(87.058824%,14.117648%,15.294118%);fill-opacity:1;" d="M 3.996094 65 C 4.65625 65 5.316406 65 5.996094 65 C 5.996094 66.15625 5.996094 67.308594 5.996094 68.5 C 3.996094 66.125 3.996094 66.125 3.996094 65 Z M 3.996094 65 "/>
<path style=" stroke:none;fill-rule:nonzero;fill:rgb(80.000001%,16.470589%,16.862746%);fill-opacity:1;" d="M 111.398438 48 C 111.726562 48.164062 112.054688 48.328125 112.394531 48.5 C 111.570312 49.820312 110.746094 51.140625 109.898438 52.5 C 109.351562 50.855469 109.5 50.144531 109.898438 48.5 C 110.394531 48.335938 110.886719 48.171875 111.398438 48 Z M 111.398438 48 "/>
<path style=" stroke:none;fill-rule:nonzero;fill:rgb(85.490197%,17.647059%,16.862746%);fill-opacity:1;" d="M 241.277344 41.5 C 243.550781 41.316406 243.550781 41.316406 244.679688 42.25 C 244.875 42.496094 245.070312 42.746094 245.273438 43 C 245.109375 43.496094 244.945312 43.988281 244.773438 44.5 C 243.554688 43.539062 242.375 42.597656 241.277344 41.5 Z M 241.277344 41.5 "/>
<path style=" stroke:none;fill-rule:nonzero;fill:rgb(86.666667%,17.254902%,16.862746%);fill-opacity:1;" d="M 114.394531 29.5 C 114.722656 30.160156 115.054688 30.820312 115.394531 31.5 C 114.074219 31.5 112.757812 31.5 111.398438 31.5 C 112.421875 30.375 112.898438 30 114.394531 29.5 Z M 114.394531 29.5 "/>
<path style=" stroke:none;fill-rule:nonzero;fill:rgb(80.392158%,16.862746%,13.725491%);fill-opacity:1;" d="M 467.570312 14.5 C 467.734375 14.5 467.898438 14.5 468.066406 14.5 C 468.351562 16.90625 467.480469 18.101562 466.070312 20 C 465.90625 19.671875 465.742188 19.339844 465.570312 19 C 465.957031 17.917969 465.957031 17.917969 466.539062 16.6875 C 466.726562 16.277344 466.917969 15.871094 467.113281 15.449219 C 467.265625 15.136719 467.414062 14.824219 467.570312 14.5 Z M 467.570312 14.5 "/>
<path style=" stroke:none;fill-rule:nonzero;fill:rgb(79.607844%,16.078432%,14.901961%);fill-opacity:1;" d="M 17.984375 10 C 18.3125 10.164062 18.644531 10.328125 18.984375 10.5 C 18.160156 11.488281 17.335938 12.480469 16.484375 13.5 C 15.824219 13.335938 15.164062 13.171875 14.488281 13 C 15.640625 12.011719 16.792969 11.019531 17.984375 10 Z M 17.984375 10 "/>
<path style=" stroke:none;fill-rule:nonzero;fill:rgb(85.882354%,16.470589%,17.254902%);fill-opacity:1;" d="M 489.546875 4.5 C 490.402344 5.3125 491.234375 6.148438 492.046875 7 C 492.046875 7.328125 492.046875 7.660156 492.046875 8 C 491.550781 8.164062 491.058594 8.328125 490.546875 8.5 C 490.546875 7.839844 490.546875 7.179688 490.546875 6.5 C 490.21875 6.335938 489.886719 6.171875 489.546875 6 C 489.546875 5.503906 489.546875 5.011719 489.546875 4.5 Z M 489.546875 4.5 "/>
<path style=" stroke:none;fill-rule:nonzero;fill:rgb(90.980393%,15.686275%,14.509805%);fill-opacity:1;" d="M 538.503906 85.5 C 538.503906 85.828125 538.503906 86.160156 538.503906 86.5 C 537.050781 87.128906 536.105469 87.5 534.507812 87.5 C 534.507812 87.003906 534.507812 86.511719 534.507812 86 C 537.378906 85.5 537.378906 85.5 538.503906 85.5 Z M 538.503906 85.5 "/>
<path style=" stroke:none;fill-rule:nonzero;fill:rgb(93.725491%,13.333334%,13.333334%);fill-opacity:1;" d="M 532.007812 83.5 C 532.007812 84.324219 532.007812 85.148438 532.007812 86 C 532.503906 86.164062 533 86.328125 533.507812 86.5 C 532.683594 86.5 531.859375 86.5 531.011719 86.5 C 530.84375 85.675781 530.679688 84.851562 530.511719 84 C 531.507812 83.5 531.507812 83.5 532.007812 83.5 Z M 532.007812 83.5 "/>
<path style=" stroke:none;fill-rule:nonzero;fill:rgb(83.92157%,18.82353%,18.82353%);fill-opacity:1;" d="M 23.476562 85.5 C 24.632812 85.664062 25.785156 85.828125 26.976562 86 C 26.976562 86.496094 26.976562 86.988281 26.976562 87.5 C 25.964844 87.199219 24.964844 86.863281 23.976562 86.5 C 23.8125 86.171875 23.648438 85.839844 23.476562 85.5 Z M 23.476562 85.5 "/>
<path style=" stroke:none;fill-rule:nonzero;fill:rgb(77.64706%,20.392157%,19.607843%);fill-opacity:1;" d="M 533.007812 74.5 C 534.328125 74.5 535.644531 74.5 537.003906 74.5 C 536.839844 75.160156 536.675781 75.820312 536.503906 76.5 C 535.84375 76.5 535.1875 76.5 534.507812 76.5 C 534.507812 76.171875 534.507812 75.839844 534.507812 75.5 C 534.011719 75.171875 533.519531 74.839844 533.007812 74.5 Z M 533.007812 74.5 "/>
<path style=" stroke:none;fill-rule:nonzero;fill:rgb(81.176472%,17.254902%,15.294118%);fill-opacity:1;" d="M 513.027344 54 C 514.277344 55.46875 514.761719 56.589844 515.023438 58.5 C 514.695312 58.335938 514.367188 58.171875 514.027344 58 C 514.027344 57.503906 514.027344 57.011719 514.027344 56.5 C 513.367188 56.335938 512.707031 56.171875 512.027344 56 C 512.355469 55.835938 512.6875 55.671875 513.027344 55.5 C 513.027344 55.003906 513.027344 54.511719 513.027344 54 Z M 513.027344 54 "/>
<path style=" stroke:none;fill-rule:nonzero;fill:rgb(86.274511%,16.078432%,16.862746%);fill-opacity:1;" d="M 218.796875 31.5 C 219.128906 31.664062 219.457031 31.828125 219.796875 32 C 219.296875 33.5 219.296875 33.5 217.800781 34.5 C 217.304688 34.335938 216.808594 34.171875 216.300781 34 C 217.125 33.175781 217.949219 32.351562 218.796875 31.5 Z M 218.796875 31.5 "/>
<path style=" stroke:none;fill-rule:nonzero;fill:rgb(84.705883%,16.862746%,16.078432%);fill-opacity:1;" d="M 298.722656 27 C 297.488281 27.742188 297.488281 27.742188 296.226562 28.5 C 296.0625 28.171875 295.898438 27.839844 295.726562 27.5 C 295.234375 27.335938 294.738281 27.171875 294.230469 27 C 295.917969 26.578125 297.0625 26.445312 298.722656 27 Z M 298.722656 27 "/>
<path style=" stroke:none;fill-rule:nonzero;fill:rgb(86.274511%,16.078432%,15.686275%);fill-opacity:1;" d="M 238.78125 26.5 C 240.097656 26.664062 241.417969 26.828125 242.777344 27 C 241.777344 28 241.777344 28 240.214844 28.0625 C 239.503906 28.03125 239.503906 28.03125 238.78125 28 C 238.78125 27.503906 238.78125 27.011719 238.78125 26.5 Z M 238.78125 26.5 "/>
<path style=" stroke:none;fill-rule:nonzero;fill:rgb(83.92157%,18.431373%,16.078432%);fill-opacity:1;" d="M 5.996094 23.5 C 6.324219 23.996094 6.652344 24.488281 6.992188 25 C 6.664062 25.660156 6.335938 26.320312 5.996094 27 C 5.5 27 5.003906 27 4.496094 27 C 5.433594 24.0625 5.433594 24.0625 5.996094 23.5 Z M 5.996094 23.5 "/>
</g>
</svg>
