<svg xmlns="http://www.w3.org/2000/svg" width="228" height="222" xmlns:v="https://vecta.io/nano"><path d="M0 0h228v222H0V0z" fill="#922436"/><path d="M0 0h228v222H0V0zm123 1v2l-6-1 1 6-8-1 1 2 2 4h-3v2l2.8 1.3c2.7 1.5 4 2.6 6.2 4.7 2 .7 2 .7 4 1v2h-21v-2h10c-1.8-3.6-3.2-5.4-6-8l2-4c-6-2.6-10.5-3.4-17-3V3c-7.3 3.3-7.3 3.3-13 8.6-3 3.4-5.8 4-10 5.4l-1-5c-2.4-.2-2.4-.2-5 0l-2 2c.3 3.6.3 3.6 1 7l-7 4v-6l-3-1-2.2 3c-1.7 2-2.5 3-5 4H42v6l-7-1-.6 1.8L30 44h-7a28 28 0 0 0 5.3 11.7L30 58c-.7 3.3-.7 3.3-2 6l-1.4-1.3C23 59 23 59 18 58c-2 .8-2 .8-3 2v6l-5-1v14H8v17H3l-2 4 3 1 2 6c2.2 3.5 3 4.8 7.3 5.8l2.8.2v7c-3-1-3-1-4.4-2.6-1.6-1.7-1.6-1.7-4.2-1.2-2.6.7-2.6.7-4.4 2.8.3 3 .3 3 1 6 4.6 1 4.6 1 9 0 4 3.8 4 3.8 5 6l-2-1a144 144 0 0 0-6 0l3 8-2.3-1.5C8 134.8 8 134.8 5 135c.4 4.4.6 7.3 2.7 11.3 1.3 2.8 1.3 2.8.5 5L7 153l2.6 1.4c3.8 2.5 6.2 5.8 8.8 9.4a14 14 0 0 0 3.3 3.7L23 169l-.2 3.3c.2 4.7 1.7 6 5 9L29 183l-1 4 9 4 1-4.3.6-2.4c.5-2.5.5-2.5-1.8-5.3l-1 1c-6 .5-6 .5-9-1a13 13 0 0 1-1.1-10c2-2.8 4.4-4.8 7-7l4.3-3.7 2-1.7c1.8-1.5 1.8-1.5 3.3-3.3 1.5-1.3 1.5-1.3 4.7-1.5l2.8.2v5h-3l-2-3v4c1.7 1.7 4 1.2 6.2 1.3 5.2.4 8 1.2 11.8 4.7 1 2.3 1 2.3 1 4l-5 1-1 4 3.6 1c4.6 1.5 8.6 3.6 12.8 6l1.8 1a33 33 0 0 1 7.8 6c2 .7 2 .7 4 1l-1 3 1 2h-2l-2-3-1.6 2-2 2.5-2 2.5c-2.2 2-3.2 2.5-6 3l-4 4c-1 1-1 1-3.6 1H62v-3l4 1 3-5.2 1.6-3 2.6-5.7c1-2.2 1-2.2 3-3.2l-4-2-3 7-3-1.5c-2.8-1.6-2.8-1.6-5-1.5l5-8-3-1-5 8-1.4 2.3-1.4 2.2-1.3 2-2 3.7c-5-.5-8-2-12-5 1.5 4.3 4.2 5.4 8 7.4l10.8 6c17 10.7 35 14.7 54.8 14.7h3.6a86 86 0 0 0 32.2-5.5l2.5-1c9-3.5 17-8 25-13.5 2-1.2 3.8-2 6-3 3.3-1.4 4.7-2 6-5.4-.2-3.7-.2-3.7-1-7h-1l-.2 3.8c-.5 4-.5 4-2.4 6l-5.6 2.5c-4 1.6-7.3 3.8-10.8 6-13 8-27.6 14-43 13.7l2-4h-2v-4l6-1 2 6 4-1-1-1.4-9-16.6-3 3-1-2h-6l-.4 3a52 52 0 0 1-2.6 9.9l-4-13-4 1 3 9.3.8 2.7.8 2.6.7 2.4 1.7 5-8.4-1-2.4-.3c-6-.7-6-.7-8.2-1.8-1.7-3.5-.5-7.2 0-11a24 24 0 0 1 6 9h3l-.8-1.8-2.2-7.2c1.4-2 1.4-2 3-4l-1-7 1-3h18l-3-2 2.6-1.8c8.4-5.8 16-12 23.4-19.2l2.8-2.7A129 129 0 0 0 184 98l6 6.2c1.8 2 1.8 2 4 2.8l-2.4.6c-3 1.2-3 1.2-3.6 4.3-.2 3-.2 3 1 5 2.3 1.3 3.5 1.2 6 1.2h4c2.8 2.8 2.6 5.2 3 9h-2l-1-4c-3.2 1.4-4 2-6 5l-1.8-2.5-2.2-2.5h-3l-1 8h-5v19h4v-9l1 1 2-1v-4l2 2.4c2 2.6 2 2.6 4 4.6l2-4h2l2-3c0 1.8-1.8 2.8-3 4-3.5 4-4 6.8-4 12h-2l-1-4-1 2-2 1 6 6.4 1.7 2c3.5 3.6 5.8 5.5 11 5.7l2-3h-3l2.8-.7c3.5-1.3 4.7-2.6 7.3-5.2 2.3-1.5 4.6-2.7 7-4l-1-3h-2l1-1.8c2.2-4.6 3.7-8 3-13.2-3.5 1.4-3.5 1.4-7 3l1-2.2c1-3 1-4-.1-6.7l-6 2c1-2.5 1-2.5 3-5 2.4-.3 4.6-.2 7 0 2.3.2 2.3.2 4-2 .3-3 .3-3 0-6l-2-2c-3.6.3-3.6.3-7 1l-1 3h-3l1-7h2.2c4-1.2 5.5-3.7 7.8-7l2.3-3.2c2-2.7 2-2.7 1.7-5.8-1-1.3-1-1.3-3.6-1H220v-3.6-4.7l.1-2.4-.2-6.2-2-2c-.4-2-.4-2-.6-4.4l-.2-2.3V64c-3.4 1.4-5 3-7 6l-1 3.2c-1 2.8-1 2.8-3 3.8l-1-9 2.3.2c2.7 0 2.7 0 4.6-1.4 1.4-1.8 1.4-1.8 1-4.4-.7-2.6-.7-2.6-2.8-4.4-2.5-.5-2.5-.5-5 0-2 2-3 3-3 6h-2l-2-7 1.3-1c3-3.4 4.3-7.7 5.7-12h-7c-2.5-4.6-4.5-8.7-5-14l-5 1-2-6h-1.8c-6.6-.5-6.6-.5-9.4-2.7L173 20c-3.7-3-3.7-3-8-4v7l-4.4-2.7-2.5-1.5c-2.3-2-2.7-2.8-3-5.7l-.6-2.7L154 8l-5-1-2 2v4c-3.4-1.5-6-3-8.8-5.5-3.6-3-7.7-4.2-12.2-5.5l-3-1z" fill="#fdfdfc"/><path d="M45 26h139v31l6 1c1.4 2 1.4 2 2 4l-6-1-1-2v2c-.8 29-4 53.8-19.7 78.6-1.5 2.2-1.5 2.2-1.2 5.2l-4-1v2l-2-.6-2-.4-2 2-1-2.4c-2-3.5-2-3.5-9-4.6v-16l5-2v-3l-5-1-1-7a96 96 0 0 0-20.6-.5A200 200 0 0 1 94 110v-2l-3.2 1c-3.2.8-5.6 1.2-8.8 1v5l-2.4 1c-2.5.8-2.5.8-3.6 2l-1 7 6 1v14l-6 1v5c-2.5 1-3.7 1-6.2.3C67 145 67 145 66 142l-2-1c-4.4-2.3-6.2-7.8-8-12a55 55 0 0 1-1.6-7c-.3-2-.3-2-1.5-4-1-2-1-2-1-6h2l1-2h-2l-.8-2c-1-2.4-1-2.4-4.2-3-1-3-1-5-1-8.2V94v-2l1 2h2.4 11H65h3.7 3.4c2.8.1 2.8.1 5.8 1l1-1c-2.4-2.4-3-2.3-6.4-2.4l-2.6-.1-2.7-.1-2.7-.1L58 91v-8h-5v-4h5V59h-6v-3l2.4-.6c3-1.2 3-1.2 4-4.5l.7-3h3l2 2 1-3 7 .4 4 .2C79 48 79 48 80 49c.1 2.7.1 5.3.1 8v2.4V67v5.2V85l-2 1 5 3-.5-1.5c-.7-3.6-.7-7-.6-10.7v-2.4-5-7.7-5-2.3c0-5.4 0-5.4 1-6.5l7.3-.6 2-.2c3.4-.2 6.4-.3 9.6.8h2v7h5l1 3h-5v21h5v3l-5 1-1 8 3 1 1-2 2 1v-5l2 2h4v2h3l1-3 1 7h6l1-1c2.7-.5 5.3-.7 8-1l-13-1-1-8-5-1 1-3 4-1 1-19-6-1v-2l6-1v-7l5 1 1 11 1-13 15 1 1 3 2-3 7.6-.7 2-.1 5.2-.2v15.8V68v7.7 2.4V84l-1 1 4 2v1h-18v2l2-1 8.6-.6 2.4-.1 6-.3v-3l-3-1V48h6v7l6 1v2l-6 1 1 19 5 1v3h-6v4 4c-2 2-6.6 1.4-9.6 1.6l-2.4.1-6 .3h3.2l4.2.2 2 .1 5.4.5 1 2 6-2v-4h2l1-11-4-2c-.6-3.3-.6-3.3-.7-7l-.2-4v-3l6-2-1-5-5-1v-7h-7v-2l-3 1h-7.4-2.2-7-9-2c-3.7-.1-3.7-.1-7.2 1-1.7-.3-3.3-.6-5-1v7l-6 2v-5h4v-2h-2v-2l7-3-2-4 5-2-1-5h-5c3-1.8 4.2-2 8-2a32 32 0 0 0-10.3-1.1H116h-3.8-7.4-3.3C99 29 99 29 98 28a86 86 0 0 0-4.7 0c-6.8.1-13.5-.4-20.3-1v2h-2.2l-10-.5-3.5-.2-3.4-.1h-3C48 28 48 28 45 29v-3z" fill="#a41b31"/><path d="M184 96l2 2.4a73 73 0 0 0 6.1 6.6l3 3-6 1v6l2 2h6c2 .1 2 .1 4 1.2 1.5 3 1.2 5.7 1 9h-2l-1 3v-7l-2.4 2.4C194 128 194 128 192 129l-1.3-2.4c-1.5-2.8-1.5-2.8-4.7-3.6v8c-3 1-3 1-6 0v19h4l-.4-4.2-.2-2.4a48 48 0 0 0-1.3-6.4l4 4v-5l3 3 2-3 2 7 2-3h2l2-9 2 1c-1 4.3-1.6 6.5-4.5 10-3 3.8-3.6 6.4-4.5 11h-2l-1-3-2 2 5.6 6 1.6 1.7c3.4 3.5 5.7 5 10.8 5.4v-1l-2-1 2.8-.8c3-1 4.2-1.8 6.2-4.2-1 3.7-2 5-5 7.3l-3 2.7c0 2 0 4 .2 6-.4 4-3.4 6.4-6.2 9l2 4c-1.3.7-2.6 1.4-4 2l-2.2 1.2-2 .8-2-1v-6h-2v-6l-3 1 1 1.7a21 21 0 0 1 1 12.3c-2.5 3-4.7 4-8.2 5.3-3.8 1.6-7.2 3.8-10.8 6-12.6 7.7-28 14.8-43 13.7l-2-2h3l-1-7 6-1 2 6 3-1-1-1.5-8-14.5-3 3-1-3h-5l-.3 2.5c-.8 4-2.2 7.6-3.7 11.5-3-4.7-4.3-9.4-4-15l-3 1 2.4 8 .7 2.3a127 127 0 0 0 2 5.8l2 1-1 5a87 87 0 0 1-22-2l3-1-3-2 3-9c3 1 3 1 4.2 2.8l1 2.2 1 2.2.8 1.7-1.7-6.5c-.2-2.5-.2-2.5 1.3-4.4 2.2-3 1-5.5.5-9l2-3 6.8-.4c5.4-.1 5.4-.1 10-2.7l2.3-3 5.2-3.7c5.7-4 10.8-8.5 15.8-13.2l2.7-2.6C165.7 146 177 122.7 184 96z" fill="#251d17"/><path d="M10 65l5 1v3l-3-2 1 2-.2 6.3c-.2 4.5-.2 4.5 1.4 8.7 1.5 1.5 1.5 1.5 4 3l3-6 3 1-1.3 2-1.7 2.7-1.7 2.7a24 24 0 0 0-2.5 13.3v3.5 2.7h2v-2.3l.2-3 .2-3C20 98 20 98 22 96l1 2 2-1-1 8 7-9c0 3.3-.7 5.2-2 8.2l-1 2.7-1 2 7-6v2l2 1-1 1 2 1.2c2 1.8 2 1.8 2.4 4.3-.4 2.5-.4 2.5-1.5 4.3-2 1.2-2 1.2-5.4 1-3.5-.3-3.5-.3-5.4 1.8-1.2 2.5-1.8 4.6-2 7.3h2l1 3 1-7c2 .8 2 .8 4 2l1 3 2.3-2.5C39 123 39 123 42 123l1 8 6-1v20l5 2 .4-2.4c.6-2.6.6-2.6 1.6-3.6 2.4-.2 2.4-.2 5 0 2 2 2 2 2.3 4.5C63 153 63 153 61 155h-4c1.3 4 3.5 4.8 7 7 1 1 1 1 1 4v3l-5 1v3h7l-1-5 5 1 2-7c2.5 1 3.8 1.7 5.4 4 1.5 2.2 1.5 2.2 4.3 2.8a28 28 0 0 1 9.4 6.1 50 50 0 0 0 15.1 10.3l2.7 1 2 .8-1 3-8 1c-.7 2.8-1 4.7-.4 7.6l.4 2.4-1.6 1.8c-1.7 2-1.7 2-1 4.8l1 2.7 1 2.7.8 2c-3.6-1.5-4-1.8-5.6-5.6L96 206l-2-1-.6 4-.3 2.2v1.8l1 1v2c6.3 1.8 12.4 2.5 19 3l-1-3-1.4-4.7-.8-2.7-.8-2.8-1-2.8-2-7h4l.6 2.6.8 3.3.8 3.3c.5 2.6.5 2.6 1.8 3.7 2.6-6.3 2.6-6.3 3-13h6l1 3 3-4 4.4 8.4 1.3 2.4 1.2 2.3 1 2 2 3.8h-4l-2-6-6 1v4l2 1-2 3c18.6-.4 36-8.2 51-18.7 2.8-2 5.8-3 9-4.2 1.5-1.5 1.3-3 1.6-5l.4-4 2 2c-.1 4-.3 6.2-3 9.3-3 1.8-3 1.8-6.2 3-3.5 1.5-6.6 3.4-9.8 5.4-23.2 14.7-51.4 19-78.3 14L85 217l-3.5-1c-11.4-3.7-22-9.4-32-16-2-1.2-2-1.2-5-2.6C41.8 196 41 195 40 192l2.6 2c3.4 2 5.5 2.6 9.4 3l1-1.5 4-7 1.4-2.4 1.3-2.3 1.2-2c1-1.7 1-1.7 3-2.7l2 2-5 7 3 1c3 1 3 1 5 2l3-7 4 3h-2l-.8 2-4.3 8.7-1.6 3L66 203l-4-1v3h5l3.3-3.5c2.7-2.5 2.7-2.5 4.6-3 3-.8 4-2.4 5.8-4.7l2-2.2L84 190l2 3h2l-.6-2-.4-2 1-1-1.8-.3c-2.2-.7-2.2-.7-3.5-2-2-2-4.4-3.3-7-4.6-2.8-1.5-5.5-3-8.2-4.6A35 35 0 0 0 58 173l1-4 5-1c-1-3-1.7-4.7-4-6.7-4-1.6-7.4-1.7-11.6-1.7L46 159c-1.3-2-1.3-2-2-4l2-1 1 3h3v-5c-3.6-.3-5.4-.5-8.3 1.7l-2 2.3A154 154 0 0 1 27 168c-1.4 1.2-1.4 1.2-1.2 5 0 2.5.1 4 1.3 6 3 1.5 5.6 1.2 9 1l2-1c1.4 4.5.5 7.6-1 12l-9-4 1-4c-1.2-1.7-1.2-1.7-3-3.2-3-3.2-3-3.2-3.3-5.8l.2-2v-4l-4.4-3.8C17 163 17 163 15 160c-2.4-3.5-4.4-4.8-8-7l1-1.7c1-2.2 1-2.2.2-4.5L7 144.6c-1.7-3.4-2.6-5.7-2-9.6 3 .6 5.4 1.6 8 3l-3-8c5.8-.1 5.8-.1 8 1-2-4-2-4-6-6l-1 1-7-1c-1.3-5.4-1.3-5.4.1-8 3-1.6 4.8-1 8-.1l1 2 3 1v-7l-2.7-.2c-4-1-5-2.3-7.2-5.8l-1-3.2-1-2.7-3-1 2-4h5V79h2V65z" fill="#2d2418"/><path d="M47 27l26 2v-2h12.4H89h3.4 3.2c2.4.1 2.4.1 3.4 1h7.8 2.3 7.5 5H134l-3 2 1 2-6-1 2 3v3l-4 3v2l2 1c-4.6 3-4.6 3-8 3v2h2v2h-4v5l5-2 1-7h2.7c3.2.1 3.2.1 5.6-.6 3.5-.6 6.7-.6 10.2-.6h2 6.7 4.6 11v2h7v7h2.4c2.6.1 2.6.1 4.6 2-.4 2.6-.4 2.6-1 5l-6 1 1 2c.1 2 .1 4 .1 6v3.3V76l2 .4c2 .6 2 .6 3 1.6a20 20 0 0 1-2 11h-2v4l-7 3v-3h-3.2-4l-2 .1c-3.8 0-5.4 0-8.6-2.2l20-1 1-8h6v-3h-2.4c-2.6-.1-2.6-.1-3.6-1v-4.3-2.6-2.7-2.7V59l6-1v-2l-6-1v-7l-2 .6c-2 .4-2 .4-4-.6l1 36 2 1V50h1v16.2 5.5 8V82v6c-1.5 1.5-3 1.2-5.3 1.3l-2.6.1-2.7.1-2.7.1-6.7.3v-2l17-1a92 92 0 0 0-11.3-1.6l-3.2-.3-2.4-.2v-1h15V47l-3 1a189 189 0 0 1-6.2.6l-3.3.3-2.5.2-1 6c-1.5-2.6-2-4-2-7h-2.5-3.3-3.3c-3-.1-3-.1-6-1v25h-1a199 199 0 0 1-1-23l-5-1v7l-6 1v2l6 1v19l-5 2-1 2h2.4c2.6.1 2.6.1 3.6 1v8h20v1c-5 .8-9.8 1-15 1l-1 2c-3-.2-3-.2-6-1-1.4-2-1.4-2-2-4h-3l-1-2h-2l-1.4 1.4c-2 2-3.8 2.5-6.6 2.7h-2.2-2.4-2.5-2.6H89v-1h15v-4-4c1-1 1-1 3.6-1h2.4v-3h-5V58h5l-1-2-5-1v-7h-2l-1 2v-2h-2v5h-1v-6l-15 2-1 36h13v1H83l1 4-2.2-1.4C77 86 71.3 86.3 66 86v-1h14l-1-36-12-1-2-1v8h-1l-2-6-1 38h-1l-1-38-2 6-5 1v3h6v20l-5 1v2l5 1v8h20l2 4-3 1-2-1-6-.3-3.7-.1-4-.1-4-.1L48 94v3.8 2c0 2.2 0 2.2 1 5l2 1 1-2 1 6h2v5l-1-3h-2l1 2.3 1.2 3 1.2 3c.8 2.8.8 4-.2 6.8-6.8-16.7-11.3-30.7-11.2-49v-4.3-11-11.4V29h3v-2z" fill="#a41b30"/><path d="M184 28h2l2 3 5-1 .8 3.6c1 3.8 2.3 7 4.2 10.4h7l-.8 1.5c-1.4 3-2.4 5.8-3.4 8.8C200 56 200 56 198 57l2 7h2l1-2.4c1-2.6 1-2.6 2-3.6 2.8-.3 4.4-.4 7 1.2 1 1.8 1 1.8 1 4.4C212 66 212 66 210 68h-5l1 9c3.2-1.6 3.6-4.6 5-7.8 1-2.2 2.2-3.6 4-5.2l3 1-.3 1.8c-.7 4.7-1 8 1.3 12.2h1v17h5l2 3-1.7 2c-2.3 2.8-2.3 2.8-4.2 6a17 17 0 0 1-6 5.9h-3l-1 7h3l1-3c3.4-.6 3.4-.6 7-1 2 2 2 2 2.3 5-.2 3-.2 3-2.2 5-2 0-2 0-4.4-.2-2.4-.1-2.4-.1-4.6.2-2.2 2.3-2.2 2.3-3 5l7-2c-.5 3-1 6-2 9l2.4-1.5c2.6-1.5 2.6-1.5 4.6-1.5-.4 5.7-1 10-4 15l3 1v2l-5 3c-3.4 2-5 2.8-7 6-2 .7-2 .7-4 1l2 1c-2 2-2 2-4.7 2-4.6-1.4-7-4-10.2-7.6l-1.8-2-4.3-4.6 2-1 1-2 1 4h2v-3.6c.5-4.5 2.5-7 5.6-10 1.4-1.2 1.4-1.2 1.3-2.3l-2 3h-2l-2 4-6-6-1 4-3-3 1 2a78 78 0 0 1 .1 4.6v2.5 2h-4v-19h5l1-8c3 .4 3.8.8 5.8 3l1.3 2 2-2.5 2-2.5h2l1 4h2c-.3-5-.3-5-3-9h-6c-2-.1-2-.1-4-1.2-1-2-1-2-1-5 1-3 1-3 3.6-4.3l2.4-.6-2.2-1c-3.2-2.2-4.8-4.6-6.7-8a41 41 0 0 0-3.7 10.3c-3.2 11.2-7.7 24.7-15.3 33.8h-3l1.6-2.7a145 145 0 0 0 14.7-32.8l.8-2.6c3-10.8 3.2-22 3.5-33l.1-3.8.3-9 2 1v2h5l-1-2-6-2V28z" fill="#251c17"/><path d="M38 34c2 1 2 1 3.3 3 1 4 1 6.8.8 11-2 2.4-2 2.4-4 4l-1 2h-2v2h2l-1 2.4c-1 2.3-1 2.3-1 3.6l7 1v4h-2.7A38 38 0 0 0 31 68l3 1v2l-2 1c3.4 2 6 2 10 2v2l.3 8.6.1 3c.2 6.4 1.4 11.6 3.6 17.6l1.3 4c6.7 21.8 18 39 33.6 55.5C83 167 83 167 84 169c-3.6-.3-4.7-.7-7.2-3.5L75 163l-2-1-1 8-5-1v4h-7v-3l4-1c.6-2.8.6-2.8 0-6-1.7-1.5-3.5-2.7-5.5-3.8L57 158v-3l5-2a100 100 0 0 0 0-5c-1-1.3-1-1.3-3.6-1H56l-2 5-5-2v-20l-6 2c-1-1-1-1-1-2.8V123c-3.2 1.4-4 2-6 5-2 0-2 0-4.6-2.5L29 123v3.4c-.1 3.6-.1 3.6-2 5.6v-5h-2c.6-6.3.6-6.3 2-9 3-1.6 5.6-1 9-1 2.3-1.8 2.3-1.8 2-4.6V110l-6-2 3-2c-4 0-5 1.5-8 4l-1-2 2.4-5.6 1.4-3 1-2.3-1.5 2-2 2.5-2 2.5-1.6 2h-1l1-8-2 2-1-2-2 11h-2a30 30 0 0 1 3-23c1-1.4 2-2.7 3-4l-2-1-.3 1.8C20 85.3 19 86.3 17 88a15 15 0 0 1-5-6 102 102 0 0 1 0-15l3 1-.2-4c-.1-2.2-.1-2.2.2-4 3-2 3-2 5.4-2 3.4 1.2 5.2 3.2 7.6 6 1.4-2.7 1.4-2.7 2-6l-4-5-2-6-1-3h7l.8-2 1-2.5 1-2.5c1.4-2.6 2-3 5-3z" fill="#302211"/><path d="M181 151c6 1 9.6 5.7 13.5 9.7l2.5 2.4c6 6 6 6 6 11-1.3 3.4-2 5-5 7-3 .6-3 .6-6 0a101 101 0 0 1-9.8-10.7l-2.4-3C178 165 178 165 178 163l-4.3-.6-2.4-.3c-2.4-.3-2.4-.3-5.3 1 .7 3 .7 3 3 4.2 4.3 2.6 7.5 6.2 11 9.8l2 2c3 3.2 5.4 5.6 5.7 10.2-.7 3.8-.7 3.8-2.8 6-3 1.7-3 1.7-6.2 3a73 73 0 0 0-10.8 6c-12.6 7.7-28 14.8-43 13.7l-2-2h3l-1-7 6-1 2 6 3-1-1-1.5-8-14.5-3 3-1-3h-5l-.3 2.5c-.8 4-2.2 7.6-3.7 11.5-3-4.7-4.3-9.4-4-15l-3 1 2.4 8 .7 2.3a127 127 0 0 0 2 5.8l2 1-1 5a87 87 0 0 1-22-2l3-1-3-2 3-9c3 1 3 1 4.2 2.8l1 2.2 1 2.2.8 1.7-1.7-6.5c-.2-2.5-.2-2.5 1.3-4.4 2.2-3 1-5.5.5-9 2-3 2-3 4-3.4l2.4-.1 2.7-.1h2.8l5.5-.2 2.7-.1A190 190 0 0 0 134 189v6l2 .2c2 .8 2 .8 3.4 3.2l1 3 1 3c.7 2.8 1 5 .7 8l3-2-1-1.8c-1-2.2-1-2.2-1-5.2 3.5.6 6 2.2 9 4h2l-3.4-1.7c-2.8-2-3.5-3-4.2-6.3l-.3-9 5-1 9 14 2.8-1 6.2-2c.4-6.5.4-6.5-1-13-3-3-6.2-4.5-10-6v-4c3.2-2.4 6-3.4 10-4-.3-2-.3-2-1-4l-3-1c.4-5.4.4-5.4 3-7.8A35 35 0 0 1 178 158l-2-2c.6-4 .8-5 5-5z" fill="#f5f5f5"/><path d="M65 47l7 .4 4 .2C79 48 79 48 80 49c.1 2.7.1 5.3.1 8v2.4V67v5.2V85l-2 1 5 3-.5-1.5c-.7-3.6-.7-7-.6-10.7v-2.4-5-7.7-5-2.3c0-5.4 0-5.4 1-6.5l7.3-.6 2-.2c3.4-.2 6.4-.3 9.6.8h2v7h5l1 3h-5v21h5v3l-5 1-.4 4A16 16 0 0 1 103 93h-3.4-4.4l-2.2-.1c-4 0-6.7.1-10 2.2-3-.4-3.8-.8-6-3l-4.4-.4-2.6-.1-2.7-.1-2.7-.1L58 91v-8h-5v-4h5V59h-6v-3l2.4-.6c3-1.2 3-1.2 4-4.5l.7-3h3l2 2 1-3z" fill="#664d3f"/><path d="M130 47l15 1 1 3 2-3 7.6-.7 2-.1 5.2-.2v15.8V68v7.7 2.4V84l-1 1 4 2v1h-18v2l2-1 8.6-.6 2.4-.1 6-.3v-3l-3-1V48h6v7l6 1v2l-6 1 1 19 5 1v3h-6v4 4c-2.3 2.3-8.5 1.4-11.7 1.5-4 .2-6 .3-9.3 2.5l-7-1v-1l-19-1-1-8-5-1 1-3 4-1 1-19-6-1v-2l6-1v-7l5 1 1 11 1-13z" fill="#615f60"/><path d="M135 110l1 2 3 1v15.7 5.3 7.7 2.4c0 5.6 0 5.6-1 8h-11.4-3.3-3-3c-2.3-.1-2.3-.1-4.3-1l-2 1h-5-3-3-3.2H89l1-3h4l-3-2c-.3-2.8-.3-5.3-.3-8v-2.4l.1-7.6v-5.2V111h9.4 2.7 2.6 2.4c2 .1 2 .1 4 1a63 63 0 0 1-4 24l-1 1 3 1v-6l5 1 1 5 3-1-1.4-3c-3-7.3-4.3-14-3.6-22 2.2-2.2 7-1.4 10-1.6l2.5-.1c6-.3 6-.3 8.5-.3z" fill="#eee"/><path d="M84 169l3.4 2.5 2.2 1.6 4.8 4a49 49 0 0 0 17.6 10l-1 3-8 1c-.7 2.8-1 4.7-.4 7.6l.4 2.4-1.6 1.8c-1.7 2-1.7 2-1 4.8l1 2.7 1 2.7.8 2c-3.6-1.5-4-1.8-5.6-5.6L96 206l-2-1-.6 4-.3 2.2v1.8l1 1v2c6.3 1.8 12.4 2.5 19 3l-1-3-1.4-4.7-.8-2.7-.8-2.8-1-2.8-2-7h4l.6 2.6.8 3.3.8 3.3c.5 2.6.5 2.6 1.8 3.7 2.6-6.3 2.6-6.3 3-13h6l1 3 3-4 4.4 8.4 1.3 2.4 1.2 2.3 1 2 2 3.8h-4l-2-6-6 1v4l2 1-2 3c18.6-.4 36-8.2 51-18.7 2.8-2 5.8-3 9-4.2 1.5-1.5 1.3-3 1.6-5l.4-4 2 2c-.1 4-.3 6.2-3 9.3-3 1.8-3 1.8-6.2 3-3.5 1.5-6.6 3.4-9.8 5.4-23.2 14.7-51.4 19-78.3 14L85 217l-3.5-1c-11.4-3.7-22-9.4-32-16-2-1.2-2-1.2-5-2.6C41.8 196 41 195 40 192l2.6 2c3.4 2 5.5 2.6 9.4 3l1-1.5 4-7 1.4-2.4 1.3-2.3 1.2-2c1-1.7 1-1.7 3-2.7l2 2-5 7 3 1c3 1 3 1 5 2l3-7 4 3h-2l-.8 2-4.3 8.7-1.6 3L66 203l-4-1v3h5l3.3-3.5c2.7-2.5 2.7-2.5 4.6-3 3-.8 4-2.4 5.8-4.7l2-2.2L84 190l2 3h2l-.6-2-.4-2 1-1-4-1v-2l11 3c-.4-4.6-.4-4.6-2-6v4h-3l-5-9 1 7c-3-.8-3-.8-6-2l-1-3h2l1-8h2v-2z" fill="#eeeeef"/><path d="M47 150.8c3 .3 3 .3 4 1.3a100 100 0 0 1 0 5l-4 1-2-3 1 3h2.2c6 .4 10.3.7 14.8 5 1 2.8 1 2.8 1 5l-5 2v3l3 .5c7.8 2 15.2 7 22 11.5v2l5 1-2 1 1 4-3 1-1-3-1.5 2c-5.7 6.8-5.7 6.8-10 8H70l-1 6-7-1-1-2 1-2 4 1 .3-1.6c1.3-4.3 4-8 6.3-11.7L74 187l-1-2-4 7-8-4c1-3 1.8-4.8 4-7l-2-1-11 18c-5.7-1-9-1.8-13-6-.6-3-.6-3 0-6 1.5-2.2 1.5-2.2 3-4v-3c-3.3.4-3.3.4-6 2-3.8.4-6.2.5-9.4-1.5-1.8-2.8-2.4-5-2.2-8.4 1.3-4.5 5.2-7.2 8.6-10l2.2-2 4-3.5c1.8-1.5 1.8-1.5 3.3-3.2C44 151 44 151 47 150.8z" fill="#f6f7f7"/><path d="M123 1c6.6 2 12.8 4 18.2 8.6A9 9 0 0 0 147 13l1-5c2.4-.6 2.4-.6 5-1l2 2v2.8c.2 4.2 1.5 6 4 9.3a11 11 0 0 0 4 2v2h-6v-2h-2v2H76v-3l-1 3h-8l-1-1a100 100 0 0 0-5 0c3.2-4 6-5.5 11-7.3a19 19 0 0 0 10.8-8.9C84.4 5.4 86.3 4.2 89 3h2v4h1.7c6-.2 10 .8 15.3 3l-2 5 3 2.4 3 2.6v2h-10v2h21v-2l-2.8-.8c-3-1-4-2-6.2-4.2-2-1.2-2-1.2-4-2v-2h3l-1.5-2C110 9 110 9 110 7l8 1-1-6 6 1V1z" fill="#3d3214"/><path d="M148.6 151h2.4l-1 5h-2l-.3 2.2a21 21 0 0 1-3.7 7.8h-2l-2 4h-2v2c-16.5 14.8-16.5 14.8-25 17-2.6-1.2-2.6-1.2-5-3l-3-2-3-2-1.7-1.2c-1.7-1.2-1.7-1.2-4.3-3.8-.4-3.3-.4-3.3 0-6l-4 1-1-3-4-2c-1.7-1.2-1.7-1.2-3-3v-6h2 20 10.3 11.8 3.7 3.5 3c2.7 0 2.7 0 5.5-1l.4-2.4c.8-3.5.8-3.5 4-3.6z" fill="#a51b31"/><path d="M108 46v6l4 1v8h-5v15l7-2 2-6 3-2v-4l-3-1v-6l5-2 1-7h2.7c3.2.1 3.2.1 5.6-.6 3.5-.6 6.7-.6 10.2-.6h2 6.7 4.6 11v2h7v7h2.4c2.6.1 2.6.1 4.6 2-.4 2.6-.4 2.6-1 5l-6 1 1 2c.1 2 .1 4 .1 6v3.3V76l2 .4c2 .6 2 .6 3 1.6a20 20 0 0 1-2 11h-2v4l-7 3v-3h-3.2-4l-2 .1c-3.8 0-5.4 0-8.6-2.2l20-1 1-8h6v-3h-2.4c-2.6-.1-2.6-.1-3.6-1v-4.3-2.6-2.7-2.7V59l6-1v-2l-6-1v-7l-2 .6c-2 .4-2 .4-4-.6l1 36 2 1V50h1v16.2 5.5 8V82v6c-1.5 1.5-3 1.2-5.3 1.3l-2.6.1-2.7.1-2.7.1-6.7.3v-2l17-1a92 92 0 0 0-11.3-1.6l-3.2-.3-2.4-.2v-1h15V47l-3 1a189 189 0 0 1-6.2.6l-3.3.3-2.5.2-1 6c-1.5-2.6-2-4-2-7h-2.5-3.3-3.3c-3-.1-3-.1-6-1v25h-1a199 199 0 0 1-1-23l-5-1v7l-6 1v2l6 1v19l-5 2-1 2h2.4c2.6.1 2.6.1 3.6 1v8h20v1c-5 .8-9.8 1-15 1l-1 2c-3-.2-3-.2-6-1-1.4-2-1.4-2-2-4h-3l-1-2h-2l-1.4 1.4c-2 2-3.8 2.5-6.6 2.7h-2.2-2.4-2.5-2.6H89v-1h15v-4-4c1-1 1-1 3.6-1h2.4v-3h-5V58h5l-1-2-5-1v-7h-2l-1 2v-2h-2v5h-1v-6l-15 2-1 36h13v1H83l1 4-2.2-1.4C77 86 71.3 86.3 66 86v-1h14l-1-36-10-1v-1l12.8-1 3.6-.3a113 113 0 0 1 22.7.4z" fill="#382523"/><path d="M199 111h4l1 6 2.4-1.5c2.6-1.5 2.6-1.5 3.6-1.5v8l4-1v3l-2 1.4-2 1.6v4l7-2c-.5 3-1 6-2 9l2.4-1.5c2.6-1.5 2.6-1.5 4.6-1.5-.4 5.7-1 10-4 15l3 1v2l-5 3c-3.4 2-5 2.8-7 6-2 .7-2 .7-4 1l2 1c-2 2-2 2-4.7 2-4.6-1.4-7-4-10.2-7.6l-1.8-2-4.3-4.6 2-1 1-2 1 4h2v-3.6c.5-4.5 2.5-7 5.6-10 1.4-1.2 1.4-1.2 1.3-2.3l-2 3h-2l-2 4-6-6-1 4-3-3 1 2a78 78 0 0 1 .1 4.6v2.5 2h-4v-19h5l1-8c3 .4 3.8.8 5.8 3l1.3 2 2-2.5 2-2.5h2l1 4h2c1-2.7 1-2.7 1-6a283 283 0 0 0-5-5c.2-2.8.2-2.8 1-5z" fill="#816d44"/><path d="M184 96l2 2.4a73 73 0 0 0 6.1 6.6l3 3-6 1v6l2 2h6c2 .1 2 .1 4 1.2 1.5 3 1.2 5.7 1 9h-2l-1 3v-7l-2.4 2.4C194 128 194 128 192 129l-1.3-2.4c-1.5-2.8-1.5-2.8-4.7-3.6v8l-3 1-4-2v20l-4 1v2h-2l-1-6h-6c-.7 3.5-.7 3.5-1 7l5 1c-.2 2-.2 2-1 4-2 1-2 1-4 2-2.3 2.8-2.3 2.8-2 5.6.6 2.6.6 2.6 3 3.8l2 .7-1 2h-6v-5l-6 2v-8c-3.6 2-5.6 3.7-8 7l-3 1-4.5 5.4c-2.4 3-4.2 5.4-7.5 7.6h-3l-3 6h-8a57 57 0 0 1 9.1-7.7A151 151 0 0 0 143 168l2.7-2.6C165.7 146 177 122.7 184 96z" fill="#f4f4f4"/><path d="M188 67l9 2v-2h6l.4 2 .5 2.5.5 2.5c.5 2.2.5 2.2 1.5 4.2h5c1 3.3 1 3.3 2 7l-2 3h-2l1 2 8-9c2 2 2 2 2.2 5.2-.8 14-.8 14-6.2 19.8l-2 1 1-11h-1l-1 13h-2l-2-8-2 6-6-6 3 8c-4.3-1-5.3-1.6-8-5-1-2.6-2-5-2.7-7.7l-.7-2-1.6-5v3h-4V73l2-1-1-2 2-3z" fill="#342b25"/><path d="M92 110v37a13 13 0 0 0 6.1 1.3l2.4.1 2.6.1 2.6.1c2 .1 4.2.2 6.3.3v1H90l-1 2 10.8-.4 3-.1 3-.1 2.7-.1c2.5-.1 2.5-.1 5.4-1.2l1 1 5 .3 2.8.1 3.6.1 11.4.4 1-41h3l1 7 5 2v2l-5 1v18l7 2v4l-6 1 .2 3.4-.2 3.6c-3.5 2.3-5 2.2-9 2.2h-3.5l-3.7-.1H124h-9l-1-4h-2l-1 4H83l-1-8-6-2 1-5h6v-18l-5-1v-3l6-1-.3-3.3c.3-3.7.3-3.7 2.6-5.7 2.7-1 2.7-1 5.7 0z" fill="#0d0300"/><path d="M42 97h2l.4 1.6c6.6 25.8 17.7 46.8 36.3 66C83 167 83 167 84 169c-3.6-.3-4.7-.7-7.2-3.5L75 163l-2-1-1 8-5-1v4h-7v-3l4-1c.6-2.8.6-2.8 0-6-1.7-1.5-3.5-2.7-5.5-3.8L57 158v-3l5-2a100 100 0 0 0 0-5c-1-1.3-1-1.3-3.6-1H56l-2 5-5-2v-20l-6 2c-1-1-1-1-1-2.8V123c-3.2 1.4-4 2-6 5-2 0-2 0-4.6-2.5L29 123v3.4c-.1 3.6-.1 3.6-2 5.6v-5h-2c.6-6.3.6-6.3 2-9 3-1.6 5.6-1 9-1 2.3-1.8 2.3-1.8 2-4.6V110l-6-2 1.8-1.2c3.7-2.8 6.4-5.5 8.3-9.7z" fill="#f6f6f4"/><path d="M63 179l3 2-5 7 3 1c3 1 3 1 5 2l3-7 4 3h-2l-.8 2-4.3 8.7-1.6 3L66 203l-4-1v3c16.3 8.4 32.8 12.4 51 14l-1-3-1.4-4.7-.8-2.7-.8-2.8-1-2.8-2-7h4l.6 2.6.8 3.3.8 3.3c.5 2.6.5 2.6 1.8 3.7 2.6-6.3 2.6-6.3 3-13h6l1 3 3-4 4.4 8.4 1.3 2.4 1.2 2.3 1 2 2 3.8h-4l-2-6-6 1v4l2 1-2 3c18.6-.4 36-8.2 51-18.7 2.8-2 5.8-3 9-4.2 1.5-1.5 1.3-3 1.6-5l.4-4 2 2c-.1 4-.3 6.2-3 9.3-3 1.8-3 1.8-6.2 3-3.5 1.5-6.6 3.4-9.8 5.4-23.2 14.7-51.4 19-78.3 14L85 217l-3.5-1c-11.4-3.7-22-9.4-32-16-2-1.2-2-1.2-5-2.6C41.8 196 41 195 40 192l2.6 2c3.4 2 5.5 2.6 9.4 3l1-1.5 4-7 1.4-2.4 1.4-2.3 1.3-2c1-1.7 1-1.7 2-2.7z" fill="#9b9b9a"/><path d="M81 8l2 1c-4.4 6.5-8.8 8.5-16.2 11-3 1-3 1-4.8 3h6v1l7 1v-2h-6v-1h7v3h5l1-3v3h5l1-2 2 1h9 2.7 8.7 5.8H129c3.8 0 7.2.3 11 1l1-2 1 1 6.6.6 3.6.3 2.8.2v-2h2v2h6v-2l-5-2 2-1 5 3v-7c10.5 5 10.5 5 12 8 2 .5 2 .5 4.6.6l2.5.2h2v3h-2v-2h-1.8l-44.6.4-21.5.2-18.8.2-10 .1C73.2 27 59 27 45 26l-.2 25.4-.1 11.8-.1 11.4V79c-.3 19.6 5.5 44.7 18.2 60.2l1.3 2-1 3c-7.8-10.3-13-22.5-17-34.7l-.6-2c-1-3.5-1.6-6.6-1.4-10.3l-2-1 1-3-3-1h3l-1-2v-8-2.3V74l-3 .6c-3.4.5-4.3.1-7-1.6h-3l2-2h3v-2l-4 1 2-4v2l1.6-1c3-1.2 5.2-.7 8.4.1v-4c-4.7-.3-4.7-.3-9 1a37 37 0 0 1 4-8h-2v-2h2l.8-2.4L39 49l3-1v-8l-2-1c-.6-2-.6-2-1-4h-4v-5l7 1v-6l2.3-.7C47.5 22.8 49 21 51 18l3 1v6l7-4-.6-3.4L60 14c2-2 2-2 4.6-2H67l1 5c5.6-2 9.7-3.8 13-9z" fill="#251212"/><path d="M91 111h9.4 2.7 2.6 2.4c2 .1 2 .1 4 1a63 63 0 0 1-4 24l-1 1 3 1v-6h2v17h-8.8l-2.5.1h-2.4H96c-2-.2-2-.2-5-2.2-.3-2.8-.3-5.3-.3-8v-2.4l.1-7.6v-5.2V111z" fill="#f0f1f0"/><path d="M44 29h1v29l3-2-1-4h4l1 2 4-1 2-7c6.6-1.2 6.6-1.2 10 1h-3v8h-1l-2-6-1 38h-1l-1-38-2 6-5 1v3h6v20l-5 1v2l5 1v8h20l2 4-3 1-2-1-6-.3-3.7-.1-4-.1-4-.1L48 94v3.8 2c0 2.2 0 2.2 1 5l2 1 1-2 1 6h2v5l-1-3h-2l1 2.3 1.2 3 1.2 3c.8 2.8.8 4-.2 6.8-6.8-16.7-11.3-30.7-11.2-49v-4.3-11-11.4V29z" fill="#962337"/><path d="M184 28h2l2 3 5-1 .8 3.6c1 3.8 2.3 7 4.2 10.4h7l-.8 1.5c-1.4 3-2.4 5.8-3.4 8.8C200 56 200 56 198 57l2 7h2l1-2.4c1-2.6 1-2.6 2-3.6 2.8-.3 4.4-.4 7 1.2 1 1.8 1 1.8 1 4.4C212 66 212 66 210 68h-5l1 9c3.2-1.6 3.6-4.6 5-7.8 1-2.2 2.2-3.6 4-5.2l3 1-.3 1.8c-.7 4.7-1 7.8 1.3 12.2l1 4h-3c-2.6 3-4.8 5.7-7 9-.7-1.8-.7-1.8-1-4l1.5-1.4L212 85c-.2-3-.2-3-1-6l-2.3.3c-2.7-.3-2.7-.3-4.4-2.4-1.3-3-2-5.6-2.2-9-3.4-1-5.6-1-9 0l-1-1a144 144 0 0 0-6 0l1-5 4-1-1-2-6-2V28z" fill="#241714"/><path d="M47 150.8c3 .3 3 .3 4 1.3a100 100 0 0 1 0 5l-4 1-2-3 1 3h2.2c6 .4 10.3.7 14.8 5 1 2.8 1 2.8 1 5l-2.4 1c-2.7 1-2.7 1-4.6 3h-4c-2 2-2 2-3.6 4.5L46 181h-2c-2 3.5-3 7-4 11h-1c-.3-4.6.1-6.5 3-10v-3c-3.3.4-3.3.4-6 2-3.8.4-6.2.5-9.4-1.5-1.8-2.8-2.4-5-2.2-8.4 1.3-4.5 5.2-7.2 8.6-10l2.2-2 4-3.5c1.8-1.5 1.8-1.5 3.3-3.2C44 151 44 151 47 150.8z" fill="#f7f8f7"/><path d="M163 47v37l-16 1V69.7v-5.2V57v-2.4V49c1.8-1.8 4.5-1.4 7-1.6l3.2-.3c2-.1 4-.2 6-.2z" fill="#f6f6f6"/><path d="M143 110c1 1 1 1 1 4.6v3.4h5l1 4c-3 2-3 2-6 2l1 16 6 1c2 2.6 2 2.6 3 5l3-2v2h3v-2h3c-6.6 18.8-29.2 34.4-45 45l3 2h-14c3-3 3-3 5.6-3.3 7.8-1.6 14.2-8 20.2-13 2.2-1.6 2.2-1.6 5.2-2.6v-2l4.5-3.6c3-2.7 4.5-5 4.7-9.2l-.2-2.2 3 1 1-5c-4 .6-4 .6-7 3v-6l6-1-1-4c-3.6-1-3.6-1-7 0v-10-3-2.7-2.5c.1-2 .1-2 1-3h5c-1.4-2.8-3.2-3-6-4v-7h-3l-1 2-2-1v36h-1v-38l-2 1c-1.4.2-2.8.2-4 .3l-2.4.1-2.6.1-2.6.1-6.3.3c-.6 9 1 18 5 26h-4l-1-4-1 15h-1v-17h-3v6l-4-1 1.4-3.5c2.7-7.2 3.8-13.8 4.6-21.5l-19-1v-1h4l26.7-.6c6.5-.4 13-.6 19.4.6z" fill="#100408"/><path d="M157 178l2 2 6 4c4 3 4 3 5 6 .5 4 .7 7-1.6 10.4-2.7 1.8-5.3 2.6-8.4 3.6l-1.8-3-2.4-4-1.2-2c-1.3-2.2-1.3-2.2-3.6-5h-4c-.3 7.4-.3 7.4 2.6 14 2 1.5 2 1.5 5.4 3-3 1-3 1-5.3 0l-2.4-1.4-2.4-1.4-2-1c1.3 4.4 1.3 4.4 4 8l-5 1-.6-2-1.6-5.4-1.8-6.2-1-2.4-3-1-1-7 3.5-1.2 4.6-1.6 2.3-.8c5-1.7 9.2-3.8 13.7-6.5z" fill="#efefeb"/><path d="M41 130l1.8.6c2.6.7 2.6.7 6.3-.6v20l5 2 .4-2.4c.6-2.6.6-2.6 1.6-3.6 2.4-.2 2.4-.2 5 0 2 2 2 2 2.3 4.5C63 153 63 153 61 155h-4c1.3 4 3.5 4.8 7 7 1 1 1 1 1 4v3l-5 1v3h7l-1-5 5 1 2-7c2.6 1 4 1.8 5.5 4 1.7 2.3 2.7 2.6 5.5 3v2h-2l-1 8h-2l1 2 2-1v3l4 1-2-8c3.5 3 4.8 5.6 6 10h3a91 91 0 0 0-4-9 105 105 0 0 1 5 4v2l2 1-1 4a72 72 0 0 1-27.3-11.5c-3.2-1.8-6-2.8-9.7-3.5l1-4 5-1c-1-3-1.7-4.7-4-6.7-4-1.6-7.4-1.7-11.6-1.7L46 159c-1.3-2-1.3-2-2-4l2-1 1 3h3v-5c-3.7-.4-5.4-.5-8.4 2l-2.2 2.5c-2.6 3-4.7 5-8.4 6.6l1-3h2v-3a88 88 0 0 1 5-3c2.4-2 3-3 4-6h-2c1.6-7.6 1.6-7.6 5-11l-2 13 3-1 1-17c-5 1.4-5 1.4-6.2 4.8L41 140l-1 3c-1 3.3-1.5 6.6-2 10h-2l-2-9h1l2-9 2 3c1.3-3 2-4.8 2-8z" fill="#2b1c0d"/><path d="M65 47l7 .4 4 .2C79 48 79 48 80 49c.1 2.7.1 5.3.1 8v2.4V67v5.2V85h-7-4C66 85 66 85 65 84v-8.2-2.5-8V60 47z" fill="#f2f2f1"/><path d="M29 123l4 2 1 3 2.3-2.5C39 123 39 123 42 123c.6 12.7.6 12.7-3 18l-2-2-.4 3c-.6 3-.6 3-1.6 4l1 7h2l-.2-3a27 27 0 0 1 6.4-16.7c2-1.4 2-1.4 4-1.4v17l-4 1v-9l-3 7h2c-.5 4.3-2.8 6.3-6 9h-3v3l-4 1-.4-2.7c-.5-2.8-1-5.5-1.6-8.3l2 1-1-2-2-4 1 10c-3.4-2.4-4.7-3.8-5.7-8A30 30 0 0 1 25 129l1 3h2l1-9z" fill="#9d884d"/><path d="M130 47l15 1v36h-15V47z" fill="#f7f8f8"/><path d="M123 1c6.6 2 12.8 4 18.2 8.6A9 9 0 0 0 147 13l1-5c2.4-.6 2.4-.6 5-1l2 2v2.8c.2 4.2 1.5 6 4 9.3a11 11 0 0 0 4 2v2h-6v-2h-2v2h-15-3.4c-3.6-.1-3.6-.1-6.6-1-.7-2-.7-2-1-4l1-1-6-1v-1l10-2v-1l-9-1 1-2 6-1h-21l-1-3 8 1-1-6 6 1V1z" fill="#97834e"/><path d="M108 46v6l4 1v8h-5v15l7-2 2-6 3-2c.3-2.6.3-2.6 0-5h2l.6 7 .4 4V75l-2 2h-4l-1 5 2.4.8L120 84l1 3h-2v3h-3l-1-2h-2l-1.4 1.4c-2 2-3.8 2.5-6.6 2.7h-2.2-2.4-2.5-2.6H89v-1h15v-4-4c1-1 1-1 3.6-1h2.4v-3h-5V58h5l-1-2-5-1v-7h-2l-1 2v-2h-2v5h-1v-6l-15 2-1 36h13v1H83l1 4-2.2-1.4C77 86 71.3 86.3 66 86v-1h14l-1-36-10-1v-1l12.8-1 3.6-.3a113 113 0 0 1 22.7.4z" fill="#761926"/><path d="M179 130l2 1-1 19h4l-.4-4.2-.2-2.4a48 48 0 0 0-1.3-6.4l4 4v-5l3 3 2-3 2 7 2-3h2l2-9 2 1c-1 4.3-1.6 6.5-4.5 10-3 3.8-3.6 6.4-4.5 11h-2l-1-3-2 2 5.6 6 1.6 1.7c3.4 3.5 5.7 5 10.8 5.4v-1l-2-1 2.8-.8c3-1 4.2-1.8 6.2-4.2-1 3.7-2 5-5 7.3l-3 2.7c0 2 0 4 .2 6-.4 4-3.4 6.4-6.2 9l2 4c-1.3.7-2.6 1.4-4 2l-2.2 1.2-2 .8-2-1v-6h-2v-6l-3 1 2 6a92 92 0 0 1-12.4-12.2c-2.7-3-4.8-5.2-8.6-6.8v-3c3-2 3-2 6.4-2 6.2 1.6 9.5 6.8 13.4 11.6l2.4 3c1.8 2.4 1.8 2.4 1.8 4.4 3 .2 5.2.4 8 0 2.7-2.4 4-3.8 4.3-7.4-.6-5-5-8-8.3-11.3l-2.3-2.3c-4.7-4.7-8-7-14.7-8l2-1v-20z" fill="#282114"/><path d="M2 88h4v2h2v6l-6 2v2l1.8 1.7c2 2 3 3.4 4 6 1.8 3.6 1.8 3.6 5.4 4.8l2.8.6v7l-4-1v-2c-3-.2-3-.2-6 0-2.3 2-2.3 2-2 5v3c4.7.3 4.7.3 9-1l5 5v2h-7l2 7-2.3-1-5.7-2c2.2 7.6 2.2 7.6 5 15l-3 3 2 1-4-1c-.6-2-1-3.8-1-6H2l-1 2c-1.7-1.7-1-4-1-6.4V139v-3.8-4-8-10.5-10V99v-3.5-3C0 90 0 90 2 88z" fill="#f7f7f6"/><path d="M97 47l.2 7.3.1 2c.1 5.2.1 5.2-1.8 7.4L94 65v3h-2l-2-3-3-1 1-5 3 1 1-2h-8l1 2c.1 2.2.1 4.3.1 6.5V70c-.1 3-.1 3-1 5h9v-2c2-2 2-2 4-3v3l-.1 4-.1 4L97 84l3 2v2H83c-1.2-3.7-1-7.2-1-11v-2.4-5-7.7-5-2.3c0-5.4 0-5.4 1-6.5l5.4-.6 3-.3c2-.1 3.8-.2 5.7-.2z" fill="#f9f9f9"/><path d="M135 110v9 2.6c0 4.6-.2 8.8-1 13.3v7h-3c-1-3.7-1-3.7 0-6-1-5-3-7-7-10v-3h4v2h2v-4l-7 1c-.5 2.3-.5 2.3 0 5l6 5v4h-5l-1-2-1 3-4-1c-5-15.8-5-15.8-4-24 2.2-2.2 7-1.4 10-1.6l2.5-.1c6-.3 6-.3 8.5-.3z" fill="#efeff0"/><path d="M32 72l1.6 1c3 1.2 5.2 1 8.4 1l.8 10.5.2 3c.4 6.7-.3 10.8-4 16.5l-5 1c-2.5 1.5-4.7 3.2-7 5l-1-2 2.4-5.6 1.4-3 1-2.3-1.5 2-2 2.5-2 2.5-1.6 2h-1c.3-8 4.6-11.6 10-17l-4 2 1-7-3 3-1-3 2-4-1-3 5-5z" fill="#39311e"/><path d="M172 170c14 11.3 14 11.3 15.7 17.2.2 3.6-.4 5.5-2.8 8.2-3 1.7-5.4 2.2-9 2.6v-2h-5l-.6-2c-1.7-5.3-3.2-8.4-8.2-11l-4.2-2v-4c3.8-3.3 7-3.3 12-3v-3l2-1z" fill="#f9f9f8"/><path d="M218 81c2 2 2 2 2.2 5.2-.8 14-.8 14-6.2 19.8l-2 1 1-11h-1l-1 13h-2l-2-8-2 6-6-6 3 8a11 11 0 0 1-8-5 85 85 0 0 1-2.7-7.6L188 87a17 17 0 0 1 8.3 4.1l2 1.7L200 94v-3c1-2.6 1.4-3.7 4-5h2l4 4 8-9z" fill="#9c8447"/><path d="M93.8-.1H96h2.6 2.8 3 9.2 6.2H135l-1 5c-7.6-1.7-7.6-1.7-11-4v2l-6-1 1 6c-5.7.1-5.7.1-8-1l1.5 2c1.5 2 1.5 2 1.5 4h-3v2l3 .8 3 1.2 1 3c3 1.2 3 1.2 6 2v2h-21l-1-3h4.4 2.5c2.2.1 2.2.1 4.2 1a72 72 0 0 0-7-8l2-3c-5.4-2.6-10-3.6-16-4V1c1-1 1-1 2.8-1z" fill="#f0efee"/><path d="M97 47c4 1 4 1 5.2 2.6 1 3.4 1 6.6 1 10V62v4.7 7.2 4.6 2.2c0 3-.2 5.5-1.2 8.4H87v-1h13c-1-2.3-1-2.3-4-4l1-14-2 3h-2v2h-9V58h8l-1 3-3-1v4l4 1v3l2-6h3V47z" fill="#84827a"/><path d="M63 179l3 2-5 7 3 1c3 1 3 1 5 2l3-7 4 3h-2l-.8 2-4.3 8.7-1.6 3L66 203l-4-1v3c14.4 7.5 30 12.8 46.3 13.3l3.5.1 3.6.1 3.7.1 9 .3v1c-31 .6-31 .6-43-3l-3.5-1c-11.4-3.7-22-9.4-32-16-2-1.2-2-1.2-5-2.6C41.8 196 41 195 40 192l2.6 2c3.4 2 5.5 2.6 9.4 3l1-1.5 4-7 1.4-2.4 1.4-2.3 1.3-2c1-1.7 1-1.7 2-2.7z" fill="#878787"/><path d="M195 54l1 5h2l2 5h2l1-2.4c1-2.6 1-2.6 2-3.6 2.8-.3 4.4-.4 7 1.2 1 1.8 1 1.8 1 4.4C212 66 212 66 210 68h-5l1 9c3.2-1.6 3.6-4.6 5-7.8 1-2.2 2.2-3.6 4-5.2l3 1-.3 1.8c-.7 4.7-1 7.8 1.3 12.2l1 4h-3c-2.6 3-4.8 5.7-7 9-.7-1.8-.7-1.8-1-4l1.5-1.4L212 85c-.2-3-.2-3-1-6l-2.3.3c-2.7-.3-2.7-.3-4.4-2.4-1.3-3-2-5.6-2.2-9-3.4-1-5.6-1-9 0l-1-1a144 144 0 0 0-6 0l1-5h6l-3-6c3-2 3-2 5-2z" fill="#867849"/><path d="M91 111h9.4 2.7 2.6 2.4c2 .1 2 .1 4 1v4.3 2.4c-.1 2.3-.5 4.2-1 6.4-6.7-1-6.7-1-9-2l1 15h-4v-14l-3 3h-2l-1-2-2 1v-15z" fill="#ededed"/><path d="M45 26h139v31l6 1c1.4 2 1.4 2 2 4l-6-1-1-2-1 22h-1l-1-52h-6v-2l-2.4.2-29.4.7c-4.6 0-9-.1-13.7.5-6.2.8-12.4.7-18.6.6h-3.8-3.6-3.2C99 29 99 29 98 28a86 86 0 0 0-4.7 0c-6.8.1-13.5-.4-20.3-1v2h-2.2l-10-.5-3.5-.2-3.4-.1h-3C48 28 48 28 45 29v-3z" fill="#812839"/><path d="M159 151h2l1 2 5 1 3 1c-.2 2-.2 2-1 4-2 1-2 1-4 2-2.3 2.8-2.3 2.8-2 5.6.6 2.6.6 2.6 3 3.8l2 .7-1 2h-6v-5l-6 2v-8c-3.6 2-5.6 3.7-8 7l-3 1-4.5 5.4c-2.4 3-4.2 5.4-7.5 7.6h-3l-3 6h-8a57 57 0 0 1 9.1-7.7c11-7.8 21.5-17.5 30-28l2-2.3z" fill="#f6f6f5"/><path d="M13 151c7 .4 12 2.2 17 7 1.4 3 1.4 3 1 6l-2.4 2.4c-2.7 2.8-3 3-3 6.8.2 3.7.2 3.7 1.6 6 3 1.5 5.6 1.2 9 1l2-1c1.4 4.5.5 7.6-1 12l-9-4 1-4c-1.2-1.7-1.2-1.7-3-3.2-3-3.2-3-3.2-3.3-5.8l.2-2v-4l-4.4-3.8c-2.5-2-4-4.5-5.6-7.2l-1.7-3-1.2-2c1-1 1-1 3-1z" fill="#312c25"/><path d="M142 137l1 3 3.8.2c2.2.3 2.2.3 4.2.8 2 2.6 2 2.6 3 5l3-2v2h3v-2h3c-6.6 18.8-29.2 34.4-45 45l3 2h-14c3-3 3-3 5.6-3.3 7.8-1.6 14.2-8 20.2-13 2.2-1.6 2.2-1.6 5.2-2.6v-2l4.5-3.6c3-2.7 4.5-5 4.7-9.2l-.2-2.2 3 1 1-5c-4 .6-4 .6-7 3v-6l6-1-1-4c-3.6-1-3.6-1-7 0v-6z" fill="#962333"/><path d="M104 195c4 2.6 4.4 5.7 5.6 10l2.4 8 2 1-1 5a87 87 0 0 1-22-2l3-1-3-2 3-9c3 1 3 1 4.2 2.8l1 2.2 1 2.2.8 1.7-1.7-6.5c-.2-2.5-.2-2.5 1-4.4l1.7-2 2-6z" fill="#eee"/><path d="M64 144c2 2 2 2 3.6 4.8 3.6 5.2 7.4 9.8 11.8 14.4 3.5 3.7 3.5 3.7 4.6 6-3.6-.3-4.7-.7-7.2-3.5L75 163l-2-1-1 8-5-1v4h-7v-3l4-1c.6-2.8.6-2.8 0-6-1.7-1.5-3.5-2.7-5.5-3.8L57 158v-3l5-2a100 100 0 0 0 0-5c-1-1.3-1-1.3-3.4-1-2.6 0-2.6 0-4.6 1v-3c3.4-.8 6.5-1.4 10-1z" fill="#f7f7f6"/><path d="M164 48h6v7l6 1v2l-6 1 1 19 5 1v3h-6v4 4c-1 1-1 1-3 1h-2.4-2.6-2.7-2.7-6.7v-2l17-1v-3l-3-1V48z" fill="#a38a53"/><path d="M136 112l3 1v15.7 5.3 7.7 2.4c0 5.6 0 5.6-1 8h-11.4-3.3-3-3c-2.3-.1-2.3-.1-4.3-1l-2 1h-5-3-3-3.2H89l1-3 22 1v-18h1v17l8.8-.4 2.5-.1 2.4-.1 2.2-.1c2.4-.2 2.4-.2 6-1.2l1-35z" fill="#141517"/><path d="M65 47l7 .4 4 .2C79 48 79 48 80 49c.1 2 .1 4 .1 5.8v3.5V62v3.7V75l-1-2-3 1c-1.5-4-.4-6.4 1-10.2l1.2-3.3 1-2.5h-3v3.3c0 3-.2 5-1 7.8h-2c-1.8-3.8-2.2-6.8-2-11l-6 2V47z" fill="#f9f8f8"/><path d="M112 9h20l1 2-7 1 10 2-2.4 2.3c-2.7 2.5-2.7 2.5-3.6 5.7l1 3h-28v-1h20v-2l-2.8-.8c-3-1-4-2-6.2-4.2-2-1.2-2-1.2-4-2v-2h3l-1-4z" fill="#7f745a"/><path d="M38 34c2 1 2 1 3.3 3 1 4 1 6.8.8 11-2 2.4-2 2.4-4 4l-1 2h-4l-2 4c-3.8-3.4-5.7-6-7-11l-1-3h7l.8-2 1-2.5 1-2.5c1.4-2.6 2-3 5-3z" fill="#30200f"/><path d="M84 169l3.4 2.5 2.2 1.6 4.8 4a49 49 0 0 0 17.6 10l-1 3c-6.2 1-11 .7-17-1l.6-2.4.4-2.6-2-2v4h-3l-5-9 1 7c-3-.8-3-.8-6-2l-1-3h2l1-8h2v-2z" fill="#352b2a"/><path d="M10 130l9 1v3l2 2 .6 7.6.1 2 .3 5.2c-8.4.1-8.4.1-12-2.3-4-4.3-4.8-8-5-13.7 3 .6 5.4 1.6 8 3l-3-8z" fill="#453116"/><path d="M130 47l15 1v15l-2 1-2-5h-7v14l-4 1V47z" fill="#f9f9f9"/><path d="M135 0l8.8-.2 2.5-.1c4.7-.1 7 0 10.8 3.3l3-1c.3 2.8.3 2.8 0 6-2.5 2.4-2.5 2.4-5 4l-2-4-5 1-1 4c-4.5-.5-6.6-2-9.8-5l-2.4-2.2L133 4l2-4z" fill="#f8f5f5"/><path d="M29 123c2 .8 2 .8 4 2l1 3 2.3-2.5C39 123 39 123 42 123c.6 12.7.6 12.7-3 18l-2-2-1 6a18 18 0 0 1-9-9c.2-3 .2-3 1-6l1-7z" fill="#856d41"/><path d="M144 171c2 2 2 2 2 5v3h2c-.1 2.3-.1 2.3-1 5-2.7 1.5-2.7 1.5-6.3 2.7l-2 .6c-15.4 5-15.4 5-21.8 1.7h9l.3-2.3c.8-2.7.8-2.7 2.6-4.5 2-1.2 2-1.2 5-1.2l4-4.4c3.8-4.5 3.8-4.5 6-5.6z" fill="#7e6f44"/><path d="M55 160.8c3 .2 3 .2 6 2.2v3l-4 2.5c-3.6 2.8-6.2 6.6-9 10.3l-2 2.3h-2c-2 3.5-3 7-4 11h-1c-.3-4.6.1-6.5 3-10v-3h-4c1.7-4.2 4.6-7.3 7.6-10.7l1.5-1.8c4.7-5.5 4.7-5.5 7.8-5.7z" fill="#6b6b6d"/><path d="M184 58l2 1v2l3 1-2 1v3h2.3c2.8.1 4.3.7 6.8 2l1-2 1 4-10-2-1 3 1 2h-3v19l3-1 1-3c4.4 10.4 4.4 10.4 5 16-2.3-2.3-2.5-3.5-3-6.6l-.5-2.5-.4-2h-6l1 3c-.3 2-.3 2-1 4l-.7 2.5-.8 2.6-.8 2.7c-3.6 11.4-8 25-15.7 34h-3l1.6-2.7a145 145 0 0 0 14.7-32.8l.8-2.6c3-10.8 3.2-22 3.5-33l.1-3.8.3-9z" fill="#25120f"/><path d="M48 63l7 1v10l-4-1v4.8 2.7c0 2.6 0 2.6 1 5.5h2l-1 5h-7c-1.2-5.5-1-10.8-1-16.4v-2.8V65h3v-2z" fill="#a51c30"/><path d="M172.4 161c6.2 1.6 9.5 6.8 13.4 11.6l2.4 3c1.8 2.4 1.8 2.4 1.8 4.4l2 1h-3l-1-3-3 1 2 6a92 92 0 0 1-12.4-12.2c-2.7-3-4.8-5.2-8.6-6.8v-3c3-2 3-2 6.4-2z" fill="#2c2c2d"/><path d="M90 6c-1 3-1 3-4 5l2 1-4 3 5 1v1l-11 2 3.4 1.4L87 23v2H76v-3l-1 3h-8l-1-1a100 100 0 0 0-5 0c3.2-4 6.2-5.6 11-7.4 5.4-2 7.6-4 11-8.6 2.5-1.3 4.2-2 7-2z" fill="#9a8e6b"/><path d="M84 112l3 1-1 40h23v2a30 30 0 0 1-8.7 1.1h-2.7-2.8H92h-2.7H87c-2-.1-2-.1-3-1l-1-7-5-1v-3l6-1v-20h-6v-3l6-1v-7z" fill="#8a774e"/><path d="M21 96l2 2 2-1-1 8 7-9c0 3.3-.7 5.2-2 8.2l-1 2.7-1 2 7-6v2l2 1-1 1 2 1.2c2 1.8 2 1.8 2.4 4.3C39 115 39 115 38 117c-3 1.8-5.6.8-9 .1l-1-5-3-1-1 3v-5l-2 3-1-4-1 5h-2c.5-6 1.2-11.4 3-17z" fill="#241912"/><path d="M68 46l-3 1v8h-1l-2-6-1 38h-1l-1-38-2 6-5 1v3h6v20l-5 1v2l5 1v8h20l-1 2h-9.4-2.7-2.6H60c-2-.1-2-.1-3-1l-1-7-5-1v-6l5-1V61l-6-2v-4l3-.6c3.5-1.2 3.5-1.2 4.5-5L58 46c3.7-1 6.3-1 10 0z" fill="#39140c"/><path d="M91 3v4h1.7c6-.2 10 .8 15.3 3l-3 5-2-.5a45 45 0 0 0-8.7-.6h-3H89l4 2-5 3 5 1c-2.6 1.4-5 2.6-8 3l-3-2h-4v-2l6-2-3-2 6-3-3-1 2.4-1.4C89 8.3 89 8.3 90 6l-1.8 1C86 8 86 8 83 7c5.8-4 5.8-4 8-4z" fill="#756642"/><path d="M139 111h3l1 7 5 2v2l-5 1-1 20h5l1 3-4 1-2 8h-26v-2l23-1v-41z" fill="#968556"/><path d="M20 107l3 2 2-1v3l4 1c.8 1.7.8 1.7 1 4l-2.4 2.2c-3.2 3.4-3.2 5.2-3.4 9.7-.2 2.6-1 4.8-2.2 7.2-2-1-2-1-2.7-2.7l-.7-2c-1.2-3.5-2.4-5-5.6-7v-2l5 1-1-11 1 2h2v-6z" fill="#948653"/><path d="M104 46l-2 1-1 3v-2h-2v5h-1v-6l-15 2-1 36h13v1H83l1 4-2.2-1.4C77 86 71.3 86.3 66 86v-1h14l-1-36-10-1v-1l13-1 3.7-.3c6.3-.5 12-.7 18.3.4z" fill="#4c4446"/><path d="M188 149l2 1v3h2l1-4 2 1v7l3-6c1 3 1 3 1 6l1.8-1.5c2.2-1.5 2.2-1.5 5.2-1.5-.5 4.2-3 6.2-6 9h2l1-3 4-4 2-2.2c2-1.8 2-1.8 5-2.8v3h-2l-.4 2.3c-.6 2.7-.6 2.7-2.6 5.7-2 .7-2 .7-4 1l2 1c-2 2-2 2-4.7 2-4.6-1.4-7-4-10.2-7.6l-1.8-2-4.3-4.6 2-1v-2z" fill="#988a52"/><path d="M49 130l1 2 2.8-.4c3.2.4 3.2.4 5.4 3L60 138l1.8 3.4L63 144l-9 1v7l-5-2v-20z" fill="#f7faf9"/><path d="M62 48c4.8 4.8 3.4 13.6 3.7 20l.3 6.3v4l.2 3.7c-.3 3-.3 3-3.3 6h14v1H60c.1-5.7.2-11.4.4-17l.1-5.8a3094 3094 0 0 1 .2-8.3v-2.6c.2-6 .2-6 1.3-7.2z" fill="#919091"/><path d="M33 54h2v2h2l-1 2.4c-1 2.3-1 2.3-1 3.6l7 1v4h-2.7A38 38 0 0 0 31 68l3 1v2l-5 3-2 2h-3l-1-12h2l2 2 3-8h2l1-4z" fill="#8e794b"/><path d="M123 48l3 1v39l17 1v2h-20l-1-8-5-1 1-3 4-1 1-19-6-1v-2l6-1v-7z" fill="#958562"/><path d="M123 1a37 37 0 0 1 8 4l-3 1 1.6.7c7.3 3.4 7.3 3.4 9.4 7.3v2l-4.5 3-2.5 1.6-2 1.2v-3l-6-1v-1l10-2v-1l-9-1 1-2 6-1h-21l-1-3 8 1-1-6 6 1V1z" fill="#4f4328"/><path d="M159 184.5c4 .7 5.5 2.4 8 5.5l1 1c.4 5.8.4 5.8 0 8-3 2-3 2-5.4 2-3.7-1.4-4.5-3.6-6.4-7l-1.8-3.3-1.4-2.6c2-2.3 2.7-3 6-3.5z" fill="#f4f4f4"/><path d="M201 140h1l-.4 6-.2 3.3c-.3 2.8-.3 2.8-1.3 4.8 3.2-1.8 3.2-1.8 5-5l1 2c2.5-1.2 2.5-1.2 5-3 1-2.6 1-2.6 1-5l1 2 2 1-2 3 2-1 4-2-1 4 3 1v2l-9 5v-4h2l-1-2-2.2 2.3-5.6 5c-2.3 1.6-2.3 1.6-3.2 3.8h-2c1.4-3.2 2-4 5-6l1-3a76 76 0 0 0-9 5l1-7-2 2a24 24 0 0 1 4-10l1-4z" fill="#453a26"/><path d="M117 58l6 1v19l-5 2-1 2h2.4c2.6.1 2.6.1 3.6 1v8h20v1c-5 .8-9.8 1-15 1l-1 2-6-1-1-10-5-1c-1-3-1-3-.4-5 1.4-2 1.4-2 6.4-3V61h-5l1-3z" fill="#5b1a19"/><path d="M41 130l1.8.6c2.6.7 2.6.7 6.3-.6v20l3 1-1 2-1-1c-2.8-.4-2.8-.4-6 0-2.5 2-2.5 2-4.6 4.4-2.6 3-4.7 5-8.4 6.6l1-3h2v-3a88 88 0 0 1 5-3c2.4-2 3-3 4-6h-2c1.6-7.6 1.6-7.6 5-11l-2 13 3-1 1-17c-5 1.4-5 1.4-6.2 4.8L41 140l-1 3c-1 3.3-1.5 6.6-2 10h-2l-2-9h1l2-9 2 3c1.3-3 2-4.8 2-8z" fill="#1e110c"/><path d="M58.4 145.8c2.6.2 2.6.2 4.6 2.2.3 2.5.3 2.5 0 5l-2 2h-4c1.3 4 3.5 4.8 7 7 1 1 1 1 1 4v3l-5 1-1 4c-.6-2-.6-2-1-4l2-2h4c-1-3-1.7-4.7-4-6.7-4-1.6-7.4-1.7-11.6-1.7L46 159c-1.3-2-1.3-2-2-4l2-1 1 3h3l2-5h2l.4-2.4c.8-3.5.8-3.5 4-3.7z" fill="#2f2f30"/><path d="M211 132l2 1 1 7h6c.3 2.8.3 2.8 0 6-2.3 2.4-2.3 2.4-5 4l-3-1 2-3-1-1-1.2 2.4c-2 3-3.4 3.4-6.8 4.6l.4-2.4.6-3.2.6-3.2c.5-3 .5-3 .4-6V135c2-1.8 2-1.8 4-3z" fill="#9d8549"/><path d="M59 48h1l1 41 17 1v1H58v-8h-5v-4h5V59h-6v-3l2.4-.6c3-1.2 3-1.2 4-4.5l.7-3z" fill="#9a875d"/><path d="M215 64l3 1-.3 1.8c-.7 4.7-1 7.8 1.3 12.2l1 4h-3c-2.6 3-4.8 5.7-7 9-.7-1.8-.7-1.8-1-4l1.5-1.4L212 85c-.2-3-.2-3-1-6l-2.4.2-2.6-.2-2-3 1-3 1 4c3.2-1.6 3.6-4.6 5-7.8 1-2.2 2.2-3.6 4-5.2z" fill="#483e28"/><path d="M27 117l2 1-1.4 1.7A15 15 0 0 0 25 127h2v5l-2-1c-1.8 4.5-2.2 8-1.8 12.7l.2 3.4c.6 3 1 4 3.6 6l-.5-2c-.7-4-.6-8-.5-12h1l1.4 6c.5 2.2.5 2.2 2.6 4l-1 3a24 24 0 0 0 1 7l-1.8-1.3A30 30 0 0 0 11 152v2l-4-1 1-1.7c1-2.6 1-3.6-.1-6.2l1.7 2c2.8 2.4 3.7 2.2 7.3 2l5 2-1-5.2-.5-3-.5-3-.4-2.7c-.5-2.6-.5-2.6-2.6-5.3l3-1 1 3c1.7-3 2.2-5.2 2.4-8.5.3-3.7 1-5.8 3.6-8.5z" fill="#28160a"/><path d="M24 81h1l1 4.3.6 2.4c.8 4 .7 6-1.6 9.6l-2 2.8-2-2-2 11h-2a30 30 0 0 1 3-23c2.2-3 2.2-3 4-5z" fill="#a28a44"/><path d="M176 76h4v4h2c5.3 10.8-1.6 27-5.2 37.8A71 71 0 0 1 171 130c-1.2-3.6-.7-4.3.8-7.6L177 108l1-3v-6c0-2.4.5-4.6 1-7v-7l-3 2 .3-2 .3-2.5.3-2.5c.3-2.2.3-2.2-1-4.2z" fill="#9c1c35"/><path d="M199 111h4l1 6 2.4-1.5c2.6-1.5 2.6-1.5 3.6-1.5v8l4-1v3l-1.8 1.3c-3 2.5-3.8 5-5.2 8.8-3-1.6-3.7-3.8-5-7l.6-3 .4-3a283 283 0 0 0-5-5c.2-2.8.2-2.8 1-5z" fill="#8b7a51"/><path d="M39 87l-2.2 6.4-1.5 5C33.7 104 32 106.6 27 110l-1-2 2.4-5.6 1.4-3 1-2.3-1.5 2-2 2.5-2 2.5-1.6 2h-1c.3-6.4 2.3-9.6 7-14 6-5 6-5 9-5z" fill="#a28a4c"/><path d="M147 189c2.3.1 2.3.1 5 1 2 2.3 2 2.3 3.8 5.2l1.8 3c1.5 3.3 1.6 5.4 1.4 9-3.6-.3-6.6-.8-10-2.3-3.4-4.3-3.2-9.3-3-14.7l1-1z" fill="#f5f5f6"/><path d="M169 145.8c3 .2 3 .2 4 1.2v6h2v-2l3 1-1 4 4 3h-2.2l-3 .2-3 .2c-3 .4-5.2 1-8 2.4-1 3-1 3-1 6h3v2l-4-1c-.8-2.2-.8-2.2-1-5 2.2-2.6 4-4.5 7-6l1-3-5-1c-.6-3-.6-3-1-6 2-2 2-2 5-2.2z" fill="#2d2b26"/><path d="M172 64h1v12l4 1c1 1 1 1 1.2 3.8-.2 3.2-.8 5.4-2.2 8.3h-2v4l-7 3v-3h-3.2-4l-2 .1c-3.8 0-5.4 0-8.6-2.2l20-1 1-8h6v-4h-4V64z" fill="#631821"/><path d="M84 58h8l-1 3-3-1v4l4 1v3l2-6h3c.3 7.6.3 7.6-2 11h-2v2h-9V58z" fill="#eff0f0"/><path d="M160 144h3c-6.6 18.8-29.2 34.4-45 45l3 2h-14c3-3 3-3 5.6-3.3 7.8-1.6 14.2-8 20.2-13 2.2-1.6 2.2-1.6 5.2-2.6v-2l4.3-3.5c2.4-2 4.3-4.4 6.3-6.8 2-2.4 4.2-4.5 6.4-6.7 2.6-3 4.4-5 5-9z" fill="#200d11"/><path d="M63 174c5.3 1.5 9.5 4 14 7l-2 2-3-1-.3 3.3c-.7 3.5-1 4.6-3.7 6.7l-7-4c1-3 1.8-4.8 4-7l-4-2 1-3h1v-2z" fill="#efeeed"/><path d="M94 194c7 1 7 1 9 3a15 15 0 0 1-2.2 7.9c-1.3 3.6.7 6.8 2.3 10-1.8-.6-1.8-.6-4-2l-3-7-2-1-1 8h-3l4-19z" fill="#1c1c1d"/><path d="M108 104l8 1-1 3h7 4c3 .1 3 .1 5.3-1a30 30 0 0 1 14 2v7h-1l-1-5a96 96 0 0 0-20.6-.5A200 200 0 0 1 94 110c3.8-2 3.8-2 6-2v-2l3.4-.4c3.4-.2 3.4-.2 4.6-1.6z" fill="#9f1b2d"/><path d="M126 40l1 2h3v-2l2 1v2l17.8 1h3l6.2-.1h3 2.6c3 .4 4.2 1.4 6.4 3.3h-6v-2l-3 1h-7.4-2.2-7-9-2c-3.7-.1-3.7-.1-7.2 1-1.7-.3-3.3-.6-5-1v7l-6 2v-5h4v-2h-2v-2l3.4-1.3L125 43l1-3z" fill="#91253b"/><path d="M84 190c.8 2.8 1 5.2 1 8l-.1 2.3-.2 2.4-.2 2.4-.4 5.8-3-1v-5l-9 2c0-3.5.4-4 2.6-6.4l1.6-2 1.7-2 1.7-2c1.4-1.6 2.8-3.2 4.3-4.8z" fill="#aeaeaf"/><path d="M10 65l5 1v3l-3-2 1 2-.2 6.3c-.2 4.5-.2 4.5 1.4 8.7 1.5 1.5 1.5 1.5 4 3l3-6 3 1-1.2 2-1.6 2.7-1.6 2.7L16 96l-.2-3.7c-.5-4-1.6-5.6-4.7-8.2v-2H9l1 19-2-2-5-1 1 3-3-1 2-4h5V79h2V65z" fill="#33230e"/><path d="M113 112h1l.3 2.7A72 72 0 0 0 120 138h-4l-1-4-1 15h-1v-17h-3v6l-4-1 1.4-3.5c1.5-4 2.6-8.2 3.6-12.5h2v-9z" fill="#323233"/><path d="M219 89h1v7l2.4-.2 2.6.2 2 3-1.7 2c-2.3 2.8-2.3 2.8-4.2 6-2 3-3.7 4.4-7 6l-2-1a9 9 0 0 1 3-6 48 48 0 0 0 4-17z" fill="#524326"/><path d="M9 82h2v2l3 1c2.7 4 2.2 6.2 2 11l-1 2v7c-2.6-1-3.8-1.6-5-4a35 35 0 0 1-1-11.2v-2.2V82z" fill="#a98d4d"/><path d="M13 151c5.8.5 9.4 1.3 14 5l-2 4-4-3 1 1 4 4-1 3c-3.2-.3-4.6-.6-7-3l-1.7-2.4c-2-2.8-4-5.3-6.4-7.6 1-1 1-1 3-1z" fill="#a18a4a"/><path d="M72 164c1.8.1 1.8.1 4 1 2.7 3.2 4 5.2 4.3 9.4L80 177l-2-1v4l-5-2-1-3-2 1-2-1c-.7-2.3-1.4-4.6-2-7l5 1 1-5z" fill="#9f874e"/><path d="M201 127h2l3 6 1.3-1.5c1.7-1.5 1.7-1.5 4.7-1.5l5-1c-.5 3-1 6-2 9l2.4-1.5c2.6-1.5 2.6-1.5 4.6-1.5l-1 9-1-4h-6l-1 2v-2.8c.1-3.3.1-3.3-2-6.2l-3 2c-.5 2.3-.5 2.3-.6 5-.2 3.6-.6 6-2.4 9l-.2-3.2-.3-4-.1-2a32 32 0 0 0-1.4-8.6l-2-1v-3z" fill="#4e4424"/><path d="M43 87h1l.6 3.5c3 16 7.6 35.7 18 48.6l1.3 2-1 3c-7.8-10.3-13-22.5-17-34.7l-.6-2c-1-3.5-1.6-6.6-1.4-10.3l-2-1 1-3-3-1h3v-5z" fill="#291216"/><path d="M112 9h20l1 2-7 1 10 2c-4 3-5.2 3.5-9.8 3.4-6-1-10-4-14.2-8.4z" fill="#a18a4d"/><path d="M136 112l3 1v37l-3-2c-.3-2.8-.3-5.3-.3-8v-2.4l.1-7.6v-5.2V112z" fill="#e2e1e1"/><path d="M88 112h2l.2 15.3v5.2l.1 7.5v2.4L90 148l-3 2v-15.3-5.2-7.5-2.4c0-5.5 0-5.5 1-7.7z" fill="#c8c8ca"/><path d="M102 48h2v7h5l1 3h-5v21h5v3l-5 1-1 8h-2V48z" fill="#9f8b5c"/><path d="M43 60v26h-1V74l-2.7.6c-3.5.4-4.4.1-7.2-1.6h-3l2-2h3v-2l-4 1 2-4v2l1.6-1c3-1.2 5.2-.7 8.4.1v-4l-5-1v-1l6-1z" fill="#20130f"/><path d="M152.2 161.3l1.8.7c-4.4 4.7-4.4 4.7-7.4 6.3a28 28 0 0 0-7.2 7.2c-2.4 3-4 5.3-7.4 7.4h-3l-3 6h-8a57 57 0 0 1 9.1-7.7c7.8-5.6 15-12 21.3-19.2 1.6-1 1.6-1 3.8-.8z" fill="#dcd8d5"/><path d="M164 48h2c1.6 3 1 6.4 1 10v2.3 7.4 5V85l-3-1V48z" fill="#e5e2e5"/><path d="M133 58h8c2 2 2 2 2 4.6V65l-3 1 3 8-3-1-2-5h-2l1 6h-3l-1-16z" fill="#1c1c1d"/><path d="M197 67h6l.4 2 .5 2.5.5 2.5c.5 2.2.5 2.2 1.5 4.2h5c1 3.3 1 3.3 2 7l-2 3h-2l-1.2-3.4c-1.4-3.3-2.4-4-5.7-5.6l-4-6c-1.3-1.4-2.6-2.7-4-4l3-1v-1z" fill="#97864d"/><path d="M39 123h3c.6 12.7.6 12.7-3 18l-2-2-1 6c-3-2.4-3-2.4-3.2-5 .7-5.7 2-12.8 6.2-17z" fill="#7a6734"/><path d="M112 0h23l-1 5c-7.6-1.7-7.6-1.7-11-4v2l-6-1 1 6c-2.8.3-2.8.3-6 0-2-2.5-2-2.5-3-5l3-1V0z" fill="#f4f5f2"/><path d="M12 67c3.8 0 7.3.4 11 1 .2 3.4.2 3.4 0 7-3 2-3 2-6 2l-3 6-2-1V67z" fill="#978551"/><path d="M64 144h2l4.3 5.6C76 157.3 81.6 163.8 89 170l3.8 3.3c2 1.8 4 3.2 6.2 4.7v2l2 1c2 1 2 1 3 3-8.4-4-15.2-10.7-22-17l-2-2a116 116 0 0 1-11.4-13l-1.4-1.7c-3-4-3-4-3-6.4z" fill="#241316"/><path d="M112 152l3 1v4l12.8-.4 3.7-.1 3.5-.1 3.3-.1c2.8-.1 2.8-.1 5.7-1.2v2c-3.8 2.5-6.7 2.3-11 2.2h-2.4-5-7.7-5-2.3L96 158v-1h15l1-5z" fill="#7e2d3b"/><path d="M68 43v1h11.4 3.2c6.2 0 12.2-.3 18.3-1v2l3 1h-1.8l-8.3.4-3 .1L70 48c-3 0-4.3-.6-7-2-2.7.3-2.7.3-5 1l-1 6h-1l-1-8c4.5-1.8 8.2-2.2 13-2z" fill="#81283a"/><path d="M171.8 162.6c4.3.6 5.4 2 8.2 5.4 1.7 2.3 3.4 4.6 5 7l-2 4-2-2-1.4-1.4c-1-1-2.2-2.3-3.3-3.4l-1.8-2-1.7-1.8c-1.8-1.6-3.5-2.6-5.7-3.6 2-2 2-2 4.8-2.4z" fill="#eeeeef"/><path d="M81 8l2 1c-4.4 6.5-8.8 8.5-16.2 11-3 1-3 1-4.8 3l3 2h-6l-1-2 3-2-.6-3.4L60 14c2-2 2-2 4.6-2H67l1 5c5.6-2 9.7-3.8 13-9z" fill="#3d3726"/><path d="M68 46l-3 1v8h-1l-2-6-1 38h-1l-1-38-2 6-5 1-1 3-1-4 3-.6c3.5-1.2 3.5-1.2 4.5-5L58 46c3.7-1 6.3-1 10 0z" fill="#250a07"/><path d="M90 6c-1 3-1 3-4 5l2 1-4 3 5 1v1c-5.2 1.5-9.5 2-15 2-1.7.3-3.3.6-5 1v-2l1.8-.7c4-1.6 7.3-3 10-6.5 2.6-3.4 5-5 9.3-5z" fill="#a08a51"/><path d="M132 5c4.7.3 7 2.5 10.4 5.6 1.7 1.6 1.7 1.6 4.6 2.4l1-5c2.4-.6 2.4-.6 5-1l2 2v2.8c.1 3.6 1 5.3 3 8.2-4-1.7-4-1.7-5-4l-3.2-.4A31 31 0 0 1 132 5z" fill="#372a21"/><path d="M82 171h3c4 4.5 7 9 8 15h-3l-5-9 1 7c-3-.8-3-.8-6-2l-1-3h2l1-8z" fill="#856f4e"/><path d="M83 124h1v19l-6 1v3h2.4c2.6.1 2.6.1 3.6 1l1 7h24v-2h2v4H83l-1-8-6-2 1-5h6v-18z" fill="#2c0a06"/><path d="M223 117c1 1 1 1 1.2 4-.2 3-.2 3-2.2 5-2 .1-2 .1-4.4-.1-4-.1-4-.1-7.2 2l-1.4 2c.4-2.8.8-3.8 3-5.7 2-1.2 2-1.2 4-1.2v-4l-2-1c3.3-2 5.2-2 9-1z" fill="#251d18"/><path d="M167 50h1v16.2 5.5 8V82v6c-1.5 1.5-3 1.2-5.3 1.3l-2.6.1-2.7.1-2.7.1-6.7.3v-2l17-1a92 92 0 0 0-11.3-1.6l-3.2-.3-2.4-.2v-1h15l1-3 1 3 2 1V50z" fill="#231e1d"/><path d="M207.4 57.8c2.6.3 2.6.3 4.5 1.4 1 1.8 1 1.8 1 4.4C212 66 212 66 210 68a90 90 0 0 1-6 1l1-5-5 2v-2h2l1-2.4c1.5-3.5 1.5-3.5 4.4-3.8z" fill="#2e2420"/><path d="M3 98c2.4-.2 2.4-.2 5 0 2 3 2 3 2 7l3 1v2l3 1v3c-1.7.8-1.7.8-4 1-4.5-3.5-7-7.8-9-13v-2z" fill="#9b8a51"/><path d="M186 74l6 1v11l-5-1 2 7h-4l1-18z" fill="#f2f3ef"/><path d="M186 32l3 2h3l3 7h2l-1 11h-3l-.7-3.7c-.7-3-1.3-4.4-3.3-7-2.5-3-2.6-5.6-3-9.4z" fill="#9c835c"/><path d="M18 114h5v15c-5.4-1-6.6-2-10-6v-2l5 1v-8z" fill="#a78d51"/><path d="M94 108l-1 3-2-.6-2-.4-2 2h-3v7l-6 1v3l4 1-7-1c-.4-4.5-.4-4.5 1.3-6.8C78 115 78 115 82 115v-5c4.2-1.6 7.5-2.2 12-2z" fill="#752932"/><path d="M106 196h4l.6 2.6.8 3.3.8 3.3c.5 2.6.5 2.6 1.8 3.7 2.6-6.3 2.6-6.3 3-13h5l-9 20c-1.7-2.6-2.5-4-3.3-7l-.7-2.3-.7-2.4-.7-2.4c-.6-2-1-4-1.7-6z" fill="#1c1c1e"/><path d="M180 131c6 5 6 5 7 7.8v2.2l-2 1-1-1v9h-4v-19z" fill="#9d8a53"/><path d="M211 93h3l-1 13 3-2-4 8 2 1h-2l-1 7 5-1v4h-2v-2l-4 1v-10l-2 1v-7l1 3h2V93z" fill="#322108"/><path d="M42 74l1 18h-4l2-7-5 1V75l6-1z" fill="#ebe8e8"/><path d="M89 109l3 1v37a13 13 0 0 0 6.1 1.3l2.4.1 2.6.1 2.6.1c2 .1 4.2.2 6.3.3v1h-2-9l-3-.1h-3-2.8c-2.4 0-2.4 0-4.2 2.2l.5-1.8c.8-3.5.8-7 .8-10.5l.1-2.4.2-7.6.1-5L90 112h-2v2l-2-1 3-4z" fill="#130f11"/><path d="M136 193h3l3 8 2.2-.2c3.3.2 4.5 1 7 3.2l2 1.7 1.6 1.3c-3 1-3 1-5.3 0l-2.4-1.4-2.4-1.4-2-1c1.3 4.4 1.3 4.4 4 8l-5 1-.6-2-5.4-17z" fill="#1f1f21"/><path d="M154 162l1 3-1 1v6.6 3.6 2.8l-5 2 1-8-2 4h-1c-.6-5.2.7-7.7 3.7-11.7l1.3-1.3h2v-2z" fill="#9b8b4f"/><path d="M143 141l7 2v4l-6 1 .2 3.4-.2 3.6c-7.2 4.8-19.6 1.8-28 1v-1h26l1-8 5-1-1-2c-2-.7-2-.7-4-1v-2z" fill="#432210"/><path d="M5 135l1 2 4 1 2.2.5 1.7.4-.2 6c.1 2.4.1 2.4 2.2 5-3.7-.2-5-1-7.7-3.6-2.8-3.6-3-7-3.2-11.4z" fill="#9a8b54"/><path d="M40 35c.7 1.8.7 1.8 1 4-1.3 1.5-1.3 1.5-3 3-2 3.2-2.5 6.3-3 10h-3v-4.2l-.1-2.4c.2-2.6 1-4 2.2-6.4v-4c2.5-1.2 3.4-.8 6 0z" fill="#9c8a47"/><path d="M22 45c3.3 2 4 2.8 5 6.5l1 3.5a10 10 0 0 0 3 3l-3 6c-2-.6-2-.6-4-2-1.2-5-1-9 0-14h-2v-3z" fill="#f3f2f0"/><path d="M145 16l1 2c2.6 3 5.2 3.3 9 4v3h-13l-2-4 4-1v-2l-3-1 4-1z" fill="#5b5449"/><path d="M130 181l3 1 2-1-1 6 6-1a31 31 0 0 1-20.3 4.7l-2.7-.7v-1h9l.3-2.3c.7-3 1.5-3.8 3.7-5.7z" fill="#302d23"/><path d="M138 163l5 2v-2h2l-1 3h-2l-2 4h-2v2c-2 1.8-4.3 3.5-6.5 5l-2 1.4-4.6 3.5v-3l5-4-2-2v-3h2l1 2h3l1-2h2v-3c.1-3 .1-3 1-4z" fill="#8e2538"/><path d="M23 64h2l2 2c2-.3 2-.3 4-1v4h3v2l-5 3-2 2h-3l-1-12z" fill="#9f884f"/><path d="M108 46v6l4 1v8h-5v15l5 1-1 2-5-1V60l5-1-1-4c-3-1-3-1-6 0v-7l-2-1c2-1 2-1 6-1z" fill="#7d3134"/><path d="M63.8 10.3l2.3.8-2 .8c-2.2 1-2.2 1-3 3-.2 2.3.1 4 .8 6-4.6 4-4.6 4-8 4v-8l2-1 1-2c3.3-4 3.3-4 6.8-3.7z" fill="#ecebe7"/><path d="M58.5 145.8c2.5.3 2.5.3 4.5 2.3.3 2.5.3 2.5 0 5-2.4 2.4-3.8 2.5-7 3-2-3.2-2.4-4.3-2-8 2-2 2-2 4.5-2.2z" fill="#22190d"/><path d="M199 131l2 1c-1 4.3-1.6 6.5-4.5 10-3 3.8-3.6 6.4-4.5 11h-2l-.4-2-3.6-15 3 3 2-3 2 7 2-3h2l2-9z" fill="#2a1c0e"/><path d="M197 123h2c1.5 2.6 2 4 2 7l3 1 1 6-3-2-2 1v-4l-1 4-4-1c-1-4-1.2-5.6.4-9.4l1.6-2.6z" fill="#9f8c5b"/><path d="M84 112l3 1-1 24-2-1v-13h-6v-3l6-1v-7z" fill="#a08751"/><path d="M217 64h7l-1 3h-2l.6 3.3c.4 3.7.4 3.7-.6 6.7l-1 4c-2-1-2-1-3-3.7-1.2-4.7-1.3-8.7.1-13.3z" fill="#f6f9f3"/><path d="M184 96l1.8 2.3a78 78 0 0 0 6.3 6.8l3 3-5 1-2-2h-4-2l.4-4.4.2-2.5c.3-2.2.3-2.2 1.3-4.2z" fill="#efeff0"/><path d="M206 80c1.4 2.6 2.4 5 3 8l-7-1-1 9-4-5h2l-1.4-3.3c-1-2.2-1.8-4.4-2.6-6.7h2l3 5 .8-2.4C202 81 202 81 204 80.2l2-.2z" fill="#6a5830"/><path d="M146 192c1 1 1 1 1 2.8v6.2l-5 1c-2-3.7-3-5.7-3-10 2.7-1.3 4.2-.7 7 0z" fill="#e5e5e6"/><path d="M66 58h5l2 11h2l1-11h3l-1.4 5.8L77 67c-.7 2.6-1.6 4.7-3 7h-2l-1-3-1.4-4-.7-2c-1.3-3.6-1.3-3.6-3-7.2z" fill="#1b1b1b"/><path d="M84 58h8l-1 3-3-1v4l4 1-2 2h-2v6l6-1-1 3h-9V58z" fill="#1c1c1d"/><path d="M193 77c6 2 6 2 8 5 .2 2.7.2 2.7 0 5l-4-4 1 1.8c1 2.3 1 2.3 1 6.3-3.2-1.4-4-2-6-5-.2-2.3-.2-2.3-.1-4.7V79v-2z" fill="#9d8850"/><path d="M59 48h1v35h-1V58l-7 1v-3l2.4-.6c3-1.2 3-1.2 4-4.5l.7-3z" fill="#8b734b"/><path d="M213 151l1 3h-2l-.4 2.3c-.6 2.7-.6 2.7-2.6 5.7-2 .7-2 .7-4 1l2 1-2 2c-2.6-.4-2.6-.4-5-1a35 35 0 0 1 7-9l2-2.2c2-1.8 2-1.8 4-2.8z" fill="#a38e49"/><path d="M139.8 18h2.4 1.8v2l-3 1c-.7 2-.7 2-1 4-6.6.1-6.6.1-10-1 .3-2 .3-2 1-4 3-2 5.3-2.2 8.8-2z" fill="#817744"/><path d="M142 112l2 1v5h5l1 4c-3 2-3 2-6 2v16c-2.5-3.7-2.2-5.7-2.2-10V126c.2-3 .2-3 1.2-4h5c-1.4-2.8-3.2-3-6-4v-6z" fill="#442017"/><path d="M142.5 108l2.5 1v7h-1l-1-5a108 108 0 0 0-23.8-.3c-5 .3-9.3.2-14.2-.7v-1h2.2l9.7-.4 3.4-.1 3.3-.1 3-.1c12.8-1 12.8-1 16-.2z" fill="#862e3f"/><path d="M80 63h1v22h14v1H83l1 4-2.2-1.4C77 86 71.3 86.3 66 86v-1h14V63z" fill="#0f1010"/><path d="M47 159c5-.4 9-.5 13.6 1.7 2.7 2.5 3.2 3.7 3.4 7.3l-2.4 1c-2.7 1-2.7 1-4.6 3l-3-2c4.8-4 4.8-4 7-4l-1-3c-2.8-1.4-5-1.2-8-1l-3 2v-4l-2-1z" fill="#ddddde"/><path d="M68 151l16 18c-3.6-.3-4.7-.7-7.2-3.5L75 163l-2-1-1 2v-2l-3-1 .7-1.7c.6-2.4.6-2.4-1-4.5L67 153l1-2z" fill="#e8e8e9"/><path d="M130 121v4h-2v-2h-4c1 3 2 4 4.6 6 2.4 2 2.4 2 3 4.7-.5 2.4-.5 2.4-3.5 4.4l-6-1 1-4 1 3h5c-.2-2.4-.7-3.7-2.4-5.4L122 127l1-5c4.8-1 4.8-1 7-1z" fill="#1e1d20"/><path d="M34 78l1 8c-2.4 3-2.4 3-5 5l-1-5h-3c1.3-4 3-8 8-8z" fill="#9f8d5b"/><path d="M213 125l7 1-.5 3c-.6 3-.6 3-.5 5l3 1c-4.7 3-4.7 3-7 3l1-8-7 2c1-3 1.8-4.8 4-7z" fill="#f4f4f1"/><path d="M23 44h7c1.3 8.4 1.3 8.4 0 13-3.5-3-4.8-5.6-6-10l-1-3z" fill="#534838"/><path d="M63 179l3 2-5 7 3 1c3 1 3 1 4 3l-8-2-4 7-3-2 10-16z" fill="#202021"/><path d="M53 60l4 1v8 2.3V77c-1 1-1 1-3.6 1H51v5h-1c-.1-6.6-.1-6.6 1-10l4 1V61l-2-1z" fill="#7e2433"/><path d="M152 186c2.5 1.3 2.8 2.2 4 4.8l1 2.2 2.4 5 1.6 2c3 .4 3 .4 6 0-2.2 2.5-3.7 3.3-7 4l-2-3-2.5-4-1.2-2c-1.7-2.6-3.2-5-5.4-7.2l3-2z" fill="#222226"/><path d="M170 192l1.3 1.4c1.7 1.8 1.7 1.8 4.7 2.6-.2 1.8-.2 1.8-1 4l-5 3.3-2.7 1.6c-2.4 1-2.4 1-5.4.1l5-5h2l1-8z" fill="#efefef"/><path d="M96 120h10v4l-4-1 1 15h-4v-15l-4 1 1-4z" fill="#050505"/><path d="M193 30l6 2v2.8c.2 4.3 1 6.2 4 9.3l-6 1-1.4-3.4L193 36v-6z" fill="#f0eeec"/><path d="M76 186c0 3 0 3-1 6l3 3h-2v2l-6 2v2l-4 1c1.4-3.6 3-7 5-10.2l1.6-2.6c1.4-2 1.4-2 3.4-3z" fill="#efeff1"/><path d="M198 44h7l-.8 1.5L200 56h-3v-5-2.7c.1-2.4.1-2.4 1-4.4z" fill="#6d633f"/><path d="M165 16l11 6-1 3h-10v-9z" fill="#5b503c"/><path d="M89 14l4 2-5 3 5 1c-2.6 1.4-5 2.6-8 3l-3-2h-4v-2l6-2-3-2c4.6-2 4.6-2 8-1z" fill="#3f2f15"/><path d="M164 183c2.6 2.2 4.5 4 6 7v4 2c-.1 2-.1 2-1 4l-2-1 .3-3.7c0-3.5-.3-4.3-2.3-7.3-4-2.7-6.2-2.4-11-2 2-4 6.2-3.5 10-3z" fill="#292929"/><path d="M201 140h1l-.4 6-.2 3.3c-.3 2.8-.3 2.8-1.3 4.8 3.2-1.8 3.2-1.8 5-5l1 2 3 1-1.6.8A49 49 0 0 0 197 159l1-7-2 2a24 24 0 0 1 4-10l1-4z" fill="#321b0c"/><path d="M13 151c5.8.5 9.4 1.3 14 5l-2 4-2-2c-2-2-2-2-4-3l-2.4.7-2.6.3-4-4c1-1 1-1 3-1z" fill="#98864f"/><path d="M15 140l6 2 1 9c-2.4-.2-2.4-.2-5-1-2.4-3-2.2-6.2-2-10z" fill="#a18144"/><path d="M20 156l5 3 3-3c3 4.4 3 4.4 2.8 7.2C30 165 30 165 28 167c-2.6-.4-2.6-.4-5-1l2-4-2.5-2-2.5-2v-2z" fill="#74602e"/><path d="M182 137l4 4 2-1c2.4 6.3 2.4 6.3 1 10l-5 1-.2-2-.3-2.7-.2-2.7a44 44 0 0 0-1.3-6.6z" fill="#8d834f"/><path d="M133 124c2.6 3.8 1.7 6.6 1 11v7h-3c-1-3.7-1-3.7 0-6l-1-7v-3l3-2z" fill="#f7faf8"/><path d="M75 123h9l-1 19h-6v-2h4v-14l-6-1v-2z" fill="#772a34"/><path d="M21 96l2 2 2-1-.2 2-.3 2.4-.3 2.4C24 106 24 106 24 109l-2 3-1-4-1 5h-2c.5-6 1.2-11.4 3-17z" fill="#3c2c1b"/><path d="M212 60l4 2-1.2 2c-2.5 4.3-4.6 8.7-6.8 13h-2c-1.5-3-1-5.7-1-9l6-2c.7-3 .7-3 1-6z" fill="#f2edee"/><path d="M113 20a80 80 0 0 1 5.1.9l2.8.6 2.2.5v2h-21l-1-3h2.4 3 3c2.4.2 2.4.2 3.5-1z" fill="#f3f3ed"/><path d="M135 0h11v3c-3 2-3 2-6 2l-1 2V5h-5c0-3 0-3 1-5z" fill="#fafbf9"/><path d="M126 195a65 65 0 0 1 6.6 10.6l2 3.5 2.5 5h-4l-.7-3-1.2-3c-2-1-2-1-4-1h2l-2-5-2 1 1-8z" fill="#1c1c1d"/><path d="M144 171c2 2 2 2 2 5v3h2l-1 4-5 1v-7l-3 3c0-4.4 2-5.8 5-9z" fill="#998755"/><path d="M24 77l2 1-2 3h-3l-.3 1.8C20 85.3 19 86.3 17 88l-3-5 3-5 1.8.6c2.5.7 2.5.7 5.2-1.6z" fill="#98864d"/><path d="M186 37c7 6.5 7 6.5 7 12.3V52h3v-8c2 2 2 2 2.3 4.5v3 3C198 57 198 57 196 59l-1-5-5 1v-2h2l-1.3-4.8-.7-2.7c-1-2.6-2-3.6-4-5.5v-3z" fill="#231203"/><path d="M202 133c3 3.3 3.4 5.5 3.4 10v3c-.4 3.4-1.4 5.3-3.4 8h-2l1-6.3.5-3.6c.5-3 .5-3 1.5-6h-3l2-5z" fill="#a69050"/><path d="M199 111h4l1 6 5-3c1.5 3 .5 5.7 0 9l-2-3-1.7.8c-2.3.2-2.3.2-5-2-2.2-3-2.2-3-2-5.7l.8-2.2z" fill="#a38e4f"/><path d="M72 184l4 3h-2l-.8 2-4.3 8.7-1.6 3L66 203l-3-1a55 55 0 0 1 5.1-10.1A35 35 0 0 0 72 184z" fill="#161618"/><path d="M111 126l2 3 2 .4c2 .6 2 .6 3 2.4l.7 2.2.7 2.2.5 1.7h-4l-1-4-1 15h-1l-.2-3.7-.3-4.8-.1-2.4c.2-4 .2-4-1.4-7v-5z" fill="#828284"/><path d="M29 123c2 .8 2 .8 4 2l1 3 3-1-.7 2.2c-2 7.3-2 7.3-2.3 14.8-4.8-3.4-4.8-3.4-5.8-6.2L28 136l3 3c1-2.8 1-4.7 1-7.6V129c.1-2 .1-2-1-3l-2 3v-6z" fill="#342912"/><path d="M168 83h2v7c-1 1-1 1-3 1h-2.4-2.6-2.7-2.7-6.7v-2l17-1 1-5z" fill="#928163"/><path d="M197 67h6l2 11c-4.7-1.2-5.2-2.3-8-6-1-1-2-2-3-3l3-1v-1z" fill="#a29058"/><path d="M42 37h1v22l-3-1 2-7h-2l-1 5h-4v-2h2l.8-2.4L39 49l3-1v-8l-2-1 2-2z" fill="#1b0e0b"/><path d="M112 10l12 6v1h-5l2 4c-3.4-.6-4.7-1.6-7-4-2-1.2-2-1.2-4-2v-2h3l-1-3z" fill="#544b2f"/><path d="M84 190c.8 2.8 1 5.2 1 8l-.1 2.3-.2 2.4-.2 2.4-.4 5.8-3-2v-6l-2-2h3l-.5-2.3C81 196 81 196 81 193l3-3z" fill="#181819"/><path d="M45 137l1 2-1 2v2.3c0 6-1 9.4-5.3 13.8A31 31 0 0 1 31 163l1-3h2v-3a88 88 0 0 1 5-3c2.4-2 3-3 4-6h-2c1.8-7.6 1.8-7.6 4-11z" fill="#392c1d"/><path d="M201 127h2l3 6 3-3 3 2-2 1.2c-2.2 1.6-2.2 1.6-2.6 4l-.1 2.6c-.1 3.6-.6 6-2.4 9l-.2-3.2-.3-4-.1-2a32 32 0 0 0-1.4-8.6l-2-1v-3z" fill="#261b0a"/><path d="M206 103c2 3.2 2.5 5.3 3 9l2-1-2 4h-3l-1 3c-1.6-1-1.6-1-3-3 .3-3.7.3-3.7 1-7l2 1 1-6z" fill="#705f41"/><path d="M83 84h6.3l3.5-.1c3 .2 4.7.6 7.2 2.2v2H83v-4z" fill="#d6dada"/><path d="M183 51h1v6l3 .3c3 .8 3 .8 4.5 2.8l.6 2-6-1-1-2-1 22h-1V51z" fill="#7e4440"/><path d="M126 200c3 3.6 3 3.6 3 7h-2v2h-2v4l2 1-1 2h-4l1-7 .5-4c.6-3.3.6-3.3 2.6-5.3z" fill="#949494"/><path d="M68 154c1.6 1.3 1.6 1.3 3 3-.3 2.2-.3 2.2-1 4l2 1v8l-4-2 .2-2.7c-.2-3.5-.8-4.7-3.2-7.2l3-4z" fill="#faf9fb"/><path d="M22 137l1 3h3l2 15c-5.6-5.6-5.6-5.6-5.8-11.8l-.1-3.5V137z" fill="#96894c"/><path d="M52 84l5 1 1 7 21 1 1 2-3 1-2-1c-1.4-.2-3-.2-4.4-.3l-2.6-.1-2.7-.1-2.7-.1L56 94l-1-8h-3v-2z" fill="#832c3d"/><path d="M152 162h2v2l-2.4 2.2c-3 3.3-3.3 5.4-3.6 9.8l2-5c1.5 3.8.4 6.3-1 10l-1-2h-2c-2-6.6-2-6.6-2-10l1.8-.7c2.8-1.6 4.3-3.8 6.3-6.3z" fill="#2d200c"/><path d="M179 104c1.4 4.5-.1 7.7-1.7 12l-.8 2c-1.6 4-3.4 8-5.4 12-1.2-3.6-.7-4.3.8-7.6l4.5-12.4c.7-2 1.7-4 2.7-6z" fill="#7e2b39"/><path d="M220 101c.8 1.6.8 1.6 1 4-1 2.5-2.3 5-4 7l-3 1-2-1c.5-4.4 3-6.8 6-10l2-1z" fill="#948247"/><path d="M206 96h1l1 10h-1l-1 6-2-3-2 2-2-5-1.2-2.7c-.8-2.4-.8-2.4.2-4.4l5 6 2-9z" fill="#231509"/><path d="M20 107l3 2 2-1v3l4 1-2 3h-2l-1 3-1-4-6 1 1-4v2h2v-6z" fill="#81744b"/><path d="M91.2 12.8l2.5.1H96h2v3c-3.3 2.8-5 4-9.4 3.8L86 19l6-3-5-1c2-2 2-2 4.2-2.2z" fill="#99865a"/><path d="M94 194h5l-3 1v10h-2l-1 8h-3l4-19z" fill="#18181a"/><path d="M47 150.8c3 .2 3 .2 4 1.2a100 100 0 0 1 0 5l-4 1-2-3h-3l-1 2c.8-4 1.5-6 6-6.2z" fill="#e0e0da"/><path d="M137 150v2h-22v-2l8.8-.6 2.5-.2 2.4-.1h2.2c2.2 0 4 .4 6 1z" fill="#f2f4f5"/><path d="M90 149l21 1v2H89l1-3z" fill="#eceeee"/><path d="M184 93h6l3 11c-7.8-5.3-7.8-5.3-9-9v-2z" fill="#867d49"/><path d="M167 48h3v7l6 1v2l-3 .3c-3.4.4-3.4.4-5 3.7V50l-2-1 1-1z" fill="#9b8149"/><path d="M218 81l2 2-.4 7.6-.2 2-.5 5.2h-2v-2l-2-1h2a327 327 0 0 0-.4-4.4l-.2-2.5-.4-2-2-1 4-4z" fill="#9e8947"/><path d="M16 67l7 1c.2 3.4.2 3.4 0 7l-3 2-2-1c-.6-2-.6-2-1-4.6l-.5-2.5-.4-2z" fill="#efeceb"/><path d="M162.3 44c3-.1 4.4 0 7 1.6L171 47h-6v-2l-3 1h-6.6-4-4-4.2H133v-1l13-.5 3.7-.1 12.6-.4z" fill="#8d2b42"/><path d="M146 3v2l2 1-4 2 1 3-3 1c-1.8-1.2-1.8-1.2-3.7-3l-2-1.7L135 6l1.8-.4C139 5 139 5 141.6 4c2.4-1 2.4-1 4.4-1z" fill="#eeeeed"/><path d="M220 108l2 2-2 1.8c-2.3 2-2.3 2-2 5.2l-3 1-1 2h-3c.1-3.3.1-3.3 1-7 3-1.8 3-1.8 6-3l2-2z" fill="#e5e3e4"/><path d="M75 9l4 1c-1 2.7-1.5 3.8-4.2 5l-2.5.7-2.5.7-2 .5-1-5 3-.4c3.2-.3 3.2-.3 5-2.6z" fill="#f0edeb"/><path d="M81 205v6l-6 1-1-3-2-1c3-2.7 5-3.3 9-3z" fill="#fafafa"/><path d="M95 189l8 1c-.3 2-.3 2-1 4-3.3 1-4.7.8-8 0l-1 3-1-4h4l-2-1 1-3z" fill="#e6e7e7"/><path d="M84 169a260 260 0 0 1 14 11l-1 2c-3.8-.6-5.5-2-8.2-4.8l-2-2c-1.7-2-2.3-3.4-2.7-6z" fill="#e4e7dd"/><path d="M174 159v2l-8 2c1.3 3.8 2.7 4 6 6v2h-2v3l-2-1-.4-2-.6-2-3-1c.2-2.8.2-2.8 1-6a11 11 0 0 1 9-3z" fill="#dfdfdf"/><path d="M178 151l7 1-2 1-1 5-5-1c-.6-2-.6-2-1-4l2-2z" fill="#a3a09f"/><path d="M43 26h2l-1 29h-1l-1-17-2-1 1-5h1l1-6z" fill="#512530"/><path d="M174 122h2a57 57 0 0 1-6.1 13.4l-1 2-2.7 4.7h-3l1.6-3 2.2-3.8 1-2c2.2-3.8 4.2-7.6 6-11.5z" fill="#2b171a"/><path d="M39 92l4 1c-.6 3.4-1.8 5.2-4 7.8l-1.7 2L36 104c-1.3-4-.2-6 1-10h2v-2z" fill="#948556"/><path d="M9 82h2v2l3 1c2.7 4 2.2 6.2 2 11h-3v-2.8c.1-3.2.1-3.2-1-6.2H9v-5z" fill="#967b40"/><path d="M216 75c2 1.8 2 1.8 4 4-.2 2.3-.2 2.3-1 4h-2c-2.6 3-4.8 5.8-7 9-.7-1.8-.7-1.8-1-4l1.4-1.4c2-1.6 2-1.6 1.8-4.8L212 79l4 3v-7z" fill="#23160a"/><path d="M203 53c1.2 6.4 1.2 6.4.1 9.4l-1 1.6h-2c-1.7-2.3-1.7-2.3-3-5l1-3h2v-2c2-1 2-1 3-1z" fill="#efefea"/><path d="M184 26v25h-1l-1-22h-6c3-2.6 3.7-3 8-3z" fill="#852b3a"/><path d="M74 20c8.8-.4 8.8-.4 13 3v2H76v-4l-2-1z" fill="#4b4d35"/><path d="M22 144h1v8H11v2l-4-1 1-1.7c1-2.6 1-3.6-.1-6.2l1.7 2c2.8 2.4 3.7 2.2 7.3 2 2.8 1 2.8 1 5 2l-.6-2.4c-.4-2.6-.4-2.6.6-4.6z" fill="#3b2b19"/><path d="M171 47h1v7h2.4c2.6.1 2.6.1 4.6 2-.4 2.6-.4 2.6-1 5l-6 1v-2l2-.3 2-.7 1-3-7-1c-.1-5.7-.1-5.7 1-8z" fill="#712a28"/><path d="M167 44l8 2v4h2l2 6-7-2-.2-3.3c-.4-3.7-.4-3.7-2.8-5.6l-2-1z" fill="#952231"/><path d="M186 40c3.5 3 5.3 4.8 5.8 9.3l.2 3.7c-4.2-2.8-4.2-2.8-6-5-.5-3-.3-5 0-8z" fill="#978451"/><path d="M102 15.5c3 .5 4 1 6 3.5-5 1.6-8.8 2.2-14 2 4-5 4-5 8-5.5z" fill="#a58b53"/><path d="M149 7l5 1 .4 2.2c.8 3.5 2 6.6 3.6 9.8-4-1.7-4-1.7-5-4h-5l-1-2 2-2 4 1-1-4-4 1 1-3z" fill="#292011"/><path d="M96 195l4 1v7l-4 2-1-1 .4-4.6.3-2.5.3-2z" fill="#ebebec"/><path d="M96 176l5 1v2l3.4.7c3.6 1.3 3.6 1.3 5 4l.6 2.4c-6.3-1.8-10.3-4.6-14-10z" fill="#88263e"/><path d="M97 91.8h2.7 6.4v2h-3.8l-5 .2-2.5.1-2.4.1-2.2.1c-2.3.2-2.3.2-5 2.3h-5v-2c5.8-3 10.4-3.4 17-3.2z" fill="#8b2a33"/><path d="M30 83c1.3 2.7.7 4.2 0 7l1.8-1.6L34 87l3 1-5 4-2.7 2.2C27 96 27 96 25 97l1-2.7c1.2-3 1.2-3 .3-5.4l-.4-2c2-2.2 2-2.2 4-4z" fill="#331e09"/><path d="M211 71l4 1v2l2 1-1 7c-3-1-3-1-4.2-2.7-1-3-1-5.3-.8-8.3z" fill="#9e8a4e"/><path d="M151 58h4v17h-4V58z" fill="#171719"/><path d="M117 58l6 1v15c-2-2-2-2-2.2-4.6l.1-3v-3V61h-5l1-3z" fill="#552416"/><path d="M41 40h1c.7 7 .7 7-1.3 9.6L36 53c.4-5.7.8-8.8 5-13z" fill="#91814e"/><path d="M186 32l3 2h3l2 7-3-1-1 2c-2.8-2-3-3-3.7-6.7L186 32z" fill="#8e8147"/><path d="M72 166h2v5h-2l-1 5-3-1c-1.2-3.6-1.2-3.6-2-7l5 1 1-3z" fill="#352a20"/><path d="M32 109l5 1c.6 2 .6 2 1 4l-2 2c-2.6-.4-2.6-.4-5-1l-1-3 2-3z" fill="#9c8751"/><path d="M176 76h4v4h2a17 17 0 0 1 1.6 10.8l-.3 3-.3 2.2h-1l-2-14-2 1-2-7z" fill="#8f253b"/><path d="M35 62l7 1v4h-2.7c-2.7.1-4.7.3-7.2 1 2-5 2-5 3-6z" fill="#e6e1e1"/><path d="M185 47c2.5 1 3.8 1.7 5.3 4 .8 2.5.6 3.7-.3 6l-5-2v-8z" fill="#3b3b2c"/><path d="M81 8l2 1c-3.8 5.2-7.4 9-14 10l-4-1 1-4-4-2h5l1 5c5.6-2 9.7-3.8 13-9z" fill="#382b1b"/><path d="M29 142l3 3 2-1 1 3-2 3c-.2 2-.2 2-.1 4.2v3.8c-2.2-3.3-3-6.2-4-10a152 152 0 0 0-2-5l2-1z" fill="#87753a"/><path d="M3 135l2 1-1 9H0v-9l3 1v-2z" fill="#fafcf5"/><path d="M145 117l7 1c.2 2.4.2 2.4 0 5-3 2-3 2-7 2v13h-1v-14l5-2v-3l-4-2z" fill="#8e2b36"/><path d="M192 75c5 2 5 2 6 4l-5-2c.3 5.4.7 9.5 4 14l-2.2-1A41 41 0 0 0 187 88v-3l5 1V75z" fill="#281d0f"/><path d="M39 178l4 1c-.6 3-1.3 4.4-3 7l-1 5h-2l2-9-2-1 2-3z" fill="#dedbd8"/><path d="M45 139l3 1v9l-4 1v-4.4-2.5c.1-2.2.1-2.2 1-4.2z" fill="#9e8b49"/><path d="M41 123h1c.6 12.7.6 12.7-3 18h-1a19 19 0 0 1 2-10h-2l1-5h2v-3z" fill="#998a5f"/><path d="M187 62h6l3 6-10-1 1-5z" fill="#eceee9"/><path d="M42 191l7 1 2 5-2 1c-3-1.2-3-1.2-6-3-1-2.2-1-2.2-1-4z" fill="#f2f2f1"/><path d="M190 184c5.5-.4 5.5-.4 8 1.5l1 1.5-9 4v-7z" fill="#656043"/><path d="M154 162c1.2 3.6.5 4.6-1 8h-2l-3 7h-1c-.6-5.2.7-7.7 3.7-11.7l1.3-1.3h2v-2z" fill="#94815f"/><path d="M65 164h3l-1 9h-7v-3l4-1 1-5z" fill="#dddbdb"/><path d="M171 146l2 2c-.8 2.4-.8 2.4-2 5l-3 1-2-1v-5l5-2z" fill="#928351"/><path d="M64 144l4 7h-3l-2 1-2-5c-3.6-.2-3.6-.2-7 1v-3c3.4-.8 6.5-1 10-1z" fill="#e2dcda"/><path d="M14 132c3 1 4.8 1.8 7 4-.4 2-.4 2-1 4v-2l-5 1-2-6 1-1z" fill="#a08f52"/><path d="M46 86h8l-1 5h-7v-5z" fill="#aa1832"/><path d="M166 87v1h-18v-2l6.8-.6 3.8-.4c3.3 0 4.8.2 7.5 2z" fill="#f1eeef"/><path d="M118 46h4v7l-6 2v-5h4v-2h-2v-2z" fill="#8a272e"/><path d="M135 13l4 1v2l-4.5 3-2.5 1.6-2 1.2v-3l-6-1v-1l2.2-.4 2.8-.5 2.8-.5 2.3-.6 1-2z" fill="#1e1109"/><path d="M131 4l1 2 2.4 1c2.6 1 4 1.8 5.6 4l1 4c-3-1-3-1-5.3-3.4-3-2.7-5-3.6-8.7-4.6 1-2 1-2 4-3z" fill="#988c63"/><path d="M200 181l-2 2 2 4h-2v-2l-10-1v-2l5-1 2.7-.6c2.4-.3 2.4-.3 4.4.7z" fill="#241d1d"/><path d="M217 118l5 1v5c-2 .6-2 .6-4 1l-2-2 1-5z" fill="#96884a"/><path d="M6 118l5 1 1 4c-1 1-1 1-3.6 1H6l-1-5 1-1z" fill="#a38b52"/><path d="M192 109h3l2 5-2 2h-4l-1-5 2-2z" fill="#988754"/><path d="M105 55l5 1v2h-5v20h-1V67 64v-3V58c.1-2 .1-2 1-3z" fill="#786a4e"/><path d="M86 21l13 1 1 3-4.7.3-2.7.1C90 25 90 25 86 21z" fill="#887e52"/><path d="M89 177a105 105 0 0 1 5 4v2l2 1-1 4c-3.7-.5-5.8-1-9-3l2-2 2 1v2h3a91 91 0 0 0-4-9z" fill="#31271f"/><path d="M73 162c2.6 1 4 1.8 5.5 4 1.7 2.3 2.7 2.6 5.5 3v2h-2l-1 6h-1l-.7-3.7c-1-4.3-3-6.4-6.3-9.3v-2z" fill="#322615"/><path d="M6 139l1 2h2v3h4l3 6c-4-.2-5-1-7.8-3.8C6 143 6 143 6 139z" fill="#867751"/><path d="M29 117l2 1-4 5h2c.1 3.4.1 3.4 0 7l-2 2v-5h-2c.6-6.5.6-6.5 2.6-9l1.4-1z" fill="#d9d9d4"/><path d="M42 97h2l2 10h-3v-2l-4-1 3-7z" fill="#e9ece8"/><path d="M10 96h4c1.5 3 1 5.7 1 9-2-.6-2-.6-4-2-.7-3.6-.7-3.6-1-7z" fill="#9e8852"/><path d="M137 27h24v1h-3l-4 .2-4 .2-3.2.4-1 2-9-3v-1z" fill="#9a243a"/><path d="M98 181c4 1.8 7.6 4.3 11 7v1h-8l-3-8z" fill="#dcded9"/><path d="M84 165c2.6 1 4 2 6 4 2 2.3 2 2.3 6 2v5a32 32 0 0 1-8.2-5.5l-2-1.8C84 167 84 167 84 165z" fill="#86263d"/><path d="M57 147l4 1 1 4c-1 1-1 1-3.6 1H56c-.6-2-.6-2-1-4l2-2z" fill="#978a50"/><path d="M51 124c2.7 2.4 3.8 4.6 5 8h-6v-2l-2-1 3-5z" fill="#edf2ef"/><path d="M31 98a6 6 0 0 1 1 4l2 1c-4.6 6-4.6 6-8 7l1.4-4.3.8-2.4c1-2.3 1-2.3 3-5.3z" fill="#9a8756"/><path d="M145 88h3v2l4 2c-4 2.6-5.6 1.8-10 1 1.3-2.5 1.3-2.5 3-5z" fill="#5e4939"/><path d="M129 85l15 1v2h-16l1-3z" fill="#dedde1"/><path d="M37 67l4 1-1 7h-3c-2-3-2-3-1.7-5 .7-2 .7-2 1.7-3z" fill="#8a8051"/><path d="M76 58c.1 7.4.1 7.4-1 11h-2l-2-7c4-4 4-4 5-4z" fill="#f2f2f2"/><path d="M40 51h2v7l-2.2.8c-3 1.3-4.6 3-6.7 5.3a37 37 0 0 1 4-8h2l1-5z" fill="#4e412f"/><path d="M130 8c3.2.4 4.6.6 6.8 3l1.2 2c-3 1-5.5 1-8.7.6l-2.4-.3-1.8-.3 1-2 6-1-2-2z" fill="#483412"/><path d="M31 184h7l-1 7-4-2v-2l-3-1 1-2z" fill="#706a4a"/><path d="M142 176c1.4 3 .6 5 0 8 2.3-1 2.3-1 4-4l1 4c-6.7 2-6.7 2-9 1 1-3.4 2-6 4-9z" fill="#251a10"/><path d="M152.3 161.3l1.7.7a41 41 0 0 1-10 8l-2 2c0-4 1-4.5 3.8-7.2l2-2.2c2-1.5 2-1.5 4.4-1.3z" fill="#bebebc"/><path d="M28 150c3 2 3 2 4 5l2-2 2 1v3h-2v3l-4 1-.4-2.7c-.5-2.8-1-5.5-1.6-8.3z" fill="#9d895c"/><path d="M213 152a82 82 0 0 1-7.7 7.2c-2.3 1.6-2.3 1.6-3.2 3.8h-2c1.4-3.2 2-4 5-6l1-3-2-1c3.4-1.6 5.4-2.3 9-1z" fill="#6e562c"/><path d="M110 138h1l1 10h-5l.5-1.7c.6-2.5.6-2.5.5-6.2l2-2z" fill="#fbfbf9"/><path d="M198 117l4 3c.3 3.7.3 3.7 0 7h-2l-1 3-1-13z" fill="#eeecec"/><path d="M64 85a782 782 0 0 1 6.9.4l4 .2 3.2.4 1 2H63l1-3z" fill="#ede7e9"/><path d="M10 65l5 1v3l-3-2 1 2-.4 6-.3 3.3L12 81c-2-3.5-2.2-6.2-2-10.2v-3.3V65z" fill="#463a2b"/><path d="M155 16a154 154 0 0 1 6.1 1.6c2 .6 2 .6 4-.6l1 7-4.4-2.3-2.5-1.3C157 19 157 19 155 16z" fill="#ebe9e0"/><path d="M83 111l2 1-1 7-6 1v3l4 1h-5l-1-5c1-1 1-1 4-1h3v-7z" fill="#3f110b"/><path d="M85 60h1l.2 2.3.3 3 .2 3c.2 2.6.2 2.6 1.3 4.6l6-1-1 3h-9l1-15z" fill="#39393a"/><path d="M18 60l5 1-2 6-4-1v-5l1-1z" fill="#978953"/><path d="M103 14c6.8 3.2 6.8 3.2 9 6v2l-11-1a9 9 0 0 1 6-3l-4-2v-2z" fill="#382d22"/><path d="M185 178h3l2 4h-2v2h2l1 6-1-3h-2l-4-6 1-3z" fill="#dfe0d9"/><path d="M50 171c-.3 3.3-1 4-3.6 6.3L44 179l-3-3c5.6-5 5.6-5 9-5z" fill="#f5f5f6"/><path d="M164 144l2 1-1 8h-4c-.7-1.7-.7-1.7-1-4 2-2.7 2-2.7 4-5z" fill="#efeceb"/><path d="M20 118l1 2h2v9h-4v-4h2l-1-7z" fill="#aa8d3a"/><path d="M197 100c3 2.5 4 5.2 5 9-3.2-.6-5-1.4-7-4v-3h2v-2z" fill="#988a52"/><path d="M195 81h2c2.4 2.6 4 4.6 5 8l-1 4v3l-4-5h2l-1.4-3.3c-1-2.2-1.8-4.4-2.6-6.7z" fill="#2c1a0b"/><path d="M30 79l3 1 1 5-2 1-2-2-3 3-1-3 4-5z" fill="#947e49"/><path d="M155 19l8 4v2h-6v-2l-5-2 3-2z" fill="#908153"/><path d="M151 15l3 1a17 17 0 0 1 1 4l-7 1v-4h3v-2z" fill="#a78c52"/><path d="M72 171h1l1 8-2-.8-12-4.2v-1l8-1v3h3l1-4z" fill="#1c130b"/><path d="M142 137l1 3 6 .5c2 .5 2 .5 4 3.5l-2 4-2-1v-4c-3.6-1-3.6-1-7 0v-6z" fill="#7a3133"/><path d="M36 133h1l-1 12-3-3c.3-6.3.3-6.3 3-9z" fill="#9e8753"/><path d="M214 121v3l-6 5-3-1v-4h2l1 1 2-2c2-2 2-2 4-2z" fill="#9d8953"/><path d="M131 107a31 31 0 0 1 14 2v7h-1l-1-5-12-3v-1z" fill="#8b2739"/><path d="M14 95l2 1c.4 2.5.4 2.5.6 5.6l.2 3v2.4c-2 .6-2 .6-4 1-1.8-1.2-1.8-1.2-3-3 .3-2.2.3-2.2 1-4l4 4-1-10z" fill="#452e16"/><path d="M79 79h1v6l-10-1 1-2h3l1-2 4 1v-2z" fill="#f9fbfb"/><path d="M193 72c3.3.3 4 1 6.3 3.6L201 78l-1 2-8-5 1-3z" fill="#eae2ea"/><path d="M32 72l4 2a38 38 0 0 1-9 6c.5-3.8 2.2-5.5 5-8z" fill="#9c8354"/><path d="M144 18v2l-3 1c-.7 2-.7 2-1 4h-7c6.8-7 6.8-7 11-7z" fill="#d6ccd3"/><path d="M176 19h3l2 5h5v1h-9l-2-4 1-2z" fill="#d7d1d4"/><path d="M127 0h8l-1 5-7-2V0z" fill="#f4f3ec"/><path d="M209 116h1c1.3 6.6 1.3 6.6-1 10h-2v-2h-2l-1-4h4l1-4z" fill="#90772d"/><path d="M207 98c3 1 3 1 4 3 .1 2.7 0 5.3 0 8h-2l-2-11z" fill="#90824f"/><path d="M216 68l1.4 2 1.6 2h1l1 9-3-1c-1.8-4-2.2-7.6-2-12z" fill="#e6e3e5"/><path d="M91 3v4h8v1L89 9l1-3-1.8 1C86 8 86 8 83 7c5.8-4 5.8-4 8-4z" fill="#241c17"/><path d="M117 196h5l-.8 1.7L115 212c-1-3.4-1-3.8.4-7 1.3-3.2 2-5.6 1.6-9z" fill="#474747"/><path d="M164 183a46 46 0 0 1 4 4l-6-.4-3.3-.2c-2.8-.3-2.8-.3-4.8-1.3 3.4-2 6-2.5 10-2z" fill="#1c1e1e"/><path d="M207 174l1 3-2.4 1.2c-3 2-3.6 3.4-4.6 6.8l-4-2 2.8-3.4 1.5-2c1.8-1.8 3.4-2.7 5.7-3.7z" fill="#ecedea"/><path d="M160 169l2 4-5 4-2-2c.1-2 .1-2 1-4l4-2z" fill="#9e8b6f"/><path d="M62 164h2v4l-2.4 1c-2.7 1-2.7 1-4.6 3l-3-2c4.6-4 4.6-4 8-4v-2z" fill="#e9e9ea"/><path d="M5 146l4 1 1 3-3 3 2 1-4-1c-1-3-1-4 0-7z" fill="#edeced"/><path d="M141 141l1 2h5l1 3-2.4 1c-2.5 1-2.5 1-4.6 2v-8z" fill="#a4895d"/><path d="M10 77l.8 1.8C12 81 13.2 82.4 15 84l-1 2-3-2v-2H9v8H8V79h2v-2z" fill="#21150a"/><path d="M188 67l4 1 1 3-2 2c-2-.2-2-.2-4-1l-1-2 2-3z" fill="#998253"/><path d="M206 60l4 1 1 4-5 1-1-5 1-1z" fill="#948a56"/><path d="M137 59h3l1 5-4 2c-1-1-1-1-1-3.5.1-2.5.1-2.5 1-3.5z" fill="#e1e1e1"/><path d="M112 48l4 2v9h-2l1 3h-2v-4h2l-1-7-3-1 1-2z" fill="#981a28"/><path d="M69 47h17l-4 4-2 3-1-5-10-1v-1z" fill="#1a1112"/><path d="M85 18v2h8c-2.6 1.4-5 2.6-8 3l-3-2h-4v-2c3-1 3-1 7-1z" fill="#1c150f"/><path d="M118 213l4 5c-3 1.5-5.7 1-9 1l1-3h3l1-3z" fill="#fcfcfc"/><path d="M97 181l2 1v6l-5 1 .6-2.4c.7-2.6.7-2.6-.6-4.6l3-1z" fill="#816d5b"/><path d="M41 130l1.8.6c2.5.5 4 .2 6.3-.6v2l-3 .6c-3.4 1-3.4 1-4.5 4.5l-.6 3h-2l1-3.3c1-3.5 1-3.5 1-6.7z" fill="#40351d"/><path d="M96 120h10v4H95l1-4z" fill="#292a29"/><path d="M193 77c6 2 6 2 8 5 .2 2.7.2 2.7 0 5l-4-4v-2h-2v-2h-2v-2z" fill="#948958"/><path d="M204 59h2l1 8-3 2 1-5-5 2v-2h2l2-5z" fill="#221710"/><path d="M165 45v2h6l-1 2-19-2v-1l5.3-.5 3-.3c2.7-.2 2.7-.2 5.7-.2z" fill="#2c0e10"/><path d="M41 24h5l-4 1v6l-4 1-2-4 2-2v2h2l1-4z" fill="#c7c6c9"/><path d="M58 19l4 2c-4.6 4-4.6 4-8 4 .3-2 .3-2 1-4l3-2z" fill="#dfdfd8"/><path d="M15 113h1v7l-4-1v-2l-4-2 3-.4c3-.2 3-.2 4-1.6z" fill="#e6e7e2"/><path d="M100 106l6 1-2 1v2H94c4-2 4-2 6-2v-2z" fill="#9b283b"/><path d="M29 46l2 1v9l-3-2c-.7-3.6-.7-3.6-1-7l2-1z" fill="#97885d"/><path d="M196 44c2 2 2 2 2.3 4.5v3 3C198 57 198 57 196 59l-1-5h-2v-2h3v-8z" fill="#301c0e"/><path d="M113 20l10 2v2h-10v-4z" fill="#fcfafb"/><path d="M90 9v2h3c3 .1 3 .1 5 2h-5.3l-3 .1C87 13 87 13 84 11c3-2 3-2 6-2z" fill="#6f5626"/><path d="M122 182l2 1-11 6-2-3 2.7-1c3.2-1 3.2-1 6-2.3l2.3-.8z" fill="#822d3d"/><path d="M18 141l3 1 1 9h-4l.6-2.7c.4-3 .4-4.5-.6-7.2z" fill="#9d8952"/><path d="M217 129c2 3 2 3 2 5l3 1c-4.7 3-4.7 3-7 3l2-9z" fill="#d6d5d4"/><path d="M30 125l3 2c.2 3 .2 3 0 6h-3v-2l-2-1 2-5z" fill="#a0874e"/><path d="M18 119c3 3.8 3 3.8 3 6h-2l-1 3-5-5v-2l5 1v-3z" fill="#8f7e51"/><path d="M12 107l4 2v3c-1.7.7-1.7.7-4 1-2.2-1.4-2.2-1.4-4-3l1-2 2 2 1-3z" fill="#776945"/><path d="M187 101l8 7-5 1-1-3h-2v-5z" fill="#e1ddd6"/><path d="M217 85v10l-4-3 1-6c2-1 2-1 3-1z" fill="#b08a44"/><path d="M132.6 207c1.7 2.2 3 4.5 4.4 7h-4l-.7-3-1.2-3c-2-1-2-1-4-1 3.5-1.3 3.5-1.3 5.6.1z" fill="#111112"/><path d="M75 199c-.6 3.3-1.5 4.8-4 7l-3-1c1.5-3.4 3-6 7-6z" fill="#e7e7e8"/><path d="M146 192c1 1 1 1 1 4.6v3.4l-4-6c-2-1.2-2-1.2-4-2 2.7-1.3 4.2-.7 7 0z" fill="#262525"/><path d="M88 178a35 35 0 0 1 5 4v4h-3c-1.8-3-2-4.2-2-8z" fill="#968f57"/><path d="M83 176c1.5 1.2 1.5 1.2 3 3 .2 2.7.2 2.7 0 5l-4-1v-6l1-1z" fill="#907f4d"/><path d="M73 171l2 4 2-1 1 6-5-2v-7z" fill="#938063"/><path d="M76 161l3.4 3 2 1.6C83 167 83 167 84 169c-2.2-.1-2.2-.1-5-1l-4-6 1-1z" fill="#dedbdf"/><path d="M158 152l1 2c-1.4 3-2.6 5.6-5 8l-3-2 7-8z" fill="#e8e7ea"/><path d="M182 137c3 2.5 4 5.2 5 9-.4 2.4-.4 2.4-1 4h-2l-.2-1.8-.3-2.4-.2-2.4a48 48 0 0 0-1.3-6.4z" fill="#351d0a"/><path d="M50 144c4 4.6 4 4.6 4 8l-5-2v-5l1-1z" fill="#ebefef"/><path d="M22 137l1 3h3v6l-4-2v-7z" fill="#9b7e44"/><path d="M216 129c1 3.8 1 3.8 0 6-2 .6-2 .6-4 1v-6l4-1z" fill="#615538"/><path d="M10 130l9 1c-3 2-3 2-5 2l-1 2 2 1h-3l-2-6z" fill="#4e4533"/><path d="M197 123l-4 6c-3-3.7-3-3.7-3-6 3-1 4-1 7 0z" fill="#e7e2de"/><path d="M199 111h4l-1 7-4-2 1-5z" fill="#8f8a6c"/><path d="M16 96h1l.4 2.4A5 5 0 0 0 20 103l-1 6h-2a48 48 0 0 1-1-13z" fill="#947c52"/><path d="M56 128h2a648 648 0 0 1 3.1 5.4l1.7 3L64 139l-1 2-3-4.2-1.7-2.4c-1.3-2.2-2-4-2.4-6.4z" fill="#7f293a"/><path d="M194 94c2.6 3 3 3.7 3 8h-2l-1 2c-1-6.6-1-6.6 0-10z" fill="#a08942"/><path d="M218 81c2 2 2 2 2 5v3l-2-1.4c-2-1.6-2-1.6-4-2.6l4-4z" fill="#786a4b"/><path d="M128 80l4 5-3 1-1 3-3-1v-6l2 3 1-5z" fill="#16150f"/><path d="M126 40l1 2h3v-2l2 1c-2.2 3.4-3.2 4-7 5-2.3-.4-2.3-.4-4-1l2-.8c2.4-1 2.4-1 3-4.2z" fill="#a3243a"/><path d="M159 203h5v3c-3.3 3-3.3 3-6 3l1-6z" fill="#d9d9d9"/><path d="M133 188l4 2v2l2 1h-3v2h-2l-1-7z" fill="#e5e3e6"/><path d="M162 185l-3 3-2-1-1 3-3-3c3.4-2.3 5-2.2 9-2z" fill="#ebefed"/><path d="M122 185c2.3.3 2.3.3 4 1v3h-8c1.8-2 1.8-2 4-4z" fill="#efedef"/><path d="M162 158c2.6.4 2.6.4 5 1l-4 5-4-1c1-3 1-3 3-5z" fill="#eceeef"/><path d="M191 158c4.7 2 8.4 5.4 12 9l-3 1-4.5-4.4-2.5-2.5c-2-2-2-2-2-3z" fill="#3d352c"/><path d="M147 155l6 1-1 2h-2l-2 4h-3l1-1.8c1.2-2.2 1.2-2.2 1-5.2z" fill="#84283a"/><path d="M137 150v2h-10l1-2c3.3-1 5.7-1 9 0z" fill="#f4ece9"/><path d="M193 146c3 1 3 1 3.8 2.6.3 3.4-.8 6.2-1.8 9.4-1.4-2.7-1-5-1-8h-2l1-4z" fill="#917444"/><path d="M143 141l7 2v4c-2 .6-2 .6-4 1l-2-2h4l-1-2c-2-.7-2-.7-4-1v-2z" fill="#471b12"/><path d="M86 143v11l-4-9c3-2 3-2 4-2z" fill="#978d55"/><path d="M206 136c1.4 2.3 2 3.6 1.8 6.4l-.6 2.4-.6 2.4-.5 1.8h-1v-6-3.3c.1-2.7.1-2.7 1-3.7z" fill="#402f14"/><path d="M211 114c1 3 1 3 0 6l5-1v4h-2v-2l-4 1v-7l1-1z" fill="#150b09"/><path d="M31 96c0 3.2-.7 4.8-2 7.7l-1 2.4-1 2-1-2-2-1 7-9z" fill="#392613"/><path d="M4 99c3.8 1.5 3.8 1.5 5 4 .1 2 .1 2-2 5-2.3-3.4-3-4.7-3-9z" fill="#67602c"/><path d="M213 86c1 3.8 1 3.8 0 6h2l-2 4-3-1c.5-3.7 1-5.8 3-9z" fill="#887548"/><path d="M170 82l1 2h6l-2 1.8c-2.4 2.2-2.4 2.2-2 6.3h-2l-1-10z" fill="#823233"/><path d="M197 67h6l-1 7c-2.5-2.4-4-3.7-5-7z" fill="#a78c38"/><path d="M144 46l16 1v1l-6.3.7-3.6.4c-3-.1-3-.1-6-3z" fill="#453134"/><path d="M110 206c3 2 3 2 3.8 5l.2 3-2 2a26 26 0 0 1-2-10z" fill="#141414"/><path d="M63 179l3 2-2.4 3.5-1.4 2L61 188h-1c-.3-3-.2-4.6 1.5-7.3L63 179z" fill="#141416"/><path d="M195 176h2l1 5h-6l-2-2 3-1v2h2l-1-3 1-1z" fill="#f2f2f0"/><path d="M184 172c5 4.6 5 4.6 6 8l2 1h-3l-1-3-3-1-1-5z" fill="#403f42"/><path d="M26 168l2 2h-2l3 6-4 1v-8l1-1z" fill="#f2f3ec"/><path d="M72 152c3 1 3 1 5 4l3 1-1 4-3.5-3.4-2-2C72 154 72 154 72 152z" fill="#852937"/><path d="M47 152h4v5l-3 1-1-6z" fill="#f7f8f6"/><path d="M177 152l3 1 1 5-4-1c-.6-2-.6-2-1-4l1-1z" fill="#f6f7f2"/><path d="M10 131c1.7 2.6 2.4 4 3 7-3-1-4.8-1.8-7-4l4-1v-2z" fill="#e8e0de"/><path d="M224 124v5l-6 2c.4-2.8.8-3.8 3-5.7 2-1.2 2-1.2 3-1.2z" fill="#f4f9f2"/><path d="M132 109l11 1v3l-4-2-1 2c-5-1.7-5-1.7-6-4z" fill="#22080c"/><path d="M25 98l1 2 2 1-5 5c1-7 1-7 2-8z" fill="#9a9055"/><path d="M201 90c3 2.5 4 3.7 4.8 7.8l.3 3.3c-2.7-3.2-4.6-6-6-10l1-1z" fill="#a28c5c"/><path d="M221 77h3c-.6 6.6-.6 6.6-4 10l1-10z" fill="#f7fbef"/><path d="M9 67h2v4.3l.1 2.4C11 76 11 76 9 79l-1-5h2l-1-2.4L8 69l1-2z" fill="#f5f2f0"/><path d="M140 64l3 1-3 1 3 8c-3-1-3-1-4.3-3.3-.7-2.7-.7-2.7.2-5l1-1.7z" fill="#2e2f31"/><path d="M195 54l1 5-2 1-4-4c3-2 3-2 5-2z" fill="#8d8657"/><path d="M63 45l5 1-3 1v8h-1l-1-3c-1-3-1-3-2-5h2v-2z" fill="#201616"/><path d="M63 13l4 1-1 4-4-1 1-4z" fill="#928b65"/><path d="M127 13h7l2 2c-2.7 1.4-5 1-8 1l-1-3z" fill="#a08a5a"/><path d="M152 181l2 2-3 5-3-1c1.8-5 1.8-5 4-6z" fill="#f6f4f7"/><path d="M91 177c3.3.6 4.8 1.5 7 4-1.8.7-1.8.7-4 1-1.7-1.3-1.7-1.3-3-3v-2z" fill="#f1f1ee"/><path d="M72 164l4 1c1 3.8 1 3.8 0 6h-2v-5h-2v-2z" fill="#847f44"/><path d="M193 149l2 1v6h-3v-6l1-1z" fill="#a98c46"/><path d="M190 131l2 2-2 7-4-4 4-5z" fill="#947f40"/><path d="M179 96h3l-1 7-2 1-1-7 1-1z" fill="#8c2733"/><path d="M30 94l-1 6h-3l-1-3c2.8-3 2.8-3 5-3z" fill="#9c8842"/><path d="M36 75l-1 8h-1v-5l-4 1c3.8-4 3.8-4 6-4z" fill="#584733"/><path d="M203 64h2v9l-2 1-1-4-.6-2.2-.2-2 2-2z" fill="#7a6650"/><path d="M184 58l2 1v2l3 1-2 1c-1 2-1 2-2 4h-1v-9z" fill="#191211"/><path d="M170 55l6 1v2l-6 1v-4z" fill="#998060"/><path d="M141 20l4 1 1 4-5-1v-4z" fill="#777651"/><path d="M144 159l3 1-2 3-4-1v-2l-2-1c2-1 2-1 5-.1z" fill="#981e24"/><path d="M114 131h3l3 7h-4l-2-7z" fill="#0f0f11"/><path d="M197 123h2v7l-3 1c-1-2.6-1-3.6-.1-6.2l1-1.7z" fill="#625830"/><path d="M78 120h6l1 3h-7v-3z" fill="#9d826a"/><path d="M25 111l4 1-2 3h-2l-1 3-1-4h2v-3z" fill="#6b6351"/><path d="M185 84c2.2 2.6 3.4 4.6 4 8h-4v-8z" fill="#dcdddd"/><path d="M44 88l1 3 2.4-.6L50 90l2 2c-4.6 2-4.6 2-8 1v-5z" fill="#8a212e"/><path d="M55 75l2 2c-1 1-1 1-3.6 1H51v5h-1v-7c2.4-.6 2.4-.6 5-1z" fill="#802c34"/><path d="M151 58h4l-1 8h-2l-1-8z" fill="#050505"/><path d="M21 58v2l-3 1c-.7 2-.7 2-1 4h-2v-5c3-2 3-2 6-2z" fill="#483927"/><path d="M160 44c6.4-.4 6.4-.4 9.4 1.5L171 47h-6v-2l-5 1v-2z" fill="#742b39"/><path d="M35 30l6 1-2 4h-4v-5z" fill="#1e1818"/><path d="M66 19l2 2-2 3h-5l5-5z" fill="#9f8b59"/><path d="M169 20c4.8.8 4.8.8 7 3l-1 2h-3c-1.7-2.5-1.7-2.5-3-5z" fill="#767154"/><path d="M92 204l2 1-1 8h-3l2-9z" fill="#0d0d0e"/><path d="M56 195l1 4-3 2-2-4 4-2z" fill="#e3e3e3"/><path d="M142 171c-1.4 3.4-3 5-6 7 0-3 0-3 2-5.2 2-1.8 2-1.8 4-1.8z" fill="#eff5e6"/><path d="M68 170l4 2-1 4-3-1v-5z" fill="#968e53"/><path d="M172 148h1v10h-2v-4l-2-1 2-1 1-4z" fill="#534437"/><path d="M201 146c1.6 1.3 1.6 1.3 3 3-.1 2-.1 2-1 4l-3 1 1-8z" fill="#8d7f45"/><path d="M160 144h3c-1.2 3.4-2.3 5.6-5 8 0-3.2.7-5 2-8z" fill="#3a1922"/><path d="M39 142l3 2-1 4h2v3h-3l-1-9z" fill="#786f4a"/><path d="M197 143l2 2c-.4 2-.4 2-1 4h-2v-2l-3-1 2-2 2 1v-2z" fill="#968640"/><path d="M114 143l3 1v3l3 1-6 1v-6z" fill="#f7f9f9"/><path d="M186 129l2 4h-2l-1 3-4-5h4l1-2z" fill="#3c2e1c"/><path d="M201 130l3 1 1 6-3-2-2 1v-5l1-1z" fill="#88804a"/><path d="M9 82h2v2l3 1v2H9v-5z" fill="#8f7b4c"/><path d="M136 68h2c1 3 1 4 0 7h-5l1-2h2v-5z" fill="#b7b8ba"/><path d="M124 56l-2 3-5-1v-2c2.7-1.3 4.2-.7 7 0z" fill="#9f7e5b"/><path d="M36 34l4 1 1 4h-2v-2l-5-1 2-2z" fill="#857952"/><path d="M49 21h4l-1 4-5-1 2-3z" fill="#5e5a4f"/><path d="M62 12h5l.4 2.4.6 2.6 2 1-5 1 1-5-4-2z" fill="#1f1206"/><path d="M125 13l3 1v2l4 1h-8l1-4z" fill="#977d47"/><path d="M90 9h7l-1 3h-7l1-3z" fill="#a08d51"/><path d="M150 8l3 1v4h-4l1-5z" fill="#8a8659"/><path d="M72 184l4 3h-2l-2 4-2-2 2-5z" fill="#2a2a2d"/><path d="M129 183l3 1v4h-4l1-5z" fill="#968460"/><path d="M31 164c-1.2 1.6-1.2 1.6-3 3-2.7-.3-2.7-.3-5-1 2.6-2.6 4.6-3.7 8-2z" fill="#5d5536"/><path d="M53 162c3 .4 3 .4 6 1l1 2-5 1-2-4z" fill="#e5e5e7"/><path d="M112 152l3 1v4l-4-1 1-4z" fill="#8d7e5e"/><path d="M206 147h5c-.7 2-.7 2-2 4-2 .8-2 .8-4 1l1-5z" fill="#9c895c"/><path d="M195 135l4 2-2 3h-2l-1 2 1-7z" fill="#83703c"/><path d="M214 127v2l2 1-7 2c.4-2 .4-2 1-4 2-1 2-1 4-1z" fill="#dfd7d8"/><path d="M14 125l4 4v2l-8-1v-1h5l-1-4z" fill="#dfd8d3"/><path d="M181 109c1 4.3.8 5.2-1 9h-2l3-9z" fill="#e5dde5"/><path d="M184 96l3 3-2 4-2-1 1-6z" fill="#dfe8e0"/><path d="M188 97h3l2 7-5-4v-3z" fill="#9e8b60"/><path d="M19 89l3 1-2 4h-3l2-5z" fill="#a18258"/><path d="M28 74v3l-7 2v-3l7-2z" fill="#615031"/><path d="M76 58h3l-2 9-2-2c.4-3.6.4-3.6 1-7z" fill="#4f4f4f"/><path d="M22 45l4 3-1 5-2-3 1-2h-2v-3z" fill="#f0eae4"/><path d="M205 41l3 1-1 5-2-1v-2l-2-1 2-2z" fill="#f7f8f7"/><path d="M124 38h4l2 4-2-.6c-2.2-.7-2.2-.7-4 .6l-1-3 1-1z" fill="#96202f"/><path d="M81 20l6 3v2h-5l-1-5z" fill="#b0b2ab"/><path d="M116 2c2 3.8 2 3.8 2 6h-6l2-4h2V2z" fill="#ccc4bb"/></svg>