<?xml version="1.0" encoding="UTF-8"?>
<svg version="1.1" xmlns="http://www.w3.org/2000/svg" width="180" height="180">
<path d="M0 0 C59.4 0 118.8 0 180 0 C180 59.4 180 118.8 180 180 C120.6 180 61.2 180 0 180 C0 120.6 0 61.2 0 0 Z " fill="#1A3427" transform="translate(0,0)"/>
<path d="M0 0 C7.26 0 14.52 0 22 0 C22 14.19 22 28.38 22 43 C14.74 43 7.48 43 0 43 C0 50.26 0 57.52 0 65 C-14.19 65 -28.38 65 -43 65 C-43 58.07 -43 51.14 -43 44 C-35.74 44 -28.48 44 -21 44 C-21 36.74 -21 29.48 -21 22 C-14.07 22 -7.14 22 0 22 C0 14.74 0 7.48 0 0 Z " fill="#F2F5EF" transform="translate(100,57)"/>
<path d="M0 0 C0.99 0 1.98 0 3 0 C3 1.98 3 3.96 3 6 C-3.93 6 -10.86 6 -18 6 C-18 13.26 -18 20.52 -18 28 C-25.26 28 -32.52 28 -40 28 C-40 27.67 -40 27.34 -40 27 C-33.07 27 -26.14 27 -19 27 C-19.09539062 25.36289063 -19.19078125 23.72578125 -19.2890625 22.0390625 C-19.4015884 19.90107037 -19.51353779 17.76304785 -19.625 15.625 C-19.68945312 14.54476562 -19.75390625 13.46453125 -19.8203125 12.3515625 C-19.871875 11.3203125 -19.9234375 10.2890625 -19.9765625 9.2265625 C-20.02893066 8.27346191 -20.08129883 7.32036133 -20.13525391 6.33837891 C-20 4 -20 4 -18 2 C-16.12060547 1.77294922 -16.12060547 1.77294922 -13.8671875 1.8046875 C-12.65869141 1.81435547 -12.65869141 1.81435547 -11.42578125 1.82421875 C-10.16314453 1.84935547 -10.16314453 1.84935547 -8.875 1.875 C-7.60076172 1.88853516 -7.60076172 1.88853516 -6.30078125 1.90234375 C-4.20040116 1.92594353 -2.10016556 1.96181517 0 2 C0 1.34 0 0.68 0 0 Z " fill="#4A5D52" transform="translate(97,73)"/>
<path d="M0 0 C7.26 0 14.52 0 22 0 C21.67 1.65 21.34 3.3 21 5 C15.06 5 9.12 5 3 5 C3 4.34 3 3.68 3 3 C2.34 3 1.68 3 1 3 C1 8.94 1 14.88 1 21 C0.67 21 0.34 21 0 21 C0 14.07 0 7.14 0 0 Z " fill="#E0E9E1" transform="translate(100,57)"/>
</svg>
