<svg role="img" viewBox="0 0 300 300" xmlns="http://www.w3.org/2000/svg" id="Tryhackme--Streamline-Simple-Icons" height="300" width="300">
  <desc>
    Tryhackme Streamline Icon: https://streamlinehq.com
  </desc>
  <title>TryHackMe</title>
  <path d="M133.8125 0C94.25 0 61.275 28.5625 54.362500000000004 66.1375a56.56250000000001 56.56250000000001 0 0 0 -51.337500000000006 56.25 56.56250000000001 56.56250000000001 0 0 0 56.49999999999999 56.49999999999999h84.5125a7.8125 7.8125 0 1 0 0 -15.625H59.5125a40.9125 40.9125 0 0 1 -40.875 -40.875A40.9125 40.9125 0 0 1 82.375 88.5a7.8125 7.8125 0 0 0 8.75 -12.937499999999998 56.10000000000001 56.10000000000001 0 0 0 -21 -8.625 65.2875 65.2875 0 0 1 63.7 -51.300000000000004 65.2625 65.2625 0 0 1 64.67500000000001 57.125 56.1125 56.1125 0 0 0 -6.1 3.8125 7.8125 7.8125 0 1 0 9.1375 12.662499999999998 40.5625 40.5625 0 0 1 23.9 -7.7 40.975 40.975 0 0 1 40.0375 32.625 7.8125 7.8125 0 0 0 15.312500000000002 -3.1375 56.6625 56.6625 0 0 0 -55.35 -45.125 56.75 56.75 0 0 0 -11.975 1.3125C206.95000000000002 29.099999999999998 173.75 0 133.8125 0zm64.9 133a11.5625 11.5625 0 0 0 -5.775 1.35 11.4125 11.4125 0 0 0 -3.9125 3.6249999999999996 15.875 15.875 0 0 0 -2.1875 5.3374999999999995 29.875 29.875 0 0 0 -0.675 6.425c0 2.2624999999999997 0.22499999999999998 4.4125 0.675 6.4625 0.44999999999999996 2.0500000000000003 1.1875 3.8375 2.1875 5.375a11.2375 11.2375 0 0 0 3.9125 3.7125c1.5875 0.9125 3.5125 1.375 5.775 1.375 2.25 0 4.175 -0.46249999999999997 5.75 -1.375a11.2125 11.2125 0 0 0 3.8625 -3.6999999999999997c1 -1.55 1.7125000000000001 -3.3375000000000004 2.1624999999999996 -5.3875 0.44999999999999996 -2.0500000000000003 0.675 -4.2 0.675 -6.4625 0 -2.25 -0.22499999999999998 -4.3999999999999995 -0.675 -6.425a15.8875 15.8875 0 0 0 -2.1624999999999996 -5.325 11.262500000000001 11.262500000000001 0 0 0 -3.8625 -3.6374999999999997 11.4625 11.4625 0 0 0 -5.75 -1.35zm81.075 0a11.5625 11.5625 0 0 0 -5.775 1.35 11.4125 11.4125 0 0 0 -3.9125 3.6249999999999996 15.875 15.875 0 0 0 -2.1875 5.3374999999999995 29.875 29.875 0 0 0 -0.6625 6.425c0 2.2624999999999997 0.21250000000000002 4.4125 0.6625 6.4625 0.44999999999999996 2.0500000000000003 1.1875 3.8375 2.1875 5.375a11.2375 11.2375 0 0 0 3.9125 3.7125c1.5875 0.9125 3.5125 1.375 5.775 1.375 2.25 0 4.175 -0.46249999999999997 5.75 -1.375a11.2125 11.2125 0 0 0 3.875 -3.6999999999999997c0.975 -1.55 1.7000000000000002 -3.3375000000000004 2.15 -5.3875 0.44999999999999996 -2.0500000000000003 0.675 -4.2 0.675 -6.4625 0 -2.25 -0.22499999999999998 -4.3999999999999995 -0.675 -6.425a15.8875 15.8875 0 0 0 -2.1624999999999996 -5.325 11.262500000000001 11.262500000000001 0 0 0 -3.85 -3.6374999999999997 11.450000000000001 11.450000000000001 0 0 0 -5.7625 -1.35zm-106.7125 0.8500000000000001 -10.5 7.725 3.9125 5.375 5.949999999999999 -4.6v23.4625h7.5375v-31.9625zm81.075 0 -10.5125 7.725 3.925 5.375 5.9624999999999995 -4.6v23.4625h7.5375v-31.9625zm-55.43749999999999 5.5625c1 0 1.7874999999999999 0.35000000000000003 2.4125 1.05 0.625 0.7125 1.0875 1.5875 1.425 2.625 0.325 1.0375 0.5499999999999999 2.1624999999999996 0.675 3.3625000000000003a31.7625 31.7625 0 0 1 0 6.6625000000000005c-0.125 1.2125000000000001 -0.35000000000000003 2.3375 -0.675 3.375a7.3 7.3 0 0 1 -1.425 2.625 3.0375 3.0375 0 0 1 -2.4125 1.0625 3.1 3.1 0 0 1 -2.4375 -1.075 7.3 7.3 0 0 1 -1.4749999999999999 -2.6125 15.562500000000002 15.562500000000002 0 0 1 -0.7000000000000001 -3.375 33.0625 33.0625 0 0 1 0 -6.6625000000000005c0.125 -1.2 0.36250000000000004 -2.325 0.7000000000000001 -3.375a7.2875 7.2875 0 0 1 1.4749999999999999 -2.6125 3.125 3.125 0 0 1 2.4375 -1.05zm81.075 0c1 0 1.7999999999999998 0.35000000000000003 2.4125 1.05 0.625 0.7125 1.0875 1.5875 1.425 2.625 0.3375 1.0375 0.5499999999999999 2.1624999999999996 0.675 3.3625000000000003a31.7625 31.7625 0 0 1 0 6.6625000000000005c-0.125 1.2125000000000001 -0.3375 2.3375 -0.675 3.375a7.3 7.3 0 0 1 -1.425 2.625 3.0375 3.0375 0 0 1 -2.4125 1.0625 3.1125 3.1125 0 0 1 -2.4375 -1.075 7.262499999999999 7.262499999999999 0 0 1 -1.4625000000000001 -2.6125 15.562500000000002 15.562500000000002 0 0 1 -0.7000000000000001 -3.375 33.025 33.025 0 0 1 0 -6.6625000000000005c0.125 -1.2 0.35000000000000003 -2.325 0.7000000000000001 -3.375a7.249999999999999 7.249999999999999 0 0 1 1.4625000000000001 -2.6125 3.125 3.125 0 0 1 2.4375 -1.05zm-27.3875 43.875a11.625 11.625 0 0 0 -5.7875000000000005 1.3625 11.35 11.35 0 0 0 -3.9 3.6374999999999997c-1 1.525 -1.7375000000000003 3.2875 -2.1875 5.325a29.7875 29.7875 0 0 0 -0.675 6.425c0 2.25 0.22499999999999998 4.4125 0.675 6.45 0.44999999999999996 2.0500000000000003 1.175 3.85 2.1875 5.4a11.375 11.375 0 0 0 3.9 3.6999999999999997 11.5 11.5 0 0 0 5.7875000000000005 1.375c2.25 0 4.1625000000000005 -0.46249999999999997 5.75 -1.375a11.15 11.15 0 0 0 3.85 -3.6999999999999997 16.5 16.5 0 0 0 2.175 -5.4c0.44999999999999996 -2.0375 0.675 -4.1875 0.675 -6.45 0 -2.25 -0.22499999999999998 -4.3999999999999995 -0.675 -6.425a15.925 15.925 0 0 0 -2.175 -5.325 11.125 11.125 0 0 0 -3.8625 -3.6374999999999997 11.475 11.475 0 0 0 -5.75 -1.35zm-80.025 0.8750000000000001 -10.5125 7.7125 3.925 5.375 5.949999999999999 -4.6125v23.474999999999998h7.55v-31.9625zm26.5625 0 -10.5125 7.7125 3.925 5.375 5.9624999999999995 -4.6125v23.474999999999998h7.5375v-31.9625zm26.450000000000003 0 -10.5 7.7125 3.9125 5.375 5.9624999999999995 -4.6125v23.474999999999998h7.5375v-31.9625zm27 5.5375c1 0 1.7999999999999998 0.35000000000000003 2.4250000000000003 1.0625a7.5625 7.5625 0 0 1 1.425 2.625c0.325 1.0375 0.5499999999999999 2.15 0.6625 3.3625000000000003a32.9875 32.9875 0 0 1 0 6.65 16 16 0 0 1 -0.6625 3.375 7.3125 7.3125 0 0 1 -1.425 2.625 3.05 3.05 0 0 1 -2.4125 1.0625 3.125 3.125 0 0 1 -2.45 -1.0625 7.3625 7.3625 0 0 1 -1.4625000000000001 -2.625 15.562500000000002 15.562500000000002 0 0 1 -0.7000000000000001 -3.375 32.4625 32.4625 0 0 1 0 -6.65c0.125 -1.2125000000000001 0.35000000000000003 -2.325 0.7000000000000001 -3.375a7.3625 7.3625 0 0 1 1.4625000000000001 -2.6125 3.1125 3.1125 0 0 1 2.45 -1.0625zm-84.1125 38.4125a8.450000000000001 8.450000000000001 0 0 0 -4.1875 0.975 8.262500000000001 8.262500000000001 0 0 0 -2.8375 2.6374999999999997 11.375 11.375 0 0 0 -1.5875 3.875c-0.3375 1.4749999999999999 -0.5 3.025 -0.5 4.6625s0.1625 3.2 0.5 4.6875a11.625 11.625 0 0 0 1.5875 3.9125 8.125 8.125 0 0 0 2.8375 2.6875c1.15 0.6625 2.55 1 4.1875 1a8.1875 8.1875 0 0 0 4.175 -1 8.125 8.125 0 0 0 2.8125 -2.6875c0.7125 -1.125 1.25 -2.4250000000000003 1.5625 -3.9125a21.875 21.875 0 0 0 0.5 -4.6875c0 -1.625 -0.17500000000000002 -3.1875 -0.5 -4.6625a11.637500000000001 11.637500000000001 0 0 0 -1.5625 -3.875 8.225 8.225 0 0 0 -2.8125 -2.625 8.3375 8.3375 0 0 0 -4.175 -1zm38.574999999999996 0a8.4375 8.4375 0 0 0 -4.2 0.975 8.262500000000001 8.262500000000001 0 0 0 -2.825 2.6374999999999997 11.3375 11.3375 0 0 0 -1.5875 3.875 21.125 21.125 0 0 0 -0.5 4.6625c0 1.6375000000000002 0.1625 3.2 0.5 4.6875a11.600000000000001 11.600000000000001 0 0 0 1.5875 3.9125c0.7250000000000001 1.125 1.675 2.025 2.825 2.6875 1.1625 0.6625 2.5625 1 4.2 1a8.1875 8.1875 0 0 0 4.175 -1 8.125 8.125 0 0 0 2.8000000000000003 -2.6875c0.7250000000000001 -1.125 1.25 -2.4250000000000003 1.575 -3.9125a21.9 21.9 0 0 0 0 -9.35 11.75 11.75 0 0 0 -1.575 -3.875 8.2125 8.2125 0 0 0 -2.8000000000000003 -2.625 8.3375 8.3375 0 0 0 -4.175 -1zm63.849999999999994 0a8.4375 8.4375 0 0 0 -4.2 0.975 8.262500000000001 8.262500000000001 0 0 0 -2.825 2.6374999999999997 11.375 11.375 0 0 0 -1.5875 3.875c-0.3375 1.4749999999999999 -0.5 3.025 -0.5 4.6625s0.1625 3.2 0.5 4.6875a11.637500000000001 11.637500000000001 0 0 0 1.5875 3.9125c0.7250000000000001 1.125 1.675 2.025 2.825 2.6875 1.1625 0.6625 2.5625 1 4.2 1 1.625 0 3.0375 -0.3375 4.175 -1a8.125 8.125 0 0 0 2.8000000000000003 -2.6875c0.7250000000000001 -1.125 1.25 -2.4250000000000003 1.575 -3.9125a21.875 21.875 0 0 0 0.5 -4.6875c0 -1.625 -0.17500000000000002 -3.1875 -0.5 -4.6625a11.7875 11.7875 0 0 0 -1.575 -3.875 8.2125 8.2125 0 0 0 -2.8000000000000003 -2.625 8.35 8.35 0 0 0 -4.175 -1zm-83.22500000000001 0.625 -7.625 5.6000000000000005 2.8375 3.8875 4.324999999999999 -3.325v17.025000000000002h5.475v-23.200000000000003zm38.35 0 -7.625 5.6000000000000005 2.8375 3.8875 4.324999999999999 -3.325v17.025000000000002h5.475v-23.200000000000003zm63.849999999999994 0 -7.6375 5.6000000000000005 2.85 3.8875 4.324999999999999 -3.325v17.025000000000002h5.475v-23.200000000000003zm-121.39999999999999 4.025c0.7250000000000001 0 1.3125 0.25 1.7500000000000002 0.775a5.2625 5.2625 0 0 1 1.0375 1.8875 12 12 0 0 1 0.5 2.45 24.15 24.15 0 0 1 0 4.825 11.924999999999999 11.924999999999999 0 0 1 -0.5 2.4625 5.2625 5.2625 0 0 1 -1.0375 1.9 2.1999999999999997 2.1999999999999997 0 0 1 -1.7500000000000002 0.7625 2.25 2.25 0 0 1 -1.7624999999999997 -0.75 5.3374999999999995 5.3374999999999995 0 0 1 -1.0625 -1.9124999999999999 11.0875 11.0875 0 0 1 -0.5125000000000001 -2.4625 24.5 24.5 0 0 1 0 -4.825 11.1625 11.1625 0 0 1 0.5 -2.45 5.25 5.25 0 0 1 1.075 -1.8875 2.2624999999999997 2.2624999999999997 0 0 1 1.7624999999999997 -0.775zm38.574999999999996 0c0.7250000000000001 0 1.3 0.25 1.7500000000000002 0.775a5.2625 5.2625 0 0 1 1.0250000000000001 1.8875 11.75 11.75 0 0 1 0.5 2.45 23.825 23.825 0 0 1 0 4.825 11.625 11.625 0 0 1 -0.5 2.4625 5.2625 5.2625 0 0 1 -1.0250000000000001 1.9 2.1999999999999997 2.1999999999999997 0 0 1 -1.7500000000000002 0.7625 2.25 2.25 0 0 1 -1.7624999999999997 -0.75 5.25 5.25 0 0 1 -1.075 -1.9124999999999999 10.575 10.575 0 0 1 -0.5 -2.4625 24.5625 24.5625 0 0 1 -0.13749999999999998 -2.4375c0 -0.7125 0.05 -1.5125 0.125 -2.3875a10.612499999999999 10.612499999999999 0 0 1 0.5125000000000001 -2.45 5.25 5.25 0 0 1 1.075 -1.8875 2.275 2.275 0 0 1 1.7624999999999997 -0.775zm63.849999999999994 0c0.7250000000000001 0 1.3 0.25 1.7500000000000002 0.775a5.2625 5.2625 0 0 1 1.0250000000000001 1.8875 11.5 11.5 0 0 1 0.5 2.45 24.5375 24.5375 0 0 1 0 4.825 11.7875 11.7875 0 0 1 -0.5 2.4625 5.2625 5.2625 0 0 1 -1.0250000000000001 1.9 2.2125 2.2125 0 0 1 -1.7500000000000002 0.7625 2.25 2.25 0 0 1 -1.775 -0.75 5.4625 5.4625 0 0 1 -1.0625 -1.9124999999999999 11.875 11.875 0 0 1 -0.5 -2.4625 24.5625 24.5625 0 0 1 -0.13749999999999998 -2.4375c0 -0.7125 0.05 -1.5125 0.125 -2.3875a11.987499999999999 11.987499999999999 0 0 1 0.5 -2.45 5.875 5.875 0 0 1 1.075 -1.8875 2.2624999999999997 2.2624999999999997 0 0 1 1.775 -0.775zm-21.05 22.675a8.4375 8.4375 0 0 0 -4.2 0.9875 8.25 8.25 0 0 0 -2.8375 2.625 11.375 11.375 0 0 0 -1.5875 3.875 21.637500000000003 21.637500000000003 0 0 0 0 9.35 11.737499999999999 11.737499999999999 0 0 0 1.5875 3.925c0.7374999999999999 1.125 1.675 2.025 2.8375 2.6875 1.1625 0.6625 2.5625 1 4.2 1a8.25 8.25 0 0 0 4.175 -1 8.1 8.1 0 0 0 2.8000000000000003 -2.6875c0.7250000000000001 -1.125 1.25 -2.4375 1.575 -3.925a21.712500000000002 21.712500000000002 0 0 0 -0.0125 -9.3375 11.600000000000001 11.600000000000001 0 0 0 -1.5625 -3.875 8.125 8.125 0 0 0 -2.8000000000000003 -2.6374999999999997 8.35 8.35 0 0 0 -4.175 -0.9875zm38.2875 0a8.450000000000001 8.450000000000001 0 0 0 -4.2 0.9875 8.3 8.3 0 0 0 -2.8375 2.625 11.325000000000001 11.325000000000001 0 0 0 -1.5875 3.875 21.75 21.75 0 0 0 0 9.35 11.700000000000001 11.700000000000001 0 0 0 1.5875 3.925 8.25 8.25 0 0 0 2.8375 2.6875c1.15 0.6625 2.55 1 4.2 1a8.175 8.175 0 0 0 4.175 -1 8.1 8.1 0 0 0 2.7875 -2.6875c0.7250000000000001 -1.125 1.25 -2.4375 1.575 -3.925a21.75 21.75 0 0 0 0 -9.3375 11.600000000000001 11.600000000000001 0 0 0 -1.575 -3.875 8.125 8.125 0 0 0 -2.7875 -2.6374999999999997 8.325000000000001 8.325000000000001 0 0 0 -4.175 -0.9875zm-19.3125 0.625 -7.6375 5.6000000000000005 2.85 3.9 4.324999999999999 -3.3375000000000004v17.0375h5.475v-23.200000000000003zm-18.975 4.0375000000000005c0.7125 0 1.3 0.25 1.7500000000000002 0.7625a5.25 5.25 0 0 1 1.0250000000000001 1.9 11.375 11.375 0 0 1 0.5 2.4375 24.575 24.575 0 0 1 0 4.8375 11.8875 11.8875 0 0 1 -0.5 2.4625 5.2625 5.2625 0 0 1 -1.0250000000000001 1.9 2.2125 2.2125 0 0 1 -1.7500000000000002 0.75 2.25 2.25 0 0 1 -1.775 -0.75 5.35 5.35 0 0 1 -1.0625 -1.9 11.425 11.425 0 0 1 -0.5 -2.4625 24.5 24.5 0 0 1 -0.13749999999999998 -2.4375c0 -0.7250000000000001 0.0375 -1.525 0.125 -2.4a11.537500000000001 11.537500000000001 0 0 1 0.5125000000000001 -2.4375c0.25 -0.75 0.6 -1.375 1.0625 -1.9a2.2624999999999997 2.2624999999999997 0 0 1 1.775 -0.7625zm38.2875 0c0.7125 0 1.3 0.25 1.7500000000000002 0.7625a5.25 5.25 0 0 1 1.0250000000000001 1.9 11.75 11.75 0 0 1 0.5 2.4375 23.875 23.875 0 0 1 0 4.8375 11.625 11.625 0 0 1 -0.5 2.4625 5.2749999999999995 5.2749999999999995 0 0 1 -1.0375 1.9 2.1875 2.1875 0 0 1 -1.7500000000000002 0.75 2.25 2.25 0 0 1 -1.7624999999999997 -0.75 5.2875 5.2875 0 0 1 -1.0625 -1.9 11.3375 11.3375 0 0 1 -0.5 -2.4625 24.375 24.375 0 0 1 0 -4.8375 11.4375 11.4375 0 0 1 0.5 -2.4375c0.25 -0.75 0.6 -1.375 1.0625 -1.9a2.275 2.275 0 0 1 1.775 -0.7625zm-121.4125 2.3125a5.8125 5.8125 0 0 0 -2.9000000000000004 0.6875 5.7 5.7 0 0 0 -1.9625 1.825 7.8375 7.8375 0 0 0 -1.1125 2.6875 14.6 14.6 0 0 0 -0.3375 3.2375000000000003c0 1.125 0.11249999999999999 2.2125 0.3375 3.25a8.1 8.1 0 0 0 1.1125 2.7c0.5 0.7875 1.1625 1.4000000000000001 1.9625 1.8624999999999998a5.7375 5.7375 0 0 0 2.9000000000000004 0.7000000000000001c1.125 0 2.1 -0.25 2.8875 -0.7000000000000001a5.625 5.625 0 0 0 1.95 -1.8624999999999998 8.375 8.375 0 0 0 1.0875 -2.7125 15.225 15.225 0 0 0 0 -6.4750000000000005 8.0875 8.0875 0 0 0 -1.0875 -2.6875 5.6000000000000005 5.6000000000000005 0 0 0 -1.95 -1.825 5.7250000000000005 5.7250000000000005 0 0 0 -2.875 -0.6875zm13.15 0.43750000000000006 -5.2875 3.875 1.975 2.7125 3 -2.3125v11.799999999999999h3.7875v-16.075zm-13.15 2.8000000000000003c0.5 0 0.9125 0.17500000000000002 1.2125000000000001 0.525a3.55 3.55 0 0 1 0.7125 1.3125 8.625 8.625 0 0 1 0.35000000000000003 1.7000000000000002c0.05 0.6125 0.08750000000000001 1.15 0.08750000000000001 1.6625 0 0.5 -0.0375 1.075 -0.08750000000000001 1.6875a8.55 8.55 0 0 1 -0.35000000000000003 1.7000000000000002 3.5624999999999996 3.5624999999999996 0 0 1 -0.7125 1.3125 1.5375 1.5375 0 0 1 -1.2125000000000001 0.5375 1.5625 1.5625 0 0 1 -1.225 -0.5375 3.7249999999999996 3.7249999999999996 0 0 1 -0.7374999999999999 -1.3125 7.6499999999999995 7.6499999999999995 0 0 1 -0.35000000000000003 -1.7000000000000002 17.375 17.375 0 0 1 0 -3.35 7.75 7.75 0 0 1 0.35000000000000003 -1.7000000000000002 3.7125 3.7125 0 0 1 0.75 -1.3125 1.5625 1.5625 0 0 1 1.2125000000000001 -0.525zm47.1875 17.424999999999997a5.7875000000000005 5.7875000000000005 0 0 0 -2.9000000000000004 0.675 5.65 5.65 0 0 0 -1.9625 1.825 7.7625 7.7625 0 0 0 -1.0999999999999999 2.675 14.875 14.875 0 0 0 0 6.4875 8.0125 8.0125 0 0 0 1.0999999999999999 2.7125 5.75 5.75 0 0 0 1.9625 1.875 5.7250000000000005 5.7250000000000005 0 0 0 2.9000000000000004 0.675 5.675 5.675 0 0 0 2.9000000000000004 -0.6875 5.625 5.625 0 0 0 1.9375 -1.8624999999999998 8.3 8.3 0 0 0 1.0875 -2.7125 14.8625 14.8625 0 0 0 0 -6.4875 8.025 8.025 0 0 0 -1.0875 -2.675 5.575 5.575 0 0 0 -1.9375 -1.825 5.7375 5.7375 0 0 0 -2.9000000000000004 -0.675zm13.15 0.42500000000000004 -5.2875 3.875 1.975 2.7 3 -2.3125v11.8125h3.7875V283.5zm-13.15 2.7875c0.5 0 0.9125 0.17500000000000002 1.225 0.5375a3.75 3.75 0 0 1 0.7125 1.3125 8.0375 8.0375 0 0 1 0.3375 1.6875 16.375 16.375 0 0 1 0 3.35 8.175 8.175 0 0 1 -0.3375 1.7125000000000001 3.8375 3.8375 0 0 1 -0.7125 1.3125 1.55 1.55 0 0 1 -1.225 0.525 1.5625 1.5625 0 0 1 -1.225 -0.525 3.6624999999999996 3.6624999999999996 0 0 1 -0.7374999999999999 -1.3125 7.725 7.725 0 0 1 -0.35000000000000003 -1.7125000000000001 17.05 17.05 0 0 1 0 -3.35 7.6499999999999995 7.6499999999999995 0 0 1 0.35000000000000003 -1.6875 3.5875 3.5875 0 0 1 0.75 -1.3125 1.5375 1.5375 0 0 1 1.2125000000000001 -0.5375z" fill="#000000" stroke-width="12.5"></path>
</svg>